G04 #@! TF.GenerationSoftware,KiCad,Pcbnew,9.0.1*
G04 #@! TF.CreationDate,2025-04-25T16:07:12+02:00*
G04 #@! TF.ProjectId,M.2-Key-E-Breakout,4d2e322d-4b65-4792-9d45-2d427265616b,rev?*
G04 #@! TF.SameCoordinates,Original*
G04 #@! TF.FileFunction,Soldermask,Bot*
G04 #@! TF.FilePolarity,Negative*
%FSLAX46Y46*%
G04 Gerber Fmt 4.6, Leading zero omitted, Abs format (unit mm)*
G04 Created by KiCad (PCBNEW 9.0.1) date 2025-04-25 16:07:12*
%MOMM*%
%LPD*%
G01*
G04 APERTURE LIST*
G04 Aperture macros list*
%AMRoundRect*
0 Rectangle with rounded corners*
0 $1 Rounding radius*
0 $2 $3 $4 $5 $6 $7 $8 $9 X,Y pos of 4 corners*
0 Add a 4 corners polygon primitive as box body*
4,1,4,$2,$3,$4,$5,$6,$7,$8,$9,$2,$3,0*
0 Add four circle primitives for the rounded corners*
1,1,$1+$1,$2,$3*
1,1,$1+$1,$4,$5*
1,1,$1+$1,$6,$7*
1,1,$1+$1,$8,$9*
0 Add four rect primitives between the rounded corners*
20,1,$1+$1,$2,$3,$4,$5,0*
20,1,$1+$1,$4,$5,$6,$7,0*
20,1,$1+$1,$6,$7,$8,$9,0*
20,1,$1+$1,$8,$9,$2,$3,0*%
G04 Aperture macros list end*
%ADD10C,0.100000*%
%ADD11C,0.000000*%
%ADD12R,0.350000X1.450000*%
%ADD13C,5.000000*%
%ADD14O,5.000000X6.000000*%
%ADD15RoundRect,0.666667X-0.833333X-0.333333X0.833333X-0.333333X0.833333X0.333333X-0.833333X0.333333X0*%
G04 APERTURE END LIST*
D10*
X133000000Y-99075153D02*
X153876992Y-99075153D01*
X153876992Y-101500000D01*
X133000000Y-101500000D01*
X133000000Y-99075153D01*
G36*
X133000000Y-99075153D02*
G01*
X153876992Y-99075153D01*
X153876992Y-101500000D01*
X133000000Y-101500000D01*
X133000000Y-99075153D01*
G37*
D11*
G36*
X149370020Y-75033928D02*
G01*
X149370019Y-75033928D01*
X148291188Y-75716646D01*
X149092406Y-76198359D01*
X150171459Y-75515510D01*
X151026083Y-76029285D01*
X147932714Y-77987140D01*
X147078045Y-77473230D01*
X148300000Y-76700000D01*
X147498781Y-76218286D01*
X146276827Y-76991517D01*
X145421981Y-76477741D01*
X148515351Y-74520021D01*
X149370020Y-75033928D01*
G37*
G36*
X151084405Y-72261657D02*
G01*
X151389871Y-74790280D01*
X151396514Y-74794312D01*
X151660841Y-72613976D01*
X152299850Y-73004778D01*
X152595707Y-75558864D01*
X152602217Y-75562894D01*
X152876464Y-73357273D01*
X153591109Y-73794215D01*
X152962993Y-77200936D01*
X152258003Y-76769793D01*
X151985660Y-74293645D01*
X151979150Y-74289616D01*
X151750648Y-76459810D01*
X151042469Y-76026807D01*
X150372816Y-71826928D01*
X151084405Y-72261657D01*
G37*
D12*
X152500000Y-99750000D03*
X152000000Y-99750000D03*
X151500000Y-99750000D03*
X151000000Y-99750000D03*
X150500000Y-99750000D03*
X150000000Y-99750000D03*
X149500000Y-99750000D03*
X149000000Y-99750000D03*
X148500000Y-99750000D03*
X148000000Y-99750000D03*
X147500000Y-99750000D03*
X145000000Y-99750000D03*
X144500000Y-99750000D03*
X144000000Y-99750000D03*
X143500000Y-99750000D03*
X143000000Y-99750000D03*
X142500000Y-99750000D03*
X142000000Y-99750000D03*
X141500000Y-99750000D03*
X141000000Y-99750000D03*
X140500000Y-99750000D03*
X140000000Y-99750000D03*
X139500000Y-99750000D03*
X139000000Y-99750000D03*
X138500000Y-99750000D03*
X138000000Y-99750000D03*
X137500000Y-99750000D03*
X137000000Y-99750000D03*
X136500000Y-99750000D03*
X136000000Y-99750000D03*
X135500000Y-99750000D03*
X135000000Y-99750000D03*
X134500000Y-99750000D03*
D13*
X143475000Y-71025000D03*
D14*
X143475000Y-71525000D03*
D15*
X132475000Y-74025000D03*
X132475000Y-76525000D03*
X132475000Y-79025000D03*
X132475000Y-81525000D03*
X132475000Y-84025000D03*
X132475000Y-86525000D03*
X132475000Y-89025000D03*
X132475000Y-91525000D03*
X132475000Y-94025000D03*
M02*
