G04 #@! TF.GenerationSoftware,KiCad,Pcbnew,9.0.1*
G04 #@! TF.CreationDate,2025-04-25T16:07:11+02:00*
G04 #@! TF.ProjectId,M.2-Key-E-Breakout,4d2e322d-4b65-4792-9d45-2d427265616b,rev?*
G04 #@! TF.SameCoordinates,Original*
G04 #@! TF.FileFunction,Copper,L2,Bot*
G04 #@! TF.FilePolarity,Positive*
%FSLAX46Y46*%
G04 Gerber Fmt 4.6, Leading zero omitted, Abs format (unit mm)*
G04 Created by KiCad (PCBNEW 9.0.1) date 2025-04-25 16:07:11*
%MOMM*%
%LPD*%
G01*
G04 APERTURE LIST*
G04 Aperture macros list*
%AMRoundRect*
0 Rectangle with rounded corners*
0 $1 Rounding radius*
0 $2 $3 $4 $5 $6 $7 $8 $9 X,Y pos of 4 corners*
0 Add a 4 corners polygon primitive as box body*
4,1,4,$2,$3,$4,$5,$6,$7,$8,$9,$2,$3,0*
0 Add four circle primitives for the rounded corners*
1,1,$1+$1,$2,$3*
1,1,$1+$1,$4,$5*
1,1,$1+$1,$6,$7*
1,1,$1+$1,$8,$9*
0 Add four rect primitives between the rounded corners*
20,1,$1+$1,$2,$3,$4,$5,0*
20,1,$1+$1,$4,$5,$6,$7,0*
20,1,$1+$1,$6,$7,$8,$9,0*
20,1,$1+$1,$8,$9,$2,$3,0*%
G04 Aperture macros list end*
G04 #@! TA.AperFunction,ConnectorPad*
%ADD10R,0.350000X1.450000*%
G04 #@! TD*
G04 #@! TA.AperFunction,ComponentPad*
%ADD11C,5.000000*%
G04 #@! TD*
G04 #@! TA.AperFunction,ConnectorPad*
%ADD12O,5.000000X6.000000*%
G04 #@! TD*
G04 #@! TA.AperFunction,ComponentPad*
%ADD13RoundRect,0.666667X-0.833333X-0.333333X0.833333X-0.333333X0.833333X0.333333X-0.833333X0.333333X0*%
G04 #@! TD*
G04 #@! TA.AperFunction,ViaPad*
%ADD14C,0.600000*%
G04 #@! TD*
G04 #@! TA.AperFunction,Conductor*
%ADD15C,0.200000*%
G04 #@! TD*
G04 APERTURE END LIST*
D10*
X152500000Y-99750000D03*
X152000000Y-99750000D03*
X151500000Y-99750000D03*
X151000000Y-99750000D03*
X150500000Y-99750000D03*
X150000000Y-99750000D03*
X149500000Y-99750000D03*
X149000000Y-99750000D03*
X148500000Y-99750000D03*
X148000000Y-99750000D03*
X147500000Y-99750000D03*
X145000000Y-99750000D03*
X144500000Y-99750000D03*
X144000000Y-99750000D03*
X143500000Y-99750000D03*
X143000000Y-99750000D03*
X142500000Y-99750000D03*
X142000000Y-99750000D03*
X141500000Y-99750000D03*
X141000000Y-99750000D03*
X140500000Y-99750000D03*
X140000000Y-99750000D03*
X139500000Y-99750000D03*
X139000000Y-99750000D03*
X138500000Y-99750000D03*
X138000000Y-99750000D03*
X137500000Y-99750000D03*
X137000000Y-99750000D03*
X136500000Y-99750000D03*
X136000000Y-99750000D03*
X135500000Y-99750000D03*
X135000000Y-99750000D03*
X134500000Y-99750000D03*
D11*
X143475000Y-71025000D03*
D12*
X143475000Y-71525000D03*
D13*
X132475000Y-74025000D03*
X132475000Y-76525000D03*
X132475000Y-79025000D03*
X132475000Y-81525000D03*
X132475000Y-84025000D03*
X132475000Y-86525000D03*
X132475000Y-89025000D03*
X132475000Y-91525000D03*
X132475000Y-94025000D03*
D14*
X135000000Y-96500000D03*
X135000000Y-78000000D03*
X135000000Y-85500000D03*
X135000000Y-93000000D03*
D15*
X138500000Y-93500000D02*
X136525000Y-91525000D01*
X138500000Y-99750000D02*
X138500000Y-93500000D01*
X136525000Y-91525000D02*
X132975000Y-91525000D01*
X138000000Y-99750000D02*
X138000000Y-96000000D01*
X138000000Y-96000000D02*
X136025000Y-94025000D01*
X136025000Y-94025000D02*
X132975000Y-94025000D01*
X147500000Y-90000000D02*
X141525000Y-84025000D01*
X141525000Y-84025000D02*
X132975000Y-84025000D01*
X147500000Y-99750000D02*
X147500000Y-90000000D01*
X141025000Y-86525000D02*
X132975000Y-86525000D01*
X145000000Y-90500000D02*
X141025000Y-86525000D01*
X145000000Y-99750000D02*
X145000000Y-90500000D01*
G04 #@! TA.AperFunction,Conductor*
G36*
X141461990Y-71294407D02*
G01*
X141497954Y-71343907D01*
X141501875Y-71361013D01*
X141511765Y-71432965D01*
X141585602Y-71696492D01*
X141585604Y-71696496D01*
X141694630Y-71947503D01*
X141694631Y-71947504D01*
X141694634Y-71947509D01*
X141694635Y-71947511D01*
X141836832Y-72181345D01*
X142009546Y-72393638D01*
X142209558Y-72580437D01*
X142433143Y-72738260D01*
X142676136Y-72864169D01*
X142934010Y-72955818D01*
X143201962Y-73011499D01*
X143338481Y-73020837D01*
X143474997Y-73030175D01*
X143475000Y-73030175D01*
X143475003Y-73030175D01*
X143592016Y-73022171D01*
X143748038Y-73011499D01*
X144015990Y-72955818D01*
X144273864Y-72864169D01*
X144516857Y-72738260D01*
X144740442Y-72580437D01*
X144940454Y-72393638D01*
X145113168Y-72181345D01*
X145255365Y-71947511D01*
X145255368Y-71947503D01*
X145255369Y-71947503D01*
X145287394Y-71873772D01*
X145364398Y-71696492D01*
X145438235Y-71432965D01*
X145448123Y-71361018D01*
X145474778Y-71305945D01*
X145528714Y-71277057D01*
X145546201Y-71275500D01*
X154125500Y-71275500D01*
X154183691Y-71294407D01*
X154219655Y-71343907D01*
X154224500Y-71374500D01*
X154224500Y-96675500D01*
X154205593Y-96733691D01*
X154156093Y-96769655D01*
X154125500Y-96774500D01*
X153891230Y-96774500D01*
X153726920Y-96807183D01*
X153726914Y-96807185D01*
X153572137Y-96871296D01*
X153432838Y-96964374D01*
X153432834Y-96964377D01*
X153314377Y-97082834D01*
X153314374Y-97082838D01*
X153221296Y-97222137D01*
X153157185Y-97376914D01*
X153157183Y-97376920D01*
X153124500Y-97541230D01*
X153124500Y-98701000D01*
X153105593Y-98759191D01*
X153056093Y-98795155D01*
X153025500Y-98800000D01*
X152799999Y-98800000D01*
X152799518Y-98800481D01*
X152745001Y-98828257D01*
X152710202Y-98827574D01*
X152694748Y-98824500D01*
X152305252Y-98824500D01*
X152305247Y-98824500D01*
X152269313Y-98831648D01*
X152230687Y-98831648D01*
X152194752Y-98824500D01*
X152194748Y-98824500D01*
X151805252Y-98824500D01*
X151805247Y-98824500D01*
X151769313Y-98831648D01*
X151730687Y-98831648D01*
X151694752Y-98824500D01*
X151694748Y-98824500D01*
X151305252Y-98824500D01*
X151305247Y-98824500D01*
X151269313Y-98831648D01*
X151230687Y-98831648D01*
X151194752Y-98824500D01*
X151194748Y-98824500D01*
X150805252Y-98824500D01*
X150805247Y-98824500D01*
X150769313Y-98831648D01*
X150730687Y-98831648D01*
X150694752Y-98824500D01*
X150694748Y-98824500D01*
X150305252Y-98824500D01*
X150305247Y-98824500D01*
X150269313Y-98831648D01*
X150230687Y-98831648D01*
X150194752Y-98824500D01*
X150194748Y-98824500D01*
X149805252Y-98824500D01*
X149805247Y-98824500D01*
X149769313Y-98831648D01*
X149730687Y-98831648D01*
X149694752Y-98824500D01*
X149694748Y-98824500D01*
X149305252Y-98824500D01*
X149305247Y-98824500D01*
X149269313Y-98831648D01*
X149230687Y-98831648D01*
X149194752Y-98824500D01*
X149194748Y-98824500D01*
X148805252Y-98824500D01*
X148805247Y-98824500D01*
X148768031Y-98831903D01*
X148729405Y-98831903D01*
X148694702Y-98825000D01*
X148600001Y-98825000D01*
X148600000Y-98825001D01*
X148600000Y-99651000D01*
X148595155Y-99665911D01*
X148595155Y-99681593D01*
X148585938Y-99694278D01*
X148581093Y-99709191D01*
X148568407Y-99718407D01*
X148559191Y-99731093D01*
X148544278Y-99735938D01*
X148531593Y-99745155D01*
X148501000Y-99750000D01*
X148499000Y-99750000D01*
X148440809Y-99731093D01*
X148404845Y-99681593D01*
X148400000Y-99651000D01*
X148400000Y-98825001D01*
X148399999Y-98825000D01*
X148305295Y-98825000D01*
X148270593Y-98831903D01*
X148231967Y-98831903D01*
X148194751Y-98824500D01*
X148194748Y-98824500D01*
X147899500Y-98824500D01*
X147841309Y-98805593D01*
X147805345Y-98756093D01*
X147800500Y-98725500D01*
X147800500Y-89960437D01*
X147800499Y-89960435D01*
X147780021Y-89884011D01*
X147780019Y-89884007D01*
X147740460Y-89815489D01*
X147684511Y-89759539D01*
X147684511Y-89759540D01*
X141709511Y-83784540D01*
X141709508Y-83784538D01*
X141640992Y-83744980D01*
X141640988Y-83744978D01*
X141564564Y-83724500D01*
X141564562Y-83724500D01*
X134274500Y-83724500D01*
X134216309Y-83705593D01*
X134180345Y-83656093D01*
X134175500Y-83625500D01*
X134175500Y-83616265D01*
X134175499Y-83616246D01*
X134172628Y-83573913D01*
X134172628Y-83573909D01*
X134127107Y-83390864D01*
X134043300Y-83221885D01*
X133925128Y-83074872D01*
X133778115Y-82956700D01*
X133778112Y-82956698D01*
X133609141Y-82872895D01*
X133609137Y-82872893D01*
X133609136Y-82872893D01*
X133609134Y-82872892D01*
X133609127Y-82872890D01*
X133600775Y-82870813D01*
X133548869Y-82838418D01*
X133525918Y-82781701D01*
X133540688Y-82722325D01*
X133587537Y-82682970D01*
X133600787Y-82678666D01*
X133608958Y-82676634D01*
X133608964Y-82676632D01*
X133777843Y-82592877D01*
X133924769Y-82474773D01*
X133924773Y-82474769D01*
X134042877Y-82327843D01*
X134126632Y-82158964D01*
X134126633Y-82158961D01*
X134172128Y-81976024D01*
X134172129Y-81976019D01*
X134174999Y-81933703D01*
X134175000Y-81933684D01*
X134175000Y-81625001D01*
X134174999Y-81625000D01*
X132965843Y-81625000D01*
X132975000Y-81590826D01*
X132975000Y-81459174D01*
X132965843Y-81425000D01*
X134174999Y-81425000D01*
X134175000Y-81424999D01*
X134175000Y-81116315D01*
X134174999Y-81116296D01*
X134172129Y-81073980D01*
X134172128Y-81073975D01*
X134126633Y-80891038D01*
X134126632Y-80891035D01*
X134042877Y-80722156D01*
X133924773Y-80575230D01*
X133924769Y-80575226D01*
X133777842Y-80457122D01*
X133777843Y-80457122D01*
X133608964Y-80373367D01*
X133608961Y-80373366D01*
X133600780Y-80371332D01*
X133548873Y-80338939D01*
X133525918Y-80282223D01*
X133540685Y-80222846D01*
X133587532Y-80183489D01*
X133600774Y-80179186D01*
X133609136Y-80177107D01*
X133778115Y-80093300D01*
X133925128Y-79975128D01*
X134043300Y-79828115D01*
X134127107Y-79659136D01*
X134172628Y-79476091D01*
X134175500Y-79433736D01*
X134175500Y-78616264D01*
X134172628Y-78573909D01*
X134127107Y-78390864D01*
X134043300Y-78221885D01*
X133925128Y-78074872D01*
X133778115Y-77956700D01*
X133778112Y-77956698D01*
X133609141Y-77872895D01*
X133609138Y-77872894D01*
X133609136Y-77872893D01*
X133601817Y-77871072D01*
X133549911Y-77838682D01*
X133526956Y-77781966D01*
X133541722Y-77722589D01*
X133588569Y-77683231D01*
X133601810Y-77678928D01*
X133609136Y-77677107D01*
X133778115Y-77593300D01*
X133925128Y-77475128D01*
X134043300Y-77328115D01*
X134127107Y-77159136D01*
X134172628Y-76976091D01*
X134175500Y-76933736D01*
X134175500Y-76116264D01*
X134172628Y-76073909D01*
X134127107Y-75890864D01*
X134043300Y-75721885D01*
X133925128Y-75574872D01*
X133778115Y-75456700D01*
X133778112Y-75456698D01*
X133609141Y-75372895D01*
X133609137Y-75372893D01*
X133609136Y-75372893D01*
X133609134Y-75372892D01*
X133609127Y-75372890D01*
X133600775Y-75370813D01*
X133548869Y-75338418D01*
X133525918Y-75281701D01*
X133540688Y-75222325D01*
X133587537Y-75182970D01*
X133600787Y-75178666D01*
X133608958Y-75176634D01*
X133608964Y-75176632D01*
X133777843Y-75092877D01*
X133924769Y-74974773D01*
X133924773Y-74974769D01*
X134042877Y-74827843D01*
X134126632Y-74658964D01*
X134126633Y-74658961D01*
X134172128Y-74476024D01*
X134172129Y-74476019D01*
X134174999Y-74433703D01*
X134175000Y-74433684D01*
X134175000Y-74125001D01*
X134174999Y-74125000D01*
X132965843Y-74125000D01*
X132975000Y-74090826D01*
X132975000Y-73959174D01*
X132965843Y-73925000D01*
X134174999Y-73925000D01*
X134175000Y-73924999D01*
X134175000Y-73616315D01*
X134174999Y-73616296D01*
X134172129Y-73573980D01*
X134172128Y-73573975D01*
X134126633Y-73391038D01*
X134126632Y-73391035D01*
X134042877Y-73222156D01*
X133924773Y-73075230D01*
X133924769Y-73075226D01*
X133777842Y-72957122D01*
X133777843Y-72957122D01*
X133608964Y-72873367D01*
X133608961Y-72873366D01*
X133426024Y-72827871D01*
X133426019Y-72827870D01*
X133383703Y-72825000D01*
X132824500Y-72825000D01*
X132766309Y-72806093D01*
X132730345Y-72756593D01*
X132725500Y-72726000D01*
X132725500Y-71374500D01*
X132744407Y-71316309D01*
X132793907Y-71280345D01*
X132824500Y-71275500D01*
X141403799Y-71275500D01*
X141461990Y-71294407D01*
G37*
G04 #@! TD.AperFunction*
G04 #@! TA.AperFunction,Conductor*
G36*
X141417712Y-84344407D02*
G01*
X141429525Y-84354496D01*
X147170504Y-90095475D01*
X147198281Y-90149992D01*
X147199500Y-90165479D01*
X147199500Y-98821903D01*
X147182815Y-98876905D01*
X147156815Y-98915816D01*
X147108765Y-98953695D01*
X147047627Y-98956097D01*
X146996753Y-98922104D01*
X146975576Y-98864700D01*
X146975500Y-98860814D01*
X146975500Y-98035612D01*
X146975500Y-98035609D01*
X146938329Y-97860733D01*
X146865612Y-97697408D01*
X146760526Y-97552770D01*
X146760522Y-97552766D01*
X146760521Y-97552765D01*
X146627667Y-97433143D01*
X146627665Y-97433141D01*
X146595845Y-97414769D01*
X146472844Y-97343754D01*
X146472830Y-97343748D01*
X146302808Y-97288504D01*
X146302805Y-97288503D01*
X146302803Y-97288503D01*
X146125000Y-97269815D01*
X145947197Y-97288503D01*
X145947195Y-97288503D01*
X145947191Y-97288504D01*
X145777169Y-97343748D01*
X145777155Y-97343754D01*
X145622338Y-97433139D01*
X145622332Y-97433143D01*
X145489478Y-97552765D01*
X145489473Y-97552770D01*
X145479591Y-97566372D01*
X145430090Y-97602334D01*
X145368905Y-97602333D01*
X145319406Y-97566368D01*
X145300500Y-97508179D01*
X145300500Y-90460437D01*
X145300499Y-90460435D01*
X145280021Y-90384011D01*
X145280019Y-90384007D01*
X145240460Y-90315489D01*
X145184511Y-90259539D01*
X145184511Y-90259540D01*
X141209511Y-86284540D01*
X141209508Y-86284538D01*
X141140992Y-86244980D01*
X141140988Y-86244978D01*
X141064564Y-86224500D01*
X141064562Y-86224500D01*
X134274500Y-86224500D01*
X134216309Y-86205593D01*
X134180345Y-86156093D01*
X134175500Y-86125500D01*
X134175500Y-86116265D01*
X134175499Y-86116246D01*
X134172628Y-86073913D01*
X134172628Y-86073909D01*
X134127107Y-85890864D01*
X134043300Y-85721885D01*
X133925128Y-85574872D01*
X133778115Y-85456700D01*
X133778112Y-85456698D01*
X133609141Y-85372895D01*
X133609138Y-85372894D01*
X133609136Y-85372893D01*
X133601817Y-85371072D01*
X133549911Y-85338682D01*
X133526956Y-85281966D01*
X133541722Y-85222589D01*
X133588569Y-85183231D01*
X133601810Y-85178928D01*
X133609136Y-85177107D01*
X133778115Y-85093300D01*
X133925128Y-84975128D01*
X134043300Y-84828115D01*
X134127107Y-84659136D01*
X134172628Y-84476091D01*
X134175500Y-84433736D01*
X134175500Y-84424500D01*
X134194407Y-84366309D01*
X134243907Y-84330345D01*
X134274500Y-84325500D01*
X141359521Y-84325500D01*
X141417712Y-84344407D01*
G37*
G04 #@! TD.AperFunction*
G04 #@! TA.AperFunction,Conductor*
G36*
X135917712Y-94344407D02*
G01*
X135929525Y-94354496D01*
X137670504Y-96095475D01*
X137698281Y-96149992D01*
X137699500Y-96165479D01*
X137699500Y-98725500D01*
X137680593Y-98783691D01*
X137631093Y-98819655D01*
X137600500Y-98824500D01*
X137305247Y-98824500D01*
X137269313Y-98831648D01*
X137230687Y-98831648D01*
X137194752Y-98824500D01*
X137194748Y-98824500D01*
X136805252Y-98824500D01*
X136805247Y-98824500D01*
X136769313Y-98831648D01*
X136730687Y-98831648D01*
X136694752Y-98824500D01*
X136694748Y-98824500D01*
X136305252Y-98824500D01*
X136305247Y-98824500D01*
X136269313Y-98831648D01*
X136230687Y-98831648D01*
X136194752Y-98824500D01*
X136194748Y-98824500D01*
X135805252Y-98824500D01*
X135805247Y-98824500D01*
X135769313Y-98831648D01*
X135730687Y-98831648D01*
X135694752Y-98824500D01*
X135694748Y-98824500D01*
X135305252Y-98824500D01*
X135305247Y-98824500D01*
X135269313Y-98831648D01*
X135230687Y-98831648D01*
X135194752Y-98824500D01*
X135194748Y-98824500D01*
X134805252Y-98824500D01*
X134805247Y-98824500D01*
X134769313Y-98831648D01*
X134730687Y-98831648D01*
X134694752Y-98824500D01*
X134694748Y-98824500D01*
X134305252Y-98824500D01*
X134305249Y-98824500D01*
X134289797Y-98827574D01*
X134229036Y-98820382D01*
X134200479Y-98800480D01*
X134200000Y-98800001D01*
X134200000Y-98800000D01*
X134199999Y-98800000D01*
X133924500Y-98800000D01*
X133866309Y-98781093D01*
X133830345Y-98731593D01*
X133825500Y-98701000D01*
X133825500Y-97541234D01*
X133825499Y-97541230D01*
X133807402Y-97450250D01*
X133792816Y-97376918D01*
X133728703Y-97222137D01*
X133635626Y-97082838D01*
X133517162Y-96964374D01*
X133377863Y-96871297D01*
X133377864Y-96871297D01*
X133377862Y-96871296D01*
X133223085Y-96807185D01*
X133223079Y-96807183D01*
X133058769Y-96774500D01*
X133058767Y-96774500D01*
X133024828Y-96774500D01*
X132824500Y-96774500D01*
X132766309Y-96755593D01*
X132730345Y-96706093D01*
X132725500Y-96675500D01*
X132725500Y-95324500D01*
X132744407Y-95266309D01*
X132793907Y-95230345D01*
X132824500Y-95225500D01*
X133383734Y-95225500D01*
X133383736Y-95225500D01*
X133383742Y-95225499D01*
X133383753Y-95225499D01*
X133396900Y-95224607D01*
X133426091Y-95222628D01*
X133609136Y-95177107D01*
X133778115Y-95093300D01*
X133925128Y-94975128D01*
X134043300Y-94828115D01*
X134127107Y-94659136D01*
X134172628Y-94476091D01*
X134175500Y-94433736D01*
X134175500Y-94424500D01*
X134194407Y-94366309D01*
X134243907Y-94330345D01*
X134274500Y-94325500D01*
X135859521Y-94325500D01*
X135917712Y-94344407D01*
G37*
G04 #@! TD.AperFunction*
G04 #@! TA.AperFunction,Conductor*
G36*
X140917712Y-86844407D02*
G01*
X140929525Y-86854496D01*
X144670504Y-90595475D01*
X144698281Y-90649992D01*
X144699500Y-90665479D01*
X144699500Y-98725500D01*
X144680593Y-98783691D01*
X144631093Y-98819655D01*
X144600500Y-98824500D01*
X144305247Y-98824500D01*
X144269313Y-98831648D01*
X144230687Y-98831648D01*
X144194752Y-98824500D01*
X144194748Y-98824500D01*
X143805252Y-98824500D01*
X143805247Y-98824500D01*
X143769313Y-98831648D01*
X143730687Y-98831648D01*
X143694752Y-98824500D01*
X143694748Y-98824500D01*
X143305252Y-98824500D01*
X143305247Y-98824500D01*
X143269313Y-98831648D01*
X143230687Y-98831648D01*
X143194752Y-98824500D01*
X143194748Y-98824500D01*
X142805252Y-98824500D01*
X142805247Y-98824500D01*
X142769313Y-98831648D01*
X142730687Y-98831648D01*
X142694752Y-98824500D01*
X142694748Y-98824500D01*
X142305252Y-98824500D01*
X142305247Y-98824500D01*
X142269313Y-98831648D01*
X142230687Y-98831648D01*
X142194752Y-98824500D01*
X142194748Y-98824500D01*
X141805252Y-98824500D01*
X141805247Y-98824500D01*
X141769313Y-98831648D01*
X141730687Y-98831648D01*
X141694752Y-98824500D01*
X141694748Y-98824500D01*
X141305252Y-98824500D01*
X141305247Y-98824500D01*
X141269313Y-98831648D01*
X141230687Y-98831648D01*
X141194752Y-98824500D01*
X141194748Y-98824500D01*
X140805252Y-98824500D01*
X140805247Y-98824500D01*
X140769313Y-98831648D01*
X140730687Y-98831648D01*
X140694752Y-98824500D01*
X140694748Y-98824500D01*
X140305252Y-98824500D01*
X140305247Y-98824500D01*
X140269313Y-98831648D01*
X140230687Y-98831648D01*
X140194752Y-98824500D01*
X140194748Y-98824500D01*
X139805252Y-98824500D01*
X139805247Y-98824500D01*
X139769313Y-98831648D01*
X139730687Y-98831648D01*
X139694752Y-98824500D01*
X139694748Y-98824500D01*
X139305252Y-98824500D01*
X139305247Y-98824500D01*
X139269313Y-98831648D01*
X139230687Y-98831648D01*
X139194752Y-98824500D01*
X139194748Y-98824500D01*
X138899500Y-98824500D01*
X138841309Y-98805593D01*
X138805345Y-98756093D01*
X138800500Y-98725500D01*
X138800500Y-93460440D01*
X138800499Y-93460434D01*
X138795573Y-93442049D01*
X138780022Y-93384012D01*
X138780020Y-93384009D01*
X138780020Y-93384007D01*
X138740463Y-93315493D01*
X138740461Y-93315491D01*
X138740460Y-93315489D01*
X136709511Y-91284540D01*
X136709508Y-91284538D01*
X136640992Y-91244980D01*
X136640988Y-91244978D01*
X136564564Y-91224500D01*
X136564562Y-91224500D01*
X134274500Y-91224500D01*
X134216309Y-91205593D01*
X134180345Y-91156093D01*
X134175500Y-91125500D01*
X134175500Y-91116265D01*
X134175499Y-91116246D01*
X134172628Y-91073913D01*
X134172628Y-91073909D01*
X134127107Y-90890864D01*
X134043300Y-90721885D01*
X133925128Y-90574872D01*
X133778115Y-90456700D01*
X133778112Y-90456698D01*
X133609141Y-90372895D01*
X133609137Y-90372893D01*
X133609136Y-90372893D01*
X133609134Y-90372892D01*
X133609127Y-90372890D01*
X133600775Y-90370813D01*
X133548869Y-90338418D01*
X133525918Y-90281701D01*
X133540688Y-90222325D01*
X133587537Y-90182970D01*
X133600787Y-90178666D01*
X133608958Y-90176634D01*
X133608964Y-90176632D01*
X133777843Y-90092877D01*
X133924769Y-89974773D01*
X133924773Y-89974769D01*
X134042877Y-89827843D01*
X134126632Y-89658964D01*
X134126633Y-89658961D01*
X134172128Y-89476024D01*
X134172129Y-89476019D01*
X134174999Y-89433703D01*
X134175000Y-89433684D01*
X134175000Y-89125001D01*
X134174999Y-89125000D01*
X132965843Y-89125000D01*
X132975000Y-89090826D01*
X132975000Y-88959174D01*
X132965843Y-88925000D01*
X134174999Y-88925000D01*
X134175000Y-88924999D01*
X134175000Y-88616315D01*
X134174999Y-88616296D01*
X134172129Y-88573980D01*
X134172128Y-88573975D01*
X134126633Y-88391038D01*
X134126632Y-88391035D01*
X134042877Y-88222156D01*
X133924773Y-88075230D01*
X133924769Y-88075226D01*
X133777842Y-87957122D01*
X133777843Y-87957122D01*
X133608964Y-87873367D01*
X133608961Y-87873366D01*
X133600780Y-87871332D01*
X133548873Y-87838939D01*
X133525918Y-87782223D01*
X133540685Y-87722846D01*
X133587532Y-87683489D01*
X133600774Y-87679186D01*
X133609136Y-87677107D01*
X133778115Y-87593300D01*
X133925128Y-87475128D01*
X134043300Y-87328115D01*
X134127107Y-87159136D01*
X134172628Y-86976091D01*
X134175500Y-86933736D01*
X134175500Y-86924500D01*
X134194407Y-86866309D01*
X134243907Y-86830345D01*
X134274500Y-86825500D01*
X140859521Y-86825500D01*
X140917712Y-86844407D01*
G37*
G04 #@! TD.AperFunction*
G04 #@! TA.AperFunction,Conductor*
G36*
X136417712Y-91844407D02*
G01*
X136429525Y-91854496D01*
X138170504Y-93595475D01*
X138198281Y-93649992D01*
X138199500Y-93665479D01*
X138199500Y-95535521D01*
X138180593Y-95593712D01*
X138131093Y-95629676D01*
X138069907Y-95629676D01*
X138030496Y-95605525D01*
X137253083Y-94828112D01*
X136209511Y-93784540D01*
X136209508Y-93784538D01*
X136140992Y-93744980D01*
X136140988Y-93744978D01*
X136064564Y-93724500D01*
X136064562Y-93724500D01*
X134274500Y-93724500D01*
X134216309Y-93705593D01*
X134180345Y-93656093D01*
X134175500Y-93625500D01*
X134175500Y-93616265D01*
X134175499Y-93616246D01*
X134172628Y-93573913D01*
X134172628Y-93573909D01*
X134127107Y-93390864D01*
X134043300Y-93221885D01*
X133925128Y-93074872D01*
X133778115Y-92956700D01*
X133778112Y-92956698D01*
X133609141Y-92872895D01*
X133609138Y-92872894D01*
X133609136Y-92872893D01*
X133601817Y-92871072D01*
X133549911Y-92838682D01*
X133526956Y-92781966D01*
X133541722Y-92722589D01*
X133588569Y-92683231D01*
X133601810Y-92678928D01*
X133609136Y-92677107D01*
X133778115Y-92593300D01*
X133925128Y-92475128D01*
X134043300Y-92328115D01*
X134127107Y-92159136D01*
X134172628Y-91976091D01*
X134175500Y-91933736D01*
X134175500Y-91924500D01*
X134194407Y-91866309D01*
X134243907Y-91830345D01*
X134274500Y-91825500D01*
X136359521Y-91825500D01*
X136417712Y-91844407D01*
G37*
G04 #@! TD.AperFunction*
M02*
