G04 #@! TF.GenerationSoftware,KiCad,Pcbnew,9.0.1*
G04 #@! TF.CreationDate,2025-04-25T16:07:12+02:00*
G04 #@! TF.ProjectId,M.2-Key-E-Breakout,4d2e322d-4b65-4792-9d45-2d427265616b,rev?*
G04 #@! TF.SameCoordinates,Original*
G04 #@! TF.FileFunction,Soldermask,Top*
G04 #@! TF.FilePolarity,Negative*
%FSLAX46Y46*%
G04 Gerber Fmt 4.6, Leading zero omitted, Abs format (unit mm)*
G04 Created by KiCad (PCBNEW 9.0.1) date 2025-04-25 16:07:12*
%MOMM*%
%LPD*%
G01*
G04 APERTURE LIST*
G04 Aperture macros list*
%AMRoundRect*
0 Rectangle with rounded corners*
0 $1 Rounding radius*
0 $2 $3 $4 $5 $6 $7 $8 $9 X,Y pos of 4 corners*
0 Add a 4 corners polygon primitive as box body*
4,1,4,$2,$3,$4,$5,$6,$7,$8,$9,$2,$3,0*
0 Add four circle primitives for the rounded corners*
1,1,$1+$1,$2,$3*
1,1,$1+$1,$4,$5*
1,1,$1+$1,$6,$7*
1,1,$1+$1,$8,$9*
0 Add four rect primitives between the rounded corners*
20,1,$1+$1,$2,$3,$4,$5,0*
20,1,$1+$1,$4,$5,$6,$7,0*
20,1,$1+$1,$6,$7,$8,$9,0*
20,1,$1+$1,$8,$9,$2,$3,0*%
G04 Aperture macros list end*
%ADD10C,0.000000*%
%ADD11C,0.100000*%
%ADD12R,0.350000X1.450000*%
%ADD13C,5.000000*%
%ADD14RoundRect,0.666667X-0.833333X-0.333333X0.833333X-0.333333X0.833333X0.333333X-0.833333X0.333333X0*%
G04 APERTURE END LIST*
D10*
G36*
X165819161Y-72751186D02*
G01*
X165860242Y-72755481D01*
X165901382Y-72762775D01*
X165942158Y-72773180D01*
X165982145Y-72786805D01*
X166001711Y-72794861D01*
X166020920Y-72803763D01*
X166039720Y-72813527D01*
X166058057Y-72824164D01*
X166075880Y-72835691D01*
X166093133Y-72848120D01*
X166109766Y-72861465D01*
X166125724Y-72875741D01*
X166140954Y-72890960D01*
X166155404Y-72907138D01*
X166169021Y-72924287D01*
X166181751Y-72942422D01*
X166193541Y-72961557D01*
X166204339Y-72981705D01*
X166214090Y-73002880D01*
X166222744Y-73025097D01*
X166230245Y-73048369D01*
X166236542Y-73072709D01*
X166241581Y-73098133D01*
X166245309Y-73124653D01*
X166247673Y-73152284D01*
X166248620Y-73181040D01*
X165917851Y-73181040D01*
X165915484Y-73160087D01*
X165913585Y-73146140D01*
X165911000Y-73130468D01*
X165907573Y-73113513D01*
X165903146Y-73095716D01*
X165897563Y-73077519D01*
X165894288Y-73068408D01*
X165890666Y-73059363D01*
X165886676Y-73050438D01*
X165882299Y-73041689D01*
X165877516Y-73033171D01*
X165872305Y-73024940D01*
X165866649Y-73017050D01*
X165860528Y-73009556D01*
X165853921Y-73002514D01*
X165846809Y-72995979D01*
X165839173Y-72990006D01*
X165830994Y-72984651D01*
X165822250Y-72979968D01*
X165812923Y-72976013D01*
X165802993Y-72972840D01*
X165792441Y-72970506D01*
X165781247Y-72969065D01*
X165769392Y-72968572D01*
X165754792Y-72969271D01*
X165741001Y-72971323D01*
X165727996Y-72974664D01*
X165715755Y-72979227D01*
X165704255Y-72984946D01*
X165693473Y-72991756D01*
X165683387Y-72999592D01*
X165673974Y-73008386D01*
X165665211Y-73018075D01*
X165657077Y-73028591D01*
X165649547Y-73039870D01*
X165642599Y-73051845D01*
X165630361Y-73077622D01*
X165620180Y-73105396D01*
X165611876Y-73134643D01*
X165605267Y-73164835D01*
X165600173Y-73195447D01*
X165596411Y-73225954D01*
X165593800Y-73255830D01*
X165592160Y-73284549D01*
X165591065Y-73336412D01*
X165591510Y-73366504D01*
X165593345Y-73406802D01*
X165597325Y-73454224D01*
X165600354Y-73479644D01*
X165604201Y-73505689D01*
X165608960Y-73531974D01*
X165614726Y-73558114D01*
X165621592Y-73583725D01*
X165629652Y-73608420D01*
X165639001Y-73631814D01*
X165649733Y-73653523D01*
X165655647Y-73663625D01*
X165661942Y-73673161D01*
X165668630Y-73682084D01*
X165675722Y-73690344D01*
X165678725Y-73693467D01*
X165681740Y-73696421D01*
X165684763Y-73699212D01*
X165687793Y-73701842D01*
X165690827Y-73704318D01*
X165693864Y-73706643D01*
X165699937Y-73710859D01*
X165705995Y-73714528D01*
X165712023Y-73717687D01*
X165718004Y-73720371D01*
X165723921Y-73722618D01*
X165729758Y-73724463D01*
X165735499Y-73725944D01*
X165741127Y-73727097D01*
X165746626Y-73727958D01*
X165751980Y-73728564D01*
X165757172Y-73728952D01*
X165762185Y-73729158D01*
X165767004Y-73729218D01*
X165774648Y-73728989D01*
X165783659Y-73728130D01*
X165793802Y-73726387D01*
X165804846Y-73723508D01*
X165816555Y-73719236D01*
X165828697Y-73713319D01*
X165841039Y-73705502D01*
X165847211Y-73700801D01*
X165853347Y-73695530D01*
X165859415Y-73689657D01*
X165865387Y-73683150D01*
X165871234Y-73675977D01*
X165876927Y-73668107D01*
X165882436Y-73659508D01*
X165887733Y-73650148D01*
X165892788Y-73639995D01*
X165897571Y-73629018D01*
X165902055Y-73617184D01*
X165906209Y-73604462D01*
X165910005Y-73590820D01*
X165913413Y-73576227D01*
X165916404Y-73560650D01*
X165918949Y-73544059D01*
X165921019Y-73526420D01*
X165922584Y-73507702D01*
X166255530Y-73507702D01*
X166253225Y-73543285D01*
X166251424Y-73562560D01*
X166248968Y-73582670D01*
X166245689Y-73603503D01*
X166241418Y-73624944D01*
X166235988Y-73646880D01*
X166229232Y-73669196D01*
X166220981Y-73691777D01*
X166211067Y-73714512D01*
X166199324Y-73737284D01*
X166185582Y-73759980D01*
X166169675Y-73782487D01*
X166160857Y-73793633D01*
X166151434Y-73804689D01*
X166141386Y-73815641D01*
X166130692Y-73826474D01*
X166119330Y-73837174D01*
X166107281Y-73847726D01*
X166091634Y-73860578D01*
X166075479Y-73872628D01*
X166058783Y-73883872D01*
X166041516Y-73894306D01*
X166023648Y-73903926D01*
X166005147Y-73912730D01*
X165985983Y-73920712D01*
X165966124Y-73927871D01*
X165945541Y-73934201D01*
X165924201Y-73939699D01*
X165902075Y-73944361D01*
X165879132Y-73948184D01*
X165855340Y-73951164D01*
X165830669Y-73953297D01*
X165805089Y-73954579D01*
X165778567Y-73955008D01*
X165750067Y-73954594D01*
X165722016Y-73953304D01*
X165694432Y-73951064D01*
X165667330Y-73947801D01*
X165640728Y-73943442D01*
X165614641Y-73937915D01*
X165589087Y-73931144D01*
X165564081Y-73923059D01*
X165539641Y-73913584D01*
X165515782Y-73902648D01*
X165492521Y-73890177D01*
X165469875Y-73876097D01*
X165447859Y-73860337D01*
X165426491Y-73842821D01*
X165405787Y-73823478D01*
X165385763Y-73802234D01*
X165367593Y-73779991D01*
X165350690Y-73756894D01*
X165335040Y-73732949D01*
X165320630Y-73708164D01*
X165307447Y-73682545D01*
X165295479Y-73656100D01*
X165284712Y-73628836D01*
X165275134Y-73600760D01*
X165266730Y-73571880D01*
X165259490Y-73542203D01*
X165253398Y-73511736D01*
X165248444Y-73480487D01*
X165244613Y-73448462D01*
X165241892Y-73415668D01*
X165240270Y-73382114D01*
X165239732Y-73347806D01*
X165240843Y-73299894D01*
X165244100Y-73254562D01*
X165249391Y-73211740D01*
X165256602Y-73171358D01*
X165265620Y-73133348D01*
X165276332Y-73097640D01*
X165288625Y-73064165D01*
X165302384Y-73032852D01*
X165317499Y-73003633D01*
X165333854Y-72976439D01*
X165351337Y-72951199D01*
X165369835Y-72927845D01*
X165389234Y-72906306D01*
X165409422Y-72886515D01*
X165430284Y-72868400D01*
X165451709Y-72851893D01*
X165473582Y-72836924D01*
X165495791Y-72823424D01*
X165518223Y-72811324D01*
X165540763Y-72800554D01*
X165585719Y-72782725D01*
X165629754Y-72769384D01*
X165671961Y-72759974D01*
X165711436Y-72753940D01*
X165747274Y-72750727D01*
X165778567Y-72749780D01*
X165778565Y-72749779D01*
X165819161Y-72751186D01*
G37*
G36*
X162392066Y-72557712D02*
G01*
X162159365Y-72557712D01*
X162159365Y-72288483D01*
X162392066Y-72288483D01*
X162392066Y-72557712D01*
G37*
G36*
X166457149Y-76351513D02*
G01*
X166119725Y-76351513D01*
X166119725Y-74701033D01*
X166457149Y-74701033D01*
X166457149Y-76351513D01*
G37*
G36*
X161260481Y-72247433D02*
G01*
X161285128Y-72247613D01*
X161324349Y-72248866D01*
X161349157Y-72250229D01*
X161377287Y-72252261D01*
X161408631Y-72255097D01*
X161443082Y-72258869D01*
X161443082Y-72493705D01*
X161421379Y-72490760D01*
X161412811Y-72489595D01*
X161405083Y-72488637D01*
X161397682Y-72487888D01*
X161390098Y-72487351D01*
X161381818Y-72487028D01*
X161372330Y-72486919D01*
X161356559Y-72487183D01*
X161341774Y-72487959D01*
X161327942Y-72489225D01*
X161315031Y-72490958D01*
X161303011Y-72493136D01*
X161291849Y-72495736D01*
X161281513Y-72498736D01*
X161271972Y-72502113D01*
X161263194Y-72505845D01*
X161255147Y-72509909D01*
X161247799Y-72514282D01*
X161241119Y-72518943D01*
X161235074Y-72523868D01*
X161229633Y-72529035D01*
X161224765Y-72534422D01*
X161220436Y-72540006D01*
X161216617Y-72545765D01*
X161213274Y-72551675D01*
X161210376Y-72557715D01*
X161207891Y-72563862D01*
X161205788Y-72570093D01*
X161204034Y-72576386D01*
X161201449Y-72589068D01*
X161199880Y-72601727D01*
X161199075Y-72614183D01*
X161198736Y-72637766D01*
X161198736Y-72772611D01*
X161413340Y-72772611D01*
X161413340Y-73011931D01*
X161198736Y-73011931D01*
X161198736Y-73925309D01*
X160863237Y-73925309D01*
X160863237Y-73011931D01*
X160692156Y-73011931D01*
X160692156Y-72772611D01*
X160863237Y-72772611D01*
X160863237Y-72614810D01*
X160864087Y-72577195D01*
X160866824Y-72540679D01*
X160871728Y-72505445D01*
X160879081Y-72471676D01*
X160883764Y-72455398D01*
X160889163Y-72439555D01*
X160895316Y-72424170D01*
X160902255Y-72409265D01*
X160910018Y-72394865D01*
X160918638Y-72380991D01*
X160928151Y-72367667D01*
X160938592Y-72354915D01*
X160949996Y-72342759D01*
X160962398Y-72331220D01*
X160975833Y-72320323D01*
X160990337Y-72310090D01*
X161005944Y-72300544D01*
X161022689Y-72291708D01*
X161040608Y-72283605D01*
X161059736Y-72276257D01*
X161080107Y-72269688D01*
X161101758Y-72263921D01*
X161124722Y-72258978D01*
X161149035Y-72254883D01*
X161174733Y-72251657D01*
X161201850Y-72249325D01*
X161230421Y-72247909D01*
X161260481Y-72247432D01*
X161260481Y-72247433D01*
G37*
G36*
X163204363Y-73925309D02*
G01*
X162866935Y-73925309D01*
X162866935Y-72274828D01*
X163204363Y-72274828D01*
X163204363Y-73925309D01*
G37*
G36*
X161488220Y-75172580D02*
G01*
X161530912Y-75176446D01*
X161551718Y-75179352D01*
X161572130Y-75182910D01*
X161592123Y-75187122D01*
X161611672Y-75191991D01*
X161630753Y-75197517D01*
X161649340Y-75203704D01*
X161667409Y-75210553D01*
X161684933Y-75218067D01*
X161701889Y-75226248D01*
X161718252Y-75235097D01*
X161733995Y-75244618D01*
X161749095Y-75254812D01*
X161763527Y-75265682D01*
X161777265Y-75277229D01*
X161790284Y-75289455D01*
X161802559Y-75302364D01*
X161814066Y-75315957D01*
X161824779Y-75330235D01*
X161834674Y-75345203D01*
X161843724Y-75360860D01*
X161851907Y-75377210D01*
X161859195Y-75394255D01*
X161865565Y-75411997D01*
X161870992Y-75430438D01*
X161875450Y-75449580D01*
X161878914Y-75469426D01*
X161881360Y-75489977D01*
X161882762Y-75511235D01*
X161574658Y-75511235D01*
X161573528Y-75499602D01*
X161571876Y-75488643D01*
X161569727Y-75478338D01*
X161567108Y-75468667D01*
X161564045Y-75459611D01*
X161560566Y-75451149D01*
X161556695Y-75443261D01*
X161552459Y-75435928D01*
X161547886Y-75429129D01*
X161543001Y-75422844D01*
X161537831Y-75417054D01*
X161532401Y-75411737D01*
X161526739Y-75406875D01*
X161520871Y-75402448D01*
X161514823Y-75398434D01*
X161508622Y-75394815D01*
X161502294Y-75391570D01*
X161495865Y-75388680D01*
X161489362Y-75386123D01*
X161482811Y-75383881D01*
X161469671Y-75380260D01*
X161456656Y-75377656D01*
X161443978Y-75375909D01*
X161431847Y-75374860D01*
X161420474Y-75374347D01*
X161410072Y-75374212D01*
X161401563Y-75374339D01*
X161393196Y-75374717D01*
X161384981Y-75375343D01*
X161376924Y-75376215D01*
X161369035Y-75377329D01*
X161361322Y-75378683D01*
X161353794Y-75380274D01*
X161346458Y-75382098D01*
X161339323Y-75384154D01*
X161332397Y-75386438D01*
X161325689Y-75388947D01*
X161319207Y-75391678D01*
X161312960Y-75394629D01*
X161306956Y-75397796D01*
X161301203Y-75401177D01*
X161295710Y-75404768D01*
X161290484Y-75408568D01*
X161285536Y-75412572D01*
X161280871Y-75416778D01*
X161276501Y-75421184D01*
X161272431Y-75425786D01*
X161268672Y-75430581D01*
X161265231Y-75435567D01*
X161262116Y-75440740D01*
X161259337Y-75446098D01*
X161256901Y-75451637D01*
X161254816Y-75457356D01*
X161253092Y-75463251D01*
X161251737Y-75469318D01*
X161250758Y-75475556D01*
X161250165Y-75481961D01*
X161249965Y-75488531D01*
X161250133Y-75495618D01*
X161250633Y-75502359D01*
X161251464Y-75508766D01*
X161252623Y-75514853D01*
X161254107Y-75520633D01*
X161255914Y-75526120D01*
X161258041Y-75531327D01*
X161260486Y-75536267D01*
X161263247Y-75540954D01*
X161266320Y-75545400D01*
X161269703Y-75549620D01*
X161273394Y-75553627D01*
X161277390Y-75557433D01*
X161281688Y-75561053D01*
X161291182Y-75567787D01*
X161301856Y-75573934D01*
X161313689Y-75579601D01*
X161326661Y-75584895D01*
X161340751Y-75589923D01*
X161355940Y-75594792D01*
X161372207Y-75599608D01*
X161407893Y-75609510D01*
X161615669Y-75666439D01*
X161653711Y-75677762D01*
X161689153Y-75690261D01*
X161722016Y-75703935D01*
X161737486Y-75711213D01*
X161752319Y-75718784D01*
X161766516Y-75726649D01*
X161780082Y-75734809D01*
X161793017Y-75743261D01*
X161805325Y-75752008D01*
X161817008Y-75761048D01*
X161828069Y-75770382D01*
X161838510Y-75780010D01*
X161848334Y-75789931D01*
X161857543Y-75800147D01*
X161866140Y-75810656D01*
X161874126Y-75821458D01*
X161881506Y-75832555D01*
X161888281Y-75843945D01*
X161894453Y-75855628D01*
X161900026Y-75867606D01*
X161905001Y-75879877D01*
X161909382Y-75892442D01*
X161913170Y-75905300D01*
X161916369Y-75918452D01*
X161918980Y-75931898D01*
X161921007Y-75945637D01*
X161922452Y-75959670D01*
X161923317Y-75973997D01*
X161923605Y-75988617D01*
X161921596Y-76025821D01*
X161915554Y-76062725D01*
X161905455Y-76099040D01*
X161891275Y-76134475D01*
X161882648Y-76151772D01*
X161872991Y-76168741D01*
X161862302Y-76185346D01*
X161850577Y-76201549D01*
X161837815Y-76217315D01*
X161824011Y-76232608D01*
X161809164Y-76247391D01*
X161793269Y-76261628D01*
X161776324Y-76275283D01*
X161758326Y-76288319D01*
X161739272Y-76300701D01*
X161719159Y-76312393D01*
X161697984Y-76323357D01*
X161675744Y-76333557D01*
X161652436Y-76342959D01*
X161628057Y-76351524D01*
X161602604Y-76359218D01*
X161576074Y-76366003D01*
X161548464Y-76371844D01*
X161519771Y-76376704D01*
X161489992Y-76380547D01*
X161459124Y-76383337D01*
X161427165Y-76385037D01*
X161394110Y-76385612D01*
X161366336Y-76385228D01*
X161338773Y-76384033D01*
X161311464Y-76381957D01*
X161284451Y-76378935D01*
X161257777Y-76374898D01*
X161231487Y-76369779D01*
X161205622Y-76363512D01*
X161180225Y-76356027D01*
X161155340Y-76347259D01*
X161131010Y-76337140D01*
X161107278Y-76325602D01*
X161084186Y-76312578D01*
X161061778Y-76298001D01*
X161040096Y-76281802D01*
X161019184Y-76263916D01*
X160999084Y-76244274D01*
X160992233Y-76236765D01*
X160985770Y-76229196D01*
X160979683Y-76221577D01*
X160973962Y-76213916D01*
X160968593Y-76206222D01*
X160963567Y-76198504D01*
X160954492Y-76183032D01*
X160946644Y-76167568D01*
X160939931Y-76152185D01*
X160934259Y-76136951D01*
X160929535Y-76121939D01*
X160925666Y-76107217D01*
X160922560Y-76092857D01*
X160920122Y-76078929D01*
X160918261Y-76065504D01*
X160916883Y-76052651D01*
X160915895Y-76040441D01*
X160914719Y-76018234D01*
X161231744Y-76018234D01*
X161233125Y-76032053D01*
X161235544Y-76046000D01*
X161239081Y-76059934D01*
X161243819Y-76073715D01*
X161249838Y-76087201D01*
X161257218Y-76100252D01*
X161261443Y-76106571D01*
X161266040Y-76112729D01*
X161271017Y-76118707D01*
X161276385Y-76124489D01*
X161282155Y-76130056D01*
X161288335Y-76135392D01*
X161294937Y-76140478D01*
X161301970Y-76145297D01*
X161309444Y-76149832D01*
X161317370Y-76154065D01*
X161325757Y-76157978D01*
X161334617Y-76161554D01*
X161343958Y-76164775D01*
X161353791Y-76167624D01*
X161364126Y-76170082D01*
X161374973Y-76172133D01*
X161386343Y-76173759D01*
X161398245Y-76174942D01*
X161410689Y-76175665D01*
X161423687Y-76175910D01*
X161434862Y-76175711D01*
X161445663Y-76175124D01*
X161456091Y-76174161D01*
X161466148Y-76172834D01*
X161475834Y-76171156D01*
X161485151Y-76169139D01*
X161494100Y-76166796D01*
X161502683Y-76164140D01*
X161510900Y-76161183D01*
X161518754Y-76157938D01*
X161526245Y-76154416D01*
X161533374Y-76150631D01*
X161540143Y-76146596D01*
X161546553Y-76142322D01*
X161552606Y-76137822D01*
X161558302Y-76133109D01*
X161563643Y-76128196D01*
X161568631Y-76123094D01*
X161573265Y-76117816D01*
X161577549Y-76112376D01*
X161581482Y-76106785D01*
X161585067Y-76101055D01*
X161588304Y-76095201D01*
X161591196Y-76089233D01*
X161593742Y-76083165D01*
X161595944Y-76077009D01*
X161597805Y-76070777D01*
X161599324Y-76064483D01*
X161600503Y-76058139D01*
X161601344Y-76051756D01*
X161601848Y-76045349D01*
X161602015Y-76038928D01*
X161601676Y-76029198D01*
X161600581Y-76019729D01*
X161598617Y-76010509D01*
X161595670Y-76001530D01*
X161591625Y-75992779D01*
X161586369Y-75984248D01*
X161579787Y-75975925D01*
X161571766Y-75967800D01*
X161562191Y-75959863D01*
X161550948Y-75952103D01*
X161537923Y-75944511D01*
X161523002Y-75937075D01*
X161506071Y-75929786D01*
X161487016Y-75922632D01*
X161465723Y-75915604D01*
X161442077Y-75908691D01*
X161231745Y-75851469D01*
X161192390Y-75839538D01*
X161170131Y-75831984D01*
X161146742Y-75823080D01*
X161122671Y-75812611D01*
X161098359Y-75800357D01*
X161074253Y-75786103D01*
X161062416Y-75778158D01*
X161050797Y-75769631D01*
X161039452Y-75760495D01*
X161028435Y-75750723D01*
X161017804Y-75740288D01*
X161007613Y-75729163D01*
X160997918Y-75717320D01*
X160988774Y-75704733D01*
X160980237Y-75691374D01*
X160972363Y-75677216D01*
X160965208Y-75662231D01*
X160958826Y-75646394D01*
X160953273Y-75629676D01*
X160948605Y-75612050D01*
X160944878Y-75593490D01*
X160942147Y-75573968D01*
X160940468Y-75553457D01*
X160939896Y-75531929D01*
X160940493Y-75511196D01*
X160942272Y-75490982D01*
X160945212Y-75471297D01*
X160949293Y-75452150D01*
X160954494Y-75433550D01*
X160960795Y-75415506D01*
X160968177Y-75398028D01*
X160976618Y-75381123D01*
X160986098Y-75364802D01*
X160996597Y-75349074D01*
X161008094Y-75333946D01*
X161020570Y-75319430D01*
X161034004Y-75305533D01*
X161048376Y-75292265D01*
X161063665Y-75279634D01*
X161079851Y-75267650D01*
X161096914Y-75256323D01*
X161114833Y-75245660D01*
X161153159Y-75226366D01*
X161194668Y-75209841D01*
X161239196Y-75196158D01*
X161286582Y-75185389D01*
X161336661Y-75177607D01*
X161389273Y-75172885D01*
X161444254Y-75171295D01*
X161488220Y-75172580D01*
G37*
G36*
X160298470Y-72427812D02*
G01*
X160298470Y-72777094D01*
X160572268Y-72777094D01*
X160572268Y-73000704D01*
X160298470Y-73000704D01*
X160298470Y-73522993D01*
X160299481Y-73560668D01*
X160300469Y-73578033D01*
X160302079Y-73594363D01*
X160304533Y-73609618D01*
X160306147Y-73616830D01*
X160308057Y-73623758D01*
X160310289Y-73630397D01*
X160312873Y-73636742D01*
X160315836Y-73642788D01*
X160319207Y-73648530D01*
X160323012Y-73653963D01*
X160327281Y-73659082D01*
X160332041Y-73663882D01*
X160337321Y-73668357D01*
X160343147Y-73672504D01*
X160349549Y-73676316D01*
X160356555Y-73679789D01*
X160364191Y-73682918D01*
X160372487Y-73685698D01*
X160381470Y-73688123D01*
X160391169Y-73690189D01*
X160401610Y-73691891D01*
X160412823Y-73693223D01*
X160424836Y-73694181D01*
X160437675Y-73694759D01*
X160451370Y-73694953D01*
X160469035Y-73694845D01*
X160484656Y-73694521D01*
X160498770Y-73693981D01*
X160511912Y-73693225D01*
X160524618Y-73692252D01*
X160537424Y-73691064D01*
X160565479Y-73688041D01*
X160565479Y-73909305D01*
X160545085Y-73914627D01*
X160525003Y-73919433D01*
X160505280Y-73923746D01*
X160485963Y-73927592D01*
X160467099Y-73930992D01*
X160448737Y-73933972D01*
X160413704Y-73938766D01*
X160381243Y-73942162D01*
X160351732Y-73944352D01*
X160325551Y-73945526D01*
X160303079Y-73945875D01*
X160272197Y-73945257D01*
X160243244Y-73943443D01*
X160216159Y-73940494D01*
X160190878Y-73936472D01*
X160167340Y-73931436D01*
X160145483Y-73925449D01*
X160125244Y-73918571D01*
X160106560Y-73910862D01*
X160089371Y-73902385D01*
X160073612Y-73893200D01*
X160059223Y-73883368D01*
X160046142Y-73872950D01*
X160034304Y-73862007D01*
X160023650Y-73850600D01*
X160014116Y-73838789D01*
X160005640Y-73826637D01*
X159998159Y-73814203D01*
X159991613Y-73801549D01*
X159985937Y-73788736D01*
X159981071Y-73775825D01*
X159976952Y-73762877D01*
X159973517Y-73749952D01*
X159968454Y-73724418D01*
X159965382Y-73699710D01*
X159963804Y-73676317D01*
X159963139Y-73635426D01*
X159963139Y-73000703D01*
X159741747Y-73000703D01*
X159741747Y-72777093D01*
X159963139Y-72777093D01*
X159963139Y-72551094D01*
X160298469Y-72427811D01*
X160298470Y-72427812D01*
G37*
G36*
X153820488Y-76350934D02*
G01*
X152965642Y-76864710D01*
X151743688Y-76091479D01*
X150942469Y-76573193D01*
X152164424Y-77346423D01*
X151309755Y-77860333D01*
X148216386Y-75902478D01*
X149071010Y-75388703D01*
X150150063Y-76071552D01*
X150951281Y-75589839D01*
X149872450Y-74907121D01*
X149872449Y-74907121D01*
X150727118Y-74393214D01*
X153820488Y-76350934D01*
G37*
G36*
X164642887Y-72746456D02*
G01*
X164685599Y-72750322D01*
X164706413Y-72753229D01*
X164726833Y-72756787D01*
X164746833Y-72760999D01*
X164766388Y-72765867D01*
X164785473Y-72771394D01*
X164804064Y-72777580D01*
X164822134Y-72784430D01*
X164839660Y-72791944D01*
X164856616Y-72800124D01*
X164872976Y-72808974D01*
X164888717Y-72818495D01*
X164903812Y-72828689D01*
X164918237Y-72839558D01*
X164931967Y-72851105D01*
X164944976Y-72863332D01*
X164957241Y-72876241D01*
X164968734Y-72889833D01*
X164979433Y-72904112D01*
X164989311Y-72919079D01*
X164998343Y-72934737D01*
X165006505Y-72951087D01*
X165013771Y-72968132D01*
X165020116Y-72985874D01*
X165025515Y-73004315D01*
X165029944Y-73023457D01*
X165033377Y-73043302D01*
X165035789Y-73063853D01*
X165037155Y-73085112D01*
X164729302Y-73085112D01*
X164728172Y-73073478D01*
X164726518Y-73062519D01*
X164724368Y-73052214D01*
X164721746Y-73042543D01*
X164718681Y-73033487D01*
X164715197Y-73025025D01*
X164711323Y-73017137D01*
X164707083Y-73009804D01*
X164702505Y-73003005D01*
X164697615Y-72996720D01*
X164692439Y-72990929D01*
X164687004Y-72985613D01*
X164681337Y-72980751D01*
X164675463Y-72976323D01*
X164669409Y-72972310D01*
X164663202Y-72968691D01*
X164656867Y-72965446D01*
X164650433Y-72962556D01*
X164643924Y-72959999D01*
X164637367Y-72957757D01*
X164624216Y-72954136D01*
X164611192Y-72951533D01*
X164598506Y-72949786D01*
X164586369Y-72948736D01*
X164574992Y-72948224D01*
X164564588Y-72948089D01*
X164556108Y-72948215D01*
X164547768Y-72948593D01*
X164539577Y-72949219D01*
X164531542Y-72950090D01*
X164523674Y-72951203D01*
X164515979Y-72952556D01*
X164508468Y-72954145D01*
X164501147Y-72955969D01*
X164494025Y-72958023D01*
X164487112Y-72960305D01*
X164480415Y-72962812D01*
X164473943Y-72965542D01*
X164467704Y-72968490D01*
X164461707Y-72971656D01*
X164455960Y-72975035D01*
X164450472Y-72978624D01*
X164445251Y-72982422D01*
X164440305Y-72986424D01*
X164435644Y-72990629D01*
X164431275Y-72995033D01*
X164427207Y-72999633D01*
X164423448Y-73004426D01*
X164420007Y-73009410D01*
X164416892Y-73014582D01*
X164414113Y-73019938D01*
X164411676Y-73025477D01*
X164409591Y-73031194D01*
X164407866Y-73037088D01*
X164406510Y-73043155D01*
X164405531Y-73049392D01*
X164404937Y-73055797D01*
X164404737Y-73062366D01*
X164404904Y-73069454D01*
X164405403Y-73076194D01*
X164406232Y-73082601D01*
X164407388Y-73088688D01*
X164408868Y-73094469D01*
X164410671Y-73099955D01*
X164412793Y-73105162D01*
X164415232Y-73110102D01*
X164417986Y-73114789D01*
X164421053Y-73119235D01*
X164424429Y-73123455D01*
X164428113Y-73127462D01*
X164432101Y-73131268D01*
X164436392Y-73134888D01*
X164445870Y-73141621D01*
X164456528Y-73147768D01*
X164468346Y-73153435D01*
X164481303Y-73158729D01*
X164495381Y-73163758D01*
X164510558Y-73168627D01*
X164526817Y-73173443D01*
X164562494Y-73183346D01*
X164770437Y-73240317D01*
X164808457Y-73251632D01*
X164843884Y-73264123D01*
X164876737Y-73277789D01*
X164892204Y-73285063D01*
X164907036Y-73292631D01*
X164921233Y-73300492D01*
X164934799Y-73308648D01*
X164947736Y-73317098D01*
X164960047Y-73325842D01*
X164971733Y-73334879D01*
X164982798Y-73344211D01*
X164993243Y-73353836D01*
X165003072Y-73363756D01*
X165012286Y-73373969D01*
X165020888Y-73384476D01*
X165028881Y-73395278D01*
X165036266Y-73406373D01*
X165043047Y-73417763D01*
X165049225Y-73429446D01*
X165054804Y-73441424D01*
X165059784Y-73453695D01*
X165064170Y-73466261D01*
X165067964Y-73479121D01*
X165071167Y-73492274D01*
X165073782Y-73505722D01*
X165075812Y-73519464D01*
X165077259Y-73533500D01*
X165078125Y-73547830D01*
X165078413Y-73562454D01*
X165076403Y-73599657D01*
X165070356Y-73636561D01*
X165060248Y-73672875D01*
X165046057Y-73708311D01*
X165037422Y-73725608D01*
X165027758Y-73742577D01*
X165017061Y-73759181D01*
X165005328Y-73775385D01*
X164992556Y-73791151D01*
X164978743Y-73806444D01*
X164963885Y-73821227D01*
X164947980Y-73835464D01*
X164931024Y-73849119D01*
X164913015Y-73862155D01*
X164893950Y-73874537D01*
X164873825Y-73886229D01*
X164852638Y-73897193D01*
X164830385Y-73907394D01*
X164807065Y-73916795D01*
X164782673Y-73925361D01*
X164757208Y-73933054D01*
X164730665Y-73939839D01*
X164703042Y-73945680D01*
X164674337Y-73950540D01*
X164644545Y-73954383D01*
X164613665Y-73957173D01*
X164581693Y-73958874D01*
X164548626Y-73959449D01*
X164520904Y-73959065D01*
X164493383Y-73957869D01*
X164466105Y-73955794D01*
X164439116Y-73952771D01*
X164412458Y-73948735D01*
X164386177Y-73943616D01*
X164360316Y-73937348D01*
X164334918Y-73929864D01*
X164310029Y-73921096D01*
X164285692Y-73910977D01*
X164261951Y-73899439D01*
X164238850Y-73886415D01*
X164216433Y-73871837D01*
X164194743Y-73855639D01*
X164173826Y-73837753D01*
X164153725Y-73818111D01*
X164146878Y-73810601D01*
X164140420Y-73803033D01*
X164134338Y-73795414D01*
X164128622Y-73787754D01*
X164123260Y-73780061D01*
X164118239Y-73772344D01*
X164109176Y-73756875D01*
X164101339Y-73741416D01*
X164094637Y-73726038D01*
X164088974Y-73710812D01*
X164084257Y-73695808D01*
X164080393Y-73681097D01*
X164077288Y-73666749D01*
X164074848Y-73652834D01*
X164072980Y-73639424D01*
X164071591Y-73626589D01*
X164070587Y-73614399D01*
X164069358Y-73592238D01*
X164386509Y-73592238D01*
X164387869Y-73606033D01*
X164390273Y-73619959D01*
X164393802Y-73633873D01*
X164398535Y-73647636D01*
X164404554Y-73661107D01*
X164411938Y-73674145D01*
X164416167Y-73680458D01*
X164420767Y-73686609D01*
X164425749Y-73692582D01*
X164431122Y-73698359D01*
X164436896Y-73703922D01*
X164443082Y-73709253D01*
X164449689Y-73714335D01*
X164456728Y-73719151D01*
X164464208Y-73723683D01*
X164472140Y-73727913D01*
X164480533Y-73731824D01*
X164489398Y-73735397D01*
X164498744Y-73738616D01*
X164508582Y-73741463D01*
X164518921Y-73743921D01*
X164529772Y-73745971D01*
X164541145Y-73747596D01*
X164553049Y-73748778D01*
X164565495Y-73749501D01*
X164578493Y-73749745D01*
X164589656Y-73749547D01*
X164600446Y-73748959D01*
X164610864Y-73747995D01*
X164620911Y-73746667D01*
X164630588Y-73744988D01*
X164639896Y-73742970D01*
X164648838Y-73740626D01*
X164657414Y-73737969D01*
X164665625Y-73735010D01*
X164673472Y-73731763D01*
X164680958Y-73728240D01*
X164688082Y-73724453D01*
X164694847Y-73720416D01*
X164701253Y-73716140D01*
X164707302Y-73711638D01*
X164712995Y-73706923D01*
X164718334Y-73702007D01*
X164723319Y-73696904D01*
X164727952Y-73691624D01*
X164732233Y-73686182D01*
X164736166Y-73680589D01*
X164739749Y-73674858D01*
X164742986Y-73669002D01*
X164745876Y-73663033D01*
X164748422Y-73656963D01*
X164750624Y-73650806D01*
X164752484Y-73644574D01*
X164754003Y-73638278D01*
X164755183Y-73631933D01*
X164756024Y-73625550D01*
X164756527Y-73619143D01*
X164756695Y-73612722D01*
X164756355Y-73602992D01*
X164755259Y-73593524D01*
X164753292Y-73584306D01*
X164750342Y-73575328D01*
X164746294Y-73566581D01*
X164741034Y-73558052D01*
X164734449Y-73549733D01*
X164726423Y-73541612D01*
X164716844Y-73533679D01*
X164705597Y-73525923D01*
X164692569Y-73518335D01*
X164677645Y-73510902D01*
X164660711Y-73503616D01*
X164641654Y-73496465D01*
X164620360Y-73489439D01*
X164596714Y-73482527D01*
X164386507Y-73425597D01*
X164347074Y-73413577D01*
X164324788Y-73405984D01*
X164301382Y-73397046D01*
X164277298Y-73386545D01*
X164252981Y-73374265D01*
X164228873Y-73359987D01*
X164217037Y-73352031D01*
X164205420Y-73343494D01*
X164194077Y-73334349D01*
X164183064Y-73324569D01*
X164172436Y-73314126D01*
X164162249Y-73302994D01*
X164152558Y-73291145D01*
X164143419Y-73278552D01*
X164134887Y-73265188D01*
X164127018Y-73251025D01*
X164119867Y-73236037D01*
X164113489Y-73220197D01*
X164107941Y-73203476D01*
X164103277Y-73185848D01*
X164099552Y-73167286D01*
X164096824Y-73147763D01*
X164095146Y-73127251D01*
X164094574Y-73105723D01*
X164095172Y-73084994D01*
X164096952Y-73064784D01*
X164099893Y-73045103D01*
X164103977Y-73025960D01*
X164109181Y-73007364D01*
X164115485Y-72989324D01*
X164122870Y-72971849D01*
X164131314Y-72954948D01*
X164140798Y-72938631D01*
X164151301Y-72922906D01*
X164162803Y-72907782D01*
X164175282Y-72893269D01*
X164188720Y-72879375D01*
X164203095Y-72866110D01*
X164218387Y-72853483D01*
X164234575Y-72841502D01*
X164251640Y-72830178D01*
X164269561Y-72819518D01*
X164307888Y-72800229D01*
X164349394Y-72783708D01*
X164393916Y-72770029D01*
X164441290Y-72759263D01*
X164491353Y-72751483D01*
X164543942Y-72746762D01*
X164598894Y-72745173D01*
X164598897Y-72745171D01*
X164642887Y-72746456D01*
G37*
G36*
X168410346Y-72734505D02*
G01*
X168442127Y-72736898D01*
X168474284Y-72741042D01*
X168506639Y-72747063D01*
X168539011Y-72755088D01*
X168571222Y-72765244D01*
X168603093Y-72777658D01*
X168618844Y-72784752D01*
X168634443Y-72792457D01*
X168649868Y-72800791D01*
X168665095Y-72809768D01*
X168680103Y-72819405D01*
X168694868Y-72829717D01*
X168709370Y-72840721D01*
X168723584Y-72852432D01*
X168737490Y-72864866D01*
X168751063Y-72878040D01*
X168764283Y-72891967D01*
X168777127Y-72906666D01*
X168789571Y-72922151D01*
X168801594Y-72938439D01*
X168813174Y-72955544D01*
X168824288Y-72973484D01*
X168834913Y-72992274D01*
X168845028Y-73011929D01*
X168858624Y-73041630D01*
X168870416Y-73071465D01*
X168880522Y-73101311D01*
X168889064Y-73131046D01*
X168896163Y-73160546D01*
X168901938Y-73189689D01*
X168906509Y-73218351D01*
X168909999Y-73246410D01*
X168912526Y-73273742D01*
X168914211Y-73300225D01*
X168915175Y-73325736D01*
X168915539Y-73350150D01*
X168914945Y-73395201D01*
X168913393Y-73434394D01*
X168139218Y-73434394D01*
X168139678Y-73469318D01*
X168140771Y-73490891D01*
X168142900Y-73514441D01*
X168146408Y-73539397D01*
X168151642Y-73565186D01*
X168155014Y-73578214D01*
X168158947Y-73591236D01*
X168163484Y-73604179D01*
X168168668Y-73616973D01*
X168174542Y-73629546D01*
X168181149Y-73641826D01*
X168188533Y-73653742D01*
X168196736Y-73665223D01*
X168205802Y-73676196D01*
X168215774Y-73686590D01*
X168226696Y-73696334D01*
X168238609Y-73705356D01*
X168251557Y-73713585D01*
X168265584Y-73720948D01*
X168280733Y-73727375D01*
X168297046Y-73732794D01*
X168314567Y-73737134D01*
X168333339Y-73740322D01*
X168353405Y-73742287D01*
X168374808Y-73742958D01*
X168390617Y-73742568D01*
X168406354Y-73741337D01*
X168421943Y-73739169D01*
X168437306Y-73735971D01*
X168452364Y-73731648D01*
X168459754Y-73729036D01*
X168467039Y-73726107D01*
X168474209Y-73722850D01*
X168481254Y-73719254D01*
X168488165Y-73715305D01*
X168494932Y-73710994D01*
X168501544Y-73706307D01*
X168507993Y-73701233D01*
X168514268Y-73695760D01*
X168520360Y-73689877D01*
X168526259Y-73683571D01*
X168531956Y-73676832D01*
X168537440Y-73669647D01*
X168542701Y-73662004D01*
X168547731Y-73653892D01*
X168552519Y-73645299D01*
X168557056Y-73636213D01*
X168561332Y-73626622D01*
X168565337Y-73616515D01*
X168569061Y-73605880D01*
X168572495Y-73594705D01*
X168575629Y-73582979D01*
X168883652Y-73582979D01*
X168881511Y-73605474D01*
X168877827Y-73631534D01*
X168875133Y-73645742D01*
X168871724Y-73660650D01*
X168867492Y-73676193D01*
X168862326Y-73692308D01*
X168856118Y-73708932D01*
X168848758Y-73725999D01*
X168840137Y-73743447D01*
X168830144Y-73761211D01*
X168818671Y-73779228D01*
X168805609Y-73797433D01*
X168790847Y-73815762D01*
X168774276Y-73834153D01*
X168757698Y-73850310D01*
X168739632Y-73865452D01*
X168720149Y-73879574D01*
X168699319Y-73892672D01*
X168677214Y-73904743D01*
X168653905Y-73915783D01*
X168629463Y-73925790D01*
X168603959Y-73934758D01*
X168577465Y-73942685D01*
X168550051Y-73949566D01*
X168521789Y-73955399D01*
X168492749Y-73960180D01*
X168463004Y-73963904D01*
X168432623Y-73966569D01*
X168401679Y-73968170D01*
X168370242Y-73968705D01*
X168329521Y-73967679D01*
X168306598Y-73966199D01*
X168282271Y-73963902D01*
X168256769Y-73960655D01*
X168230319Y-73956329D01*
X168203149Y-73950791D01*
X168175488Y-73943913D01*
X168147563Y-73935562D01*
X168119602Y-73925608D01*
X168091834Y-73913920D01*
X168064487Y-73900367D01*
X168037788Y-73884819D01*
X168011965Y-73867145D01*
X167999454Y-73857470D01*
X167987247Y-73847214D01*
X167975374Y-73836362D01*
X167963863Y-73824896D01*
X167944879Y-73803850D01*
X167927319Y-73781747D01*
X167911155Y-73758611D01*
X167896359Y-73734466D01*
X167882904Y-73709338D01*
X167870762Y-73683249D01*
X167859907Y-73656226D01*
X167850310Y-73628292D01*
X167841945Y-73599473D01*
X167834784Y-73569792D01*
X167828800Y-73539274D01*
X167823965Y-73507944D01*
X167820252Y-73475827D01*
X167817634Y-73442946D01*
X167816083Y-73409327D01*
X167815572Y-73374994D01*
X167816130Y-73339550D01*
X167817904Y-73303422D01*
X167821044Y-73266795D01*
X167825702Y-73229854D01*
X167826977Y-73222387D01*
X168150781Y-73222387D01*
X168568889Y-73222387D01*
X168568313Y-73196183D01*
X168567181Y-73179014D01*
X168565120Y-73159833D01*
X168561855Y-73139167D01*
X168557111Y-73117541D01*
X168554099Y-73106532D01*
X168550614Y-73095480D01*
X168546621Y-73084451D01*
X168542087Y-73073510D01*
X168536977Y-73062724D01*
X168531257Y-73052157D01*
X168524892Y-73041876D01*
X168517848Y-73031946D01*
X168510091Y-73022432D01*
X168501587Y-73013402D01*
X168492300Y-73004920D01*
X168482197Y-72997051D01*
X168471243Y-72989863D01*
X168459404Y-72983419D01*
X168446645Y-72977787D01*
X168432933Y-72973032D01*
X168418232Y-72969219D01*
X168402509Y-72966414D01*
X168385729Y-72964683D01*
X168367858Y-72964091D01*
X168354185Y-72964449D01*
X168341014Y-72965510D01*
X168328341Y-72967254D01*
X168316160Y-72969659D01*
X168304466Y-72972705D01*
X168293251Y-72976373D01*
X168282511Y-72980640D01*
X168272240Y-72985487D01*
X168262430Y-72990894D01*
X168253077Y-72996839D01*
X168244175Y-73003302D01*
X168235717Y-73010263D01*
X168227698Y-73017701D01*
X168220112Y-73025596D01*
X168212952Y-73033926D01*
X168206214Y-73042673D01*
X168199890Y-73051814D01*
X168193975Y-73061330D01*
X168183348Y-73081403D01*
X168174286Y-73102728D01*
X168166741Y-73125141D01*
X168160665Y-73148478D01*
X168156012Y-73172573D01*
X168152733Y-73197264D01*
X168150781Y-73222387D01*
X167826977Y-73222387D01*
X167832029Y-73192784D01*
X167840175Y-73155772D01*
X167850291Y-73119002D01*
X167862529Y-73082660D01*
X167877038Y-73046931D01*
X167893970Y-73012001D01*
X167913476Y-72978055D01*
X167924242Y-72961510D01*
X167935707Y-72945279D01*
X167947891Y-72929388D01*
X167960813Y-72913859D01*
X167974491Y-72898714D01*
X167988945Y-72883978D01*
X168004193Y-72869674D01*
X168020254Y-72855824D01*
X168037147Y-72842452D01*
X168054891Y-72829581D01*
X168071815Y-72818712D01*
X168089219Y-72808401D01*
X168107095Y-72798669D01*
X168125437Y-72789535D01*
X168144236Y-72781019D01*
X168163486Y-72773141D01*
X168183178Y-72765919D01*
X168203306Y-72759374D01*
X168223863Y-72753526D01*
X168244840Y-72748394D01*
X168266230Y-72743997D01*
X168288026Y-72740356D01*
X168310221Y-72737489D01*
X168332806Y-72735418D01*
X168355775Y-72734160D01*
X168379121Y-72733737D01*
X168379121Y-72733735D01*
X168410346Y-72734505D01*
G37*
G36*
X155722242Y-75360806D02*
G01*
X156345906Y-75360806D01*
X156345906Y-74701033D01*
X156704026Y-74701033D01*
X156704026Y-76351513D01*
X156350473Y-76351513D01*
X156350473Y-75627564D01*
X155722242Y-75627564D01*
X155722242Y-76351513D01*
X155368689Y-76351513D01*
X155368689Y-74701033D01*
X155722242Y-74701033D01*
X155722242Y-75360806D01*
G37*
G36*
X163853747Y-72571327D02*
G01*
X163493238Y-72571327D01*
X163493238Y-72277047D01*
X163853747Y-72277047D01*
X163853747Y-72571327D01*
G37*
G36*
X166820298Y-72929822D02*
G01*
X166837149Y-72906665D01*
X166847477Y-72893512D01*
X166859230Y-72879666D01*
X166872523Y-72865394D01*
X166887475Y-72850962D01*
X166904201Y-72836638D01*
X166922818Y-72822689D01*
X166943444Y-72809381D01*
X166966195Y-72796981D01*
X166991188Y-72785756D01*
X167018540Y-72775974D01*
X167033137Y-72771707D01*
X167048367Y-72767901D01*
X167064246Y-72764589D01*
X167080787Y-72761804D01*
X167098005Y-72759580D01*
X167115916Y-72757950D01*
X167134532Y-72756947D01*
X167153870Y-72756606D01*
X167169756Y-72756850D01*
X167185279Y-72757571D01*
X167200442Y-72758749D01*
X167215245Y-72760369D01*
X167229691Y-72762411D01*
X167243781Y-72764857D01*
X167257515Y-72767690D01*
X167270896Y-72770892D01*
X167283925Y-72774444D01*
X167296603Y-72778329D01*
X167308931Y-72782529D01*
X167320911Y-72787025D01*
X167332545Y-72791801D01*
X167343833Y-72796837D01*
X167354777Y-72802116D01*
X167365379Y-72807621D01*
X167375639Y-72813332D01*
X167385560Y-72819232D01*
X167404387Y-72831529D01*
X167421872Y-72844367D01*
X167438024Y-72857601D01*
X167452857Y-72871090D01*
X167466379Y-72884689D01*
X167478603Y-72898254D01*
X167489539Y-72911642D01*
X167497132Y-72922882D01*
X167504524Y-72935244D01*
X167511674Y-72948724D01*
X167518543Y-72963320D01*
X167525091Y-72979028D01*
X167531278Y-72995846D01*
X167537065Y-73013770D01*
X167542412Y-73032798D01*
X167547278Y-73052927D01*
X167551625Y-73074154D01*
X167555412Y-73096475D01*
X167558600Y-73119887D01*
X167561149Y-73144389D01*
X167563019Y-73169976D01*
X167564170Y-73196646D01*
X167564562Y-73224396D01*
X167564562Y-73925306D01*
X167229317Y-73925306D01*
X167229317Y-73235833D01*
X167228948Y-73205995D01*
X167228069Y-73188021D01*
X167226357Y-73168602D01*
X167223534Y-73148183D01*
X167219322Y-73127209D01*
X167216608Y-73116652D01*
X167213443Y-73106123D01*
X167209791Y-73095678D01*
X167205619Y-73085371D01*
X167200890Y-73075258D01*
X167195571Y-73065395D01*
X167189626Y-73055838D01*
X167183022Y-73046641D01*
X167175723Y-73037862D01*
X167167694Y-73029554D01*
X167158901Y-73021774D01*
X167149308Y-73014577D01*
X167138882Y-73008018D01*
X167127588Y-73002154D01*
X167115390Y-72997040D01*
X167102254Y-72992731D01*
X167088146Y-72989283D01*
X167073029Y-72986751D01*
X167056871Y-72985191D01*
X167039635Y-72984659D01*
X167021393Y-72985317D01*
X167002775Y-72987362D01*
X166983997Y-72990898D01*
X166965273Y-72996028D01*
X166946816Y-73002856D01*
X166937755Y-73006939D01*
X166928841Y-73011486D01*
X166920102Y-73016510D01*
X166911562Y-73022023D01*
X166903251Y-73028039D01*
X166895193Y-73034570D01*
X166887417Y-73041630D01*
X166879948Y-73049231D01*
X166872814Y-73057387D01*
X166866041Y-73066110D01*
X166859656Y-73075414D01*
X166853686Y-73085312D01*
X166848158Y-73095816D01*
X166843098Y-73106939D01*
X166838532Y-73118695D01*
X166834489Y-73131097D01*
X166830995Y-73144157D01*
X166828075Y-73157889D01*
X166825758Y-73172305D01*
X166824070Y-73187418D01*
X166823038Y-73203242D01*
X166822687Y-73219790D01*
X166824905Y-73925307D01*
X166484922Y-73925307D01*
X166484922Y-72277047D01*
X166484922Y-72277045D01*
X166820298Y-72277045D01*
X166820298Y-72929822D01*
G37*
G36*
X161999261Y-72557712D02*
G01*
X161766602Y-72557712D01*
X161766602Y-72288483D01*
X161999261Y-72288483D01*
X161999261Y-72557712D01*
G37*
D11*
X133000000Y-99075153D02*
X153876992Y-99075153D01*
X153876992Y-101500000D01*
X133000000Y-101500000D01*
X133000000Y-99075153D01*
G36*
X133000000Y-99075153D02*
G01*
X153876992Y-99075153D01*
X153876992Y-101500000D01*
X133000000Y-101500000D01*
X133000000Y-99075153D01*
G37*
D10*
G36*
X155701462Y-73516750D02*
G01*
X156023305Y-72281654D01*
X156422773Y-72281654D01*
X156712695Y-73516750D01*
X156979789Y-72281654D01*
X157317677Y-72281654D01*
X156897684Y-73929831D01*
X156505004Y-73929831D01*
X156205950Y-72669560D01*
X155884064Y-73929831D01*
X155482252Y-73929831D01*
X155080438Y-72281654D01*
X155445722Y-72281654D01*
X155701462Y-73516750D01*
G37*
G36*
X165055205Y-75885986D02*
G01*
X165055556Y-75925708D01*
X165056391Y-75946662D01*
X165058019Y-75967943D01*
X165060705Y-75989251D01*
X165062527Y-75999821D01*
X165064713Y-76010285D01*
X165067295Y-76020604D01*
X165070307Y-76030743D01*
X165073782Y-76040662D01*
X165077752Y-76050325D01*
X165082252Y-76059694D01*
X165087314Y-76068731D01*
X165092970Y-76077398D01*
X165099255Y-76085658D01*
X165106201Y-76093474D01*
X165113842Y-76100807D01*
X165122210Y-76107620D01*
X165131338Y-76113876D01*
X165141260Y-76119537D01*
X165152008Y-76124565D01*
X165163616Y-76128922D01*
X165176117Y-76132572D01*
X165189544Y-76135476D01*
X165203930Y-76137597D01*
X165219307Y-76138897D01*
X165235710Y-76139339D01*
X165255439Y-76138868D01*
X165273936Y-76137471D01*
X165291240Y-76135172D01*
X165307390Y-76131993D01*
X165322427Y-76127959D01*
X165336391Y-76123092D01*
X165349321Y-76117416D01*
X165361256Y-76110955D01*
X165372237Y-76103731D01*
X165382304Y-76095768D01*
X165391496Y-76087089D01*
X165399853Y-76077718D01*
X165407415Y-76067678D01*
X165414221Y-76056993D01*
X165420311Y-76045686D01*
X165425726Y-76033780D01*
X165430504Y-76021298D01*
X165434686Y-76008265D01*
X165441419Y-75980635D01*
X165446244Y-75951078D01*
X165449478Y-75919781D01*
X165451439Y-75886930D01*
X165452447Y-75852712D01*
X165452871Y-75780924D01*
X165452871Y-75198774D01*
X165799725Y-75198774D01*
X165799725Y-75959001D01*
X165801333Y-76042427D01*
X165802712Y-76107894D01*
X165804800Y-76195203D01*
X165806026Y-76241437D01*
X165806328Y-76255560D01*
X165806427Y-76267105D01*
X165808195Y-76289248D01*
X165810144Y-76309243D01*
X165812518Y-76329270D01*
X165815559Y-76351513D01*
X165487052Y-76351513D01*
X165475617Y-76198739D01*
X165460224Y-76220982D01*
X165450374Y-76234203D01*
X165438932Y-76248405D01*
X165425784Y-76263275D01*
X165410812Y-76278498D01*
X165393901Y-76293761D01*
X165374935Y-76308750D01*
X165353796Y-76323151D01*
X165330370Y-76336650D01*
X165304539Y-76348933D01*
X165290686Y-76354521D01*
X165276188Y-76359687D01*
X165261031Y-76364393D01*
X165245200Y-76368598D01*
X165228681Y-76372264D01*
X165211460Y-76375351D01*
X165193521Y-76377820D01*
X165174851Y-76379633D01*
X165155434Y-76380749D01*
X165135256Y-76381130D01*
X165120783Y-76380925D01*
X165106477Y-76380316D01*
X165092346Y-76379313D01*
X165078396Y-76377928D01*
X165064634Y-76376171D01*
X165051067Y-76374051D01*
X165024542Y-76368768D01*
X164998874Y-76362162D01*
X164974117Y-76354317D01*
X164950324Y-76345316D01*
X164927547Y-76335242D01*
X164905841Y-76324179D01*
X164885258Y-76312211D01*
X164865851Y-76299420D01*
X164847673Y-76285890D01*
X164830778Y-76271705D01*
X164815219Y-76256948D01*
X164801048Y-76241703D01*
X164788319Y-76226052D01*
X164781492Y-76217095D01*
X164775092Y-76207780D01*
X164769104Y-76198140D01*
X164763516Y-76188203D01*
X164758312Y-76178002D01*
X164753480Y-76167568D01*
X164744876Y-76146122D01*
X164737592Y-76124113D01*
X164731519Y-76101788D01*
X164726547Y-76079395D01*
X164722566Y-76057182D01*
X164719465Y-76035396D01*
X164717135Y-76014285D01*
X164715465Y-75994095D01*
X164714345Y-75975076D01*
X164713318Y-75941536D01*
X164713171Y-75915645D01*
X164713171Y-75198775D01*
X164713171Y-75198774D01*
X165055205Y-75198774D01*
X165055205Y-75885986D01*
G37*
G36*
X148200000Y-75900000D02*
G01*
X147491821Y-76333003D01*
X147263319Y-74162809D01*
X147256809Y-74166838D01*
X146984466Y-76642986D01*
X146279476Y-77074129D01*
X145651360Y-73667408D01*
X146366005Y-73230466D01*
X146640252Y-75436087D01*
X146646762Y-75432057D01*
X146942619Y-72877971D01*
X147581628Y-72487169D01*
X147845955Y-74667505D01*
X147852598Y-74663473D01*
X148158064Y-72134850D01*
X148869653Y-71700121D01*
X148200000Y-75900000D01*
G37*
G36*
X167274681Y-75159902D02*
G01*
X167305876Y-75160672D01*
X167337633Y-75163067D01*
X167369770Y-75167213D01*
X167402109Y-75173236D01*
X167434470Y-75181265D01*
X167466672Y-75191425D01*
X167498535Y-75203843D01*
X167514284Y-75210938D01*
X167529880Y-75218646D01*
X167545302Y-75226981D01*
X167560527Y-75235960D01*
X167575532Y-75245599D01*
X167590295Y-75255914D01*
X167604793Y-75266919D01*
X167619004Y-75278632D01*
X167632906Y-75291068D01*
X167646475Y-75304242D01*
X167659690Y-75318171D01*
X167672528Y-75332871D01*
X167684966Y-75348357D01*
X167696982Y-75364646D01*
X167708553Y-75381752D01*
X167719658Y-75399692D01*
X167730273Y-75418482D01*
X167740375Y-75438138D01*
X167753972Y-75467838D01*
X167765764Y-75497671D01*
X167775872Y-75527516D01*
X167784418Y-75557248D01*
X167791521Y-75586745D01*
X167797302Y-75615884D01*
X167801881Y-75644543D01*
X167805379Y-75672598D01*
X167807917Y-75699926D01*
X167809614Y-75726405D01*
X167810592Y-75751911D01*
X167810971Y-75776323D01*
X167810414Y-75821369D01*
X167808907Y-75860560D01*
X167034733Y-75860560D01*
X167035193Y-75895483D01*
X167036286Y-75917056D01*
X167038413Y-75940607D01*
X167041919Y-75965563D01*
X167047149Y-75991352D01*
X167050518Y-76004379D01*
X167054447Y-76017401D01*
X167058980Y-76030344D01*
X167064158Y-76043138D01*
X167070027Y-76055711D01*
X167076627Y-76067992D01*
X167084004Y-76079908D01*
X167092199Y-76091388D01*
X167101255Y-76102361D01*
X167111217Y-76112756D01*
X167122126Y-76122500D01*
X167134027Y-76131522D01*
X167146961Y-76139750D01*
X167160973Y-76147114D01*
X167176105Y-76153541D01*
X167192400Y-76158960D01*
X167209902Y-76163299D01*
X167228653Y-76166487D01*
X167248697Y-76168453D01*
X167270076Y-76169124D01*
X167285885Y-76168734D01*
X167301626Y-76167500D01*
X167317221Y-76165331D01*
X167332593Y-76162130D01*
X167347663Y-76157804D01*
X167355061Y-76155190D01*
X167362355Y-76152260D01*
X167369534Y-76149001D01*
X167376590Y-76145402D01*
X167383512Y-76141452D01*
X167390290Y-76137138D01*
X167396915Y-76132449D01*
X167403378Y-76127373D01*
X167409668Y-76121899D01*
X167415776Y-76116014D01*
X167421692Y-76109706D01*
X167427406Y-76102965D01*
X167432909Y-76095778D01*
X167438190Y-76088134D01*
X167443241Y-76080020D01*
X167448051Y-76071426D01*
X167452611Y-76062339D01*
X167456911Y-76052747D01*
X167460941Y-76042640D01*
X167464692Y-76032004D01*
X167468153Y-76020829D01*
X167471316Y-76009102D01*
X167779123Y-76009102D01*
X167776946Y-76031599D01*
X167773247Y-76057664D01*
X167770551Y-76071875D01*
X167767144Y-76086786D01*
X167762914Y-76102333D01*
X167757751Y-76118452D01*
X167751545Y-76135079D01*
X167744186Y-76152151D01*
X167735563Y-76169602D01*
X167725566Y-76187369D01*
X167714084Y-76205389D01*
X167701006Y-76223596D01*
X167686223Y-76241927D01*
X167669624Y-76260318D01*
X167653018Y-76276476D01*
X167634932Y-76291618D01*
X167615435Y-76305739D01*
X167594598Y-76318838D01*
X167572491Y-76330909D01*
X167549183Y-76341949D01*
X167524745Y-76351955D01*
X167499246Y-76360924D01*
X167472756Y-76368850D01*
X167445345Y-76375732D01*
X167417084Y-76381565D01*
X167388042Y-76386345D01*
X167358290Y-76390069D01*
X167327896Y-76392734D01*
X167296932Y-76394336D01*
X167265466Y-76394870D01*
X167224751Y-76393842D01*
X167201836Y-76392361D01*
X167177519Y-76390061D01*
X167152028Y-76386812D01*
X167125588Y-76382482D01*
X167098429Y-76376943D01*
X167070777Y-76370061D01*
X167042859Y-76361709D01*
X167014902Y-76351754D01*
X166987135Y-76340066D01*
X166959784Y-76326514D01*
X166933076Y-76310968D01*
X166907238Y-76293298D01*
X166894717Y-76283626D01*
X166882499Y-76273373D01*
X166870612Y-76262523D01*
X166859084Y-76251061D01*
X166840131Y-76229987D01*
X166822593Y-76207862D01*
X166806444Y-76184711D01*
X166791657Y-76160557D01*
X166778205Y-76135424D01*
X166766063Y-76109337D01*
X166755203Y-76082317D01*
X166745599Y-76054391D01*
X166737225Y-76025580D01*
X166730053Y-75995910D01*
X166724058Y-75965403D01*
X166719212Y-75934084D01*
X166715489Y-75901977D01*
X166712863Y-75869104D01*
X166711307Y-75835490D01*
X166710794Y-75801159D01*
X166711353Y-75765715D01*
X166713131Y-75729585D01*
X166716278Y-75692955D01*
X166720945Y-75656011D01*
X166722228Y-75648510D01*
X167046003Y-75648510D01*
X167464362Y-75648510D01*
X167463776Y-75622322D01*
X167462632Y-75605158D01*
X167460556Y-75585982D01*
X167457274Y-75565320D01*
X167452512Y-75543697D01*
X167449491Y-75532690D01*
X167445996Y-75521639D01*
X167441995Y-75510611D01*
X167437453Y-75499671D01*
X167432335Y-75488886D01*
X167426608Y-75478320D01*
X167420237Y-75468039D01*
X167413188Y-75458109D01*
X167405426Y-75448596D01*
X167396918Y-75439566D01*
X167387629Y-75431084D01*
X167377525Y-75423216D01*
X167366572Y-75416027D01*
X167354736Y-75409584D01*
X167341981Y-75403952D01*
X167328275Y-75399196D01*
X167313583Y-75395383D01*
X167297870Y-75392578D01*
X167281102Y-75390847D01*
X167263246Y-75390255D01*
X167249571Y-75390614D01*
X167236400Y-75391675D01*
X167223728Y-75393418D01*
X167211547Y-75395823D01*
X167199852Y-75398870D01*
X167188637Y-75402537D01*
X167177897Y-75406805D01*
X167167624Y-75411652D01*
X167157814Y-75417058D01*
X167148460Y-75423003D01*
X167139556Y-75429466D01*
X167131097Y-75436426D01*
X167123076Y-75443864D01*
X167115487Y-75451758D01*
X167108324Y-75460088D01*
X167101582Y-75468833D01*
X167095254Y-75477974D01*
X167089335Y-75487489D01*
X167078697Y-75507559D01*
X167069622Y-75528881D01*
X167062061Y-75551290D01*
X167055966Y-75574621D01*
X167051290Y-75598711D01*
X167047985Y-75623396D01*
X167046003Y-75648510D01*
X166722228Y-75648510D01*
X166727283Y-75618938D01*
X166735443Y-75581922D01*
X166745574Y-75545148D01*
X166757829Y-75508802D01*
X166772356Y-75473069D01*
X166789309Y-75438136D01*
X166808835Y-75404186D01*
X166819612Y-75387639D01*
X166831088Y-75371408D01*
X166843283Y-75355515D01*
X166856217Y-75339984D01*
X166869907Y-75324839D01*
X166884372Y-75310102D01*
X166899632Y-75295797D01*
X166915705Y-75281947D01*
X166932611Y-75268575D01*
X166950367Y-75255705D01*
X166967311Y-75244835D01*
X166984728Y-75234525D01*
X167002612Y-75224795D01*
X167020956Y-75215663D01*
X167039754Y-75207150D01*
X167058999Y-75199275D01*
X167078686Y-75192058D01*
X167098808Y-75185517D01*
X167119358Y-75179672D01*
X167140331Y-75174544D01*
X167161720Y-75170151D01*
X167183518Y-75166513D01*
X167205720Y-75163650D01*
X167228319Y-75161580D01*
X167251309Y-75160324D01*
X167274683Y-75159901D01*
X167274681Y-75159902D01*
G37*
G36*
X159201852Y-72746456D02*
G01*
X159244550Y-72750322D01*
X159265358Y-72753229D01*
X159285771Y-72756787D01*
X159305765Y-72760999D01*
X159325315Y-72765867D01*
X159344395Y-72771394D01*
X159362982Y-72777580D01*
X159381049Y-72784430D01*
X159398572Y-72791944D01*
X159415525Y-72800124D01*
X159431884Y-72808974D01*
X159447624Y-72818495D01*
X159462720Y-72828689D01*
X159477146Y-72839558D01*
X159490878Y-72851105D01*
X159503891Y-72863332D01*
X159516159Y-72876241D01*
X159527658Y-72889833D01*
X159538363Y-72904112D01*
X159548248Y-72919079D01*
X159557289Y-72934737D01*
X159565461Y-72951087D01*
X159572738Y-72968132D01*
X159579096Y-72985874D01*
X159584509Y-73004315D01*
X159588953Y-73023457D01*
X159592403Y-73043302D01*
X159594833Y-73063853D01*
X159596218Y-73085112D01*
X159288242Y-73085112D01*
X159287104Y-73073478D01*
X159285445Y-73062519D01*
X159283291Y-73052214D01*
X159280668Y-73042543D01*
X159277602Y-73033487D01*
X159274120Y-73025025D01*
X159270248Y-73017137D01*
X159266013Y-73009804D01*
X159261440Y-73003005D01*
X159256556Y-72996720D01*
X159251388Y-72990929D01*
X159245962Y-72985613D01*
X159240303Y-72980751D01*
X159234440Y-72976323D01*
X159228397Y-72972310D01*
X159222201Y-72968691D01*
X159215879Y-72965446D01*
X159209457Y-72962556D01*
X159202961Y-72959999D01*
X159196417Y-72957757D01*
X159183293Y-72954136D01*
X159170295Y-72951533D01*
X159157634Y-72949786D01*
X159145521Y-72948736D01*
X159134166Y-72948224D01*
X159123780Y-72948089D01*
X159115259Y-72948215D01*
X159106883Y-72948593D01*
X159098658Y-72949219D01*
X159090593Y-72950090D01*
X159082697Y-72951203D01*
X159074978Y-72952556D01*
X159067444Y-72954145D01*
X159060104Y-72955969D01*
X159052966Y-72958023D01*
X159046037Y-72960305D01*
X159039328Y-72962812D01*
X159032845Y-72965542D01*
X159026597Y-72968490D01*
X159020593Y-72971656D01*
X159014841Y-72975035D01*
X159009348Y-72978624D01*
X159004125Y-72982422D01*
X158999177Y-72986424D01*
X158994515Y-72990629D01*
X158990147Y-72995033D01*
X158986080Y-72999633D01*
X158982323Y-73004426D01*
X158978884Y-73009410D01*
X158975772Y-73014582D01*
X158972995Y-73019938D01*
X158970561Y-73025477D01*
X158968479Y-73031194D01*
X158966757Y-73037088D01*
X158965403Y-73043155D01*
X158964426Y-73049392D01*
X158963833Y-73055797D01*
X158963634Y-73062366D01*
X158963801Y-73069454D01*
X158964301Y-73076194D01*
X158965130Y-73082601D01*
X158966288Y-73088688D01*
X158967770Y-73094469D01*
X158969574Y-73099955D01*
X158971699Y-73105162D01*
X158974140Y-73110102D01*
X158976897Y-73114789D01*
X158979965Y-73119235D01*
X158983343Y-73123455D01*
X158987028Y-73127462D01*
X158991018Y-73131268D01*
X158995309Y-73134888D01*
X159004788Y-73141621D01*
X159015443Y-73147768D01*
X159027255Y-73153435D01*
X159040203Y-73158729D01*
X159054266Y-73163758D01*
X159069425Y-73168627D01*
X159085658Y-73173443D01*
X159121267Y-73183346D01*
X159329294Y-73240317D01*
X159367327Y-73251632D01*
X159402760Y-73264123D01*
X159435613Y-73277789D01*
X159451078Y-73285063D01*
X159465905Y-73292631D01*
X159480098Y-73300492D01*
X159493658Y-73308648D01*
X159506588Y-73317098D01*
X159518891Y-73325842D01*
X159530569Y-73334879D01*
X159541625Y-73344211D01*
X159552061Y-73353836D01*
X159561880Y-73363756D01*
X159571084Y-73373969D01*
X159579676Y-73384476D01*
X159587659Y-73395278D01*
X159595034Y-73406373D01*
X159601805Y-73417763D01*
X159607973Y-73429446D01*
X159613542Y-73441424D01*
X159618515Y-73453695D01*
X159622892Y-73466261D01*
X159626678Y-73479121D01*
X159629875Y-73492274D01*
X159632484Y-73505722D01*
X159634509Y-73519464D01*
X159635953Y-73533500D01*
X159636817Y-73547830D01*
X159637105Y-73562454D01*
X159635097Y-73599657D01*
X159629058Y-73636561D01*
X159618963Y-73672875D01*
X159604788Y-73708311D01*
X159596162Y-73725608D01*
X159586508Y-73742577D01*
X159575821Y-73759181D01*
X159564099Y-73775385D01*
X159551339Y-73791151D01*
X159537537Y-73806444D01*
X159522691Y-73821227D01*
X159506798Y-73835464D01*
X159489854Y-73849119D01*
X159471856Y-73862155D01*
X159452802Y-73874537D01*
X159432689Y-73886229D01*
X159411512Y-73897193D01*
X159389270Y-73907394D01*
X159365960Y-73916795D01*
X159341577Y-73925361D01*
X159316120Y-73933054D01*
X159289585Y-73939839D01*
X159261969Y-73945680D01*
X159233269Y-73950540D01*
X159203482Y-73954383D01*
X159172605Y-73957173D01*
X159140634Y-73958874D01*
X159107568Y-73959449D01*
X159079803Y-73959065D01*
X159052249Y-73957869D01*
X159024950Y-73955794D01*
X158997947Y-73952771D01*
X158971285Y-73948735D01*
X158945005Y-73943616D01*
X158919151Y-73937348D01*
X158893766Y-73929864D01*
X158868893Y-73921096D01*
X158844575Y-73910977D01*
X158820853Y-73899439D01*
X158797773Y-73886415D01*
X158775375Y-73871837D01*
X158753704Y-73855639D01*
X158732802Y-73837753D01*
X158712712Y-73818111D01*
X158705864Y-73810601D01*
X158699405Y-73803033D01*
X158693321Y-73795414D01*
X158687603Y-73787754D01*
X158682237Y-73780061D01*
X158677213Y-73772344D01*
X158668142Y-73756875D01*
X158660298Y-73741416D01*
X158653586Y-73726038D01*
X158647914Y-73710812D01*
X158643189Y-73695808D01*
X158639317Y-73681097D01*
X158636206Y-73666749D01*
X158633763Y-73652834D01*
X158631894Y-73639424D01*
X158630506Y-73626589D01*
X158629507Y-73614399D01*
X158628301Y-73592238D01*
X158945369Y-73592238D01*
X158946735Y-73606033D01*
X158949143Y-73619959D01*
X158952673Y-73633873D01*
X158957407Y-73647636D01*
X158963423Y-73661107D01*
X158970804Y-73674145D01*
X158975030Y-73680458D01*
X158979628Y-73686609D01*
X158984607Y-73692582D01*
X158989978Y-73698359D01*
X158995749Y-73703922D01*
X159001932Y-73709253D01*
X159008536Y-73714335D01*
X159015572Y-73719151D01*
X159023049Y-73723683D01*
X159030978Y-73727913D01*
X159039368Y-73731824D01*
X159048230Y-73735397D01*
X159057574Y-73738616D01*
X159067409Y-73741463D01*
X159077747Y-73743921D01*
X159088596Y-73745971D01*
X159099967Y-73747596D01*
X159111870Y-73748778D01*
X159124315Y-73749501D01*
X159137313Y-73749745D01*
X159148484Y-73749547D01*
X159159282Y-73748959D01*
X159169708Y-73747995D01*
X159179763Y-73746667D01*
X159189448Y-73744988D01*
X159198764Y-73742970D01*
X159207713Y-73740626D01*
X159216297Y-73737969D01*
X159224515Y-73735010D01*
X159232370Y-73731763D01*
X159239862Y-73728240D01*
X159246993Y-73724453D01*
X159253764Y-73720416D01*
X159260177Y-73716140D01*
X159266232Y-73711638D01*
X159271931Y-73706923D01*
X159277276Y-73702007D01*
X159282266Y-73696904D01*
X159286904Y-73691624D01*
X159291191Y-73686182D01*
X159295127Y-73680589D01*
X159298715Y-73674858D01*
X159301955Y-73669002D01*
X159304849Y-73663033D01*
X159307398Y-73656963D01*
X159309603Y-73650806D01*
X159311466Y-73644574D01*
X159312987Y-73638278D01*
X159314167Y-73631933D01*
X159315009Y-73625550D01*
X159315514Y-73619143D01*
X159315681Y-73612722D01*
X159315341Y-73602992D01*
X159314244Y-73593524D01*
X159312275Y-73584306D01*
X159309322Y-73575328D01*
X159305270Y-73566581D01*
X159300005Y-73558052D01*
X159293414Y-73549733D01*
X159285381Y-73541612D01*
X159275794Y-73533679D01*
X159264538Y-73525923D01*
X159251499Y-73518335D01*
X159236564Y-73510902D01*
X159219618Y-73503616D01*
X159200547Y-73496465D01*
X159179237Y-73489439D01*
X159155575Y-73482527D01*
X158945369Y-73425597D01*
X158905988Y-73413577D01*
X158883719Y-73405984D01*
X158860324Y-73397046D01*
X158836248Y-73386545D01*
X158811933Y-73374265D01*
X158787826Y-73359987D01*
X158775988Y-73352031D01*
X158764369Y-73343494D01*
X158753024Y-73334349D01*
X158742008Y-73324569D01*
X158731377Y-73314126D01*
X158721187Y-73302994D01*
X158711493Y-73291145D01*
X158702350Y-73278552D01*
X158693814Y-73265188D01*
X158685941Y-73251025D01*
X158678787Y-73236037D01*
X158672406Y-73220197D01*
X158666854Y-73203476D01*
X158662187Y-73185848D01*
X158658461Y-73167286D01*
X158655730Y-73147763D01*
X158654051Y-73127251D01*
X158653479Y-73105723D01*
X158654077Y-73084994D01*
X158655857Y-73064784D01*
X158658799Y-73045103D01*
X158662882Y-73025960D01*
X158668086Y-73007364D01*
X158674390Y-72989324D01*
X158681775Y-72971849D01*
X158690220Y-72954948D01*
X158699704Y-72938631D01*
X158710207Y-72922906D01*
X158721709Y-72907782D01*
X158734190Y-72893269D01*
X158747628Y-72879375D01*
X158762004Y-72866110D01*
X158777297Y-72853483D01*
X158793487Y-72841502D01*
X158810554Y-72830178D01*
X158828477Y-72819518D01*
X158866809Y-72800229D01*
X158908321Y-72783708D01*
X158952851Y-72770029D01*
X159000234Y-72759263D01*
X159050309Y-72751483D01*
X159102911Y-72746762D01*
X159157879Y-72745173D01*
X159157878Y-72745171D01*
X159201852Y-72746456D01*
G37*
G36*
X158933106Y-75177310D02*
G01*
X158974192Y-75181606D01*
X159015336Y-75188902D01*
X159056114Y-75199309D01*
X159096102Y-75212938D01*
X159115667Y-75220995D01*
X159134876Y-75229899D01*
X159153675Y-75239664D01*
X159172012Y-75250304D01*
X159189833Y-75261833D01*
X159207085Y-75274264D01*
X159223715Y-75287611D01*
X159239671Y-75301888D01*
X159254899Y-75317110D01*
X159269346Y-75333289D01*
X159282960Y-75350440D01*
X159295686Y-75368577D01*
X159307473Y-75387713D01*
X159318267Y-75407863D01*
X159328015Y-75429040D01*
X159336665Y-75451258D01*
X159344162Y-75474531D01*
X159350454Y-75498873D01*
X159355489Y-75524297D01*
X159359212Y-75550818D01*
X159361572Y-75578450D01*
X159362514Y-75607206D01*
X159031788Y-75607206D01*
X159029425Y-75586251D01*
X159027530Y-75572304D01*
X159024950Y-75556632D01*
X159021527Y-75539677D01*
X159017104Y-75521880D01*
X159011524Y-75503683D01*
X159008251Y-75494572D01*
X159004629Y-75485527D01*
X159000639Y-75476602D01*
X158996262Y-75467854D01*
X158991477Y-75459336D01*
X158986265Y-75451105D01*
X158980606Y-75443214D01*
X158974481Y-75435721D01*
X158967869Y-75428679D01*
X158960752Y-75422144D01*
X158953110Y-75416172D01*
X158944922Y-75410816D01*
X158936170Y-75406133D01*
X158926833Y-75402178D01*
X158916892Y-75399006D01*
X158906327Y-75396672D01*
X158895118Y-75395231D01*
X158883247Y-75394738D01*
X158868659Y-75395437D01*
X158854879Y-75397489D01*
X158841885Y-75400830D01*
X158829653Y-75405393D01*
X158818162Y-75411112D01*
X158807389Y-75417922D01*
X158797310Y-75425757D01*
X158787904Y-75434552D01*
X158779148Y-75444240D01*
X158771019Y-75454756D01*
X158763495Y-75466035D01*
X158756552Y-75478009D01*
X158744322Y-75503785D01*
X158734147Y-75531558D01*
X158725848Y-75560802D01*
X158719243Y-75590992D01*
X158714150Y-75621601D01*
X158710390Y-75652104D01*
X158707780Y-75681974D01*
X158706140Y-75710687D01*
X158705045Y-75762535D01*
X158705490Y-75792630D01*
X158707325Y-75832933D01*
X158711302Y-75880362D01*
X158714329Y-75905786D01*
X158718173Y-75931835D01*
X158722928Y-75958124D01*
X158728689Y-75984268D01*
X158735548Y-76009882D01*
X158743601Y-76034580D01*
X158752941Y-76057977D01*
X158763661Y-76079688D01*
X158769569Y-76089790D01*
X158775857Y-76099327D01*
X158782537Y-76108249D01*
X158789622Y-76116509D01*
X158792622Y-76119637D01*
X158795633Y-76122595D01*
X158798654Y-76125388D01*
X158801681Y-76128021D01*
X158804715Y-76130498D01*
X158807751Y-76132825D01*
X158813824Y-76137044D01*
X158819885Y-76140714D01*
X158825916Y-76143872D01*
X158831902Y-76146555D01*
X158837824Y-76148800D01*
X158843667Y-76150643D01*
X158849414Y-76152121D01*
X158855048Y-76153271D01*
X158860553Y-76154129D01*
X158865911Y-76154733D01*
X158871107Y-76155119D01*
X158876123Y-76155323D01*
X158880942Y-76155383D01*
X158888586Y-76155153D01*
X158897595Y-76154292D01*
X158907737Y-76152548D01*
X158918777Y-76149666D01*
X158930483Y-76145391D01*
X158942621Y-76139470D01*
X158954958Y-76131649D01*
X158961128Y-76126946D01*
X158967260Y-76121674D01*
X158973325Y-76115798D01*
X158979295Y-76109290D01*
X158985139Y-76102115D01*
X158990828Y-76094243D01*
X158996334Y-76085642D01*
X159001627Y-76076280D01*
X159006678Y-76066126D01*
X159011458Y-76055147D01*
X159015938Y-76043312D01*
X159020088Y-76030589D01*
X159023880Y-76016946D01*
X159027284Y-76002352D01*
X159030271Y-75986774D01*
X159032812Y-75970182D01*
X159034877Y-75952543D01*
X159036439Y-75933825D01*
X159369469Y-75933825D01*
X159367185Y-75969413D01*
X159365388Y-75988692D01*
X159362931Y-76008807D01*
X159359647Y-76029646D01*
X159355370Y-76051093D01*
X159349931Y-76073035D01*
X159343165Y-76095357D01*
X159334903Y-76117944D01*
X159324979Y-76140683D01*
X159313227Y-76163459D01*
X159299477Y-76186157D01*
X159283565Y-76208664D01*
X159274745Y-76219810D01*
X159265322Y-76230865D01*
X159255274Y-76241815D01*
X159244581Y-76252646D01*
X159233222Y-76263343D01*
X159221176Y-76273892D01*
X159205537Y-76286743D01*
X159189387Y-76298791D01*
X159172695Y-76310033D01*
X159155430Y-76320464D01*
X159137563Y-76330082D01*
X159119063Y-76338882D01*
X159099898Y-76346861D01*
X159080040Y-76354015D01*
X159059456Y-76360341D01*
X159038117Y-76365835D01*
X159015991Y-76370494D01*
X158993049Y-76374314D01*
X158969260Y-76377291D01*
X158944593Y-76379422D01*
X158919018Y-76380703D01*
X158892504Y-76381131D01*
X158864003Y-76380717D01*
X158835950Y-76379427D01*
X158808364Y-76377187D01*
X158781260Y-76373925D01*
X158754655Y-76369566D01*
X158728565Y-76364038D01*
X158703008Y-76357268D01*
X158678000Y-76349183D01*
X158653558Y-76339708D01*
X158629698Y-76328772D01*
X158606436Y-76316301D01*
X158583791Y-76302221D01*
X158561777Y-76286460D01*
X158540413Y-76268945D01*
X158519714Y-76249601D01*
X158499697Y-76228357D01*
X158481529Y-76206115D01*
X158464627Y-76183021D01*
X158448980Y-76159079D01*
X158434573Y-76134299D01*
X158421394Y-76108686D01*
X158409429Y-76082247D01*
X158398666Y-76054989D01*
X158389091Y-76026920D01*
X158380692Y-75998046D01*
X158373455Y-75968374D01*
X158367368Y-75937911D01*
X158362416Y-75906664D01*
X158358588Y-75874639D01*
X158355870Y-75841845D01*
X158354248Y-75808287D01*
X158353710Y-75773972D01*
X158354821Y-75726060D01*
X158358079Y-75680727D01*
X158363369Y-75637904D01*
X158370579Y-75597522D01*
X158379596Y-75559511D01*
X158390307Y-75523801D01*
X158402598Y-75490324D01*
X158416357Y-75459011D01*
X158431469Y-75429790D01*
X158447823Y-75402594D01*
X158465304Y-75377353D01*
X158483800Y-75353996D01*
X158503197Y-75332456D01*
X158523383Y-75312662D01*
X158544244Y-75294546D01*
X158565666Y-75278037D01*
X158587538Y-75263066D01*
X158609745Y-75249565D01*
X158632174Y-75237462D01*
X158654713Y-75226690D01*
X158699665Y-75208858D01*
X158743697Y-75195514D01*
X158785901Y-75186101D01*
X158825375Y-75180065D01*
X158861211Y-75176851D01*
X158892504Y-75175903D01*
X158892503Y-75175902D01*
X158933106Y-75177310D01*
G37*
G36*
X162074694Y-72738345D02*
G01*
X162074684Y-72738345D01*
X162074673Y-72738346D01*
X162074668Y-72738346D01*
X162074663Y-72738346D01*
X162115181Y-72739288D01*
X162138430Y-72740685D01*
X162163295Y-72742896D01*
X162189497Y-72746068D01*
X162216753Y-72750349D01*
X162244781Y-72755885D01*
X162273301Y-72762823D01*
X162302031Y-72771311D01*
X162330688Y-72781495D01*
X162358992Y-72793523D01*
X162386662Y-72807542D01*
X162413414Y-72823700D01*
X162426359Y-72832626D01*
X162438969Y-72842142D01*
X162451209Y-72852266D01*
X162463044Y-72863017D01*
X162474438Y-72874412D01*
X162485357Y-72886471D01*
X162492424Y-72895362D01*
X162499062Y-72904485D01*
X162505285Y-72913816D01*
X162511107Y-72923331D01*
X162516541Y-72933007D01*
X162521600Y-72942821D01*
X162530647Y-72962768D01*
X162538356Y-72982984D01*
X162544834Y-73003281D01*
X162550187Y-73023472D01*
X162554522Y-73043370D01*
X162557947Y-73062787D01*
X162560569Y-73081535D01*
X162562493Y-73099427D01*
X162563828Y-73116275D01*
X162565156Y-73146091D01*
X162565409Y-73169482D01*
X162567628Y-73632957D01*
X162567967Y-73669809D01*
X162569039Y-73706617D01*
X162570919Y-73743359D01*
X162573687Y-73780014D01*
X162577421Y-73816558D01*
X162582198Y-73852971D01*
X162588096Y-73889229D01*
X162595193Y-73925310D01*
X162289437Y-73925310D01*
X162287433Y-73912249D01*
X162285679Y-73899618D01*
X162282854Y-73875649D01*
X162280829Y-73853401D01*
X162279470Y-73832874D01*
X162278645Y-73814068D01*
X162278221Y-73796982D01*
X162278041Y-73767970D01*
X162265968Y-73784747D01*
X162253770Y-73800477D01*
X162241466Y-73815192D01*
X162229077Y-73828927D01*
X162216625Y-73841715D01*
X162204131Y-73853590D01*
X162191615Y-73864586D01*
X162179098Y-73874737D01*
X162166602Y-73884076D01*
X162154147Y-73892638D01*
X162141755Y-73900455D01*
X162129446Y-73907563D01*
X162117241Y-73913994D01*
X162105162Y-73919783D01*
X162093228Y-73924964D01*
X162081463Y-73929569D01*
X162058517Y-73937191D01*
X162036491Y-73942919D01*
X162015555Y-73947023D01*
X161995874Y-73949775D01*
X161977618Y-73951445D01*
X161960954Y-73952302D01*
X161933073Y-73952664D01*
X161917717Y-73952525D01*
X161902884Y-73952116D01*
X161888564Y-73951446D01*
X161874745Y-73950524D01*
X161861415Y-73949360D01*
X161848564Y-73947963D01*
X161836181Y-73946344D01*
X161824253Y-73944511D01*
X161812770Y-73942475D01*
X161801720Y-73940245D01*
X161791092Y-73937830D01*
X161780875Y-73935241D01*
X161771058Y-73932486D01*
X161761628Y-73929575D01*
X161752575Y-73926518D01*
X161743888Y-73923324D01*
X161727565Y-73916566D01*
X161712567Y-73909376D01*
X161698806Y-73901831D01*
X161686190Y-73894008D01*
X161674629Y-73885984D01*
X161664033Y-73877834D01*
X161654311Y-73869637D01*
X161645372Y-73861468D01*
X161632980Y-73848366D01*
X161621438Y-73834711D01*
X161610739Y-73820542D01*
X161600877Y-73805902D01*
X161591844Y-73790830D01*
X161583633Y-73775366D01*
X161576238Y-73759551D01*
X161569651Y-73743427D01*
X161563865Y-73727032D01*
X161558874Y-73710408D01*
X161554670Y-73693595D01*
X161551245Y-73676634D01*
X161548595Y-73659565D01*
X161546710Y-73642428D01*
X161545584Y-73625265D01*
X161545210Y-73608115D01*
X161545619Y-73590089D01*
X161546991Y-73570466D01*
X161547125Y-73569366D01*
X161873466Y-73569366D01*
X161874085Y-73584006D01*
X161875948Y-73598721D01*
X161879065Y-73613370D01*
X161883447Y-73627813D01*
X161886115Y-73634913D01*
X161889102Y-73641909D01*
X161892410Y-73648783D01*
X161896041Y-73655517D01*
X161899995Y-73662094D01*
X161904273Y-73668497D01*
X161908877Y-73674707D01*
X161913808Y-73680708D01*
X161919068Y-73686481D01*
X161924656Y-73692009D01*
X161930576Y-73697275D01*
X161936827Y-73702260D01*
X161943412Y-73706947D01*
X161950331Y-73711320D01*
X161957585Y-73715359D01*
X161965176Y-73719048D01*
X161973106Y-73722368D01*
X161981374Y-73725303D01*
X161989983Y-73727835D01*
X161998934Y-73729945D01*
X162008228Y-73731618D01*
X162017865Y-73732834D01*
X162027848Y-73733577D01*
X162038178Y-73733828D01*
X162043927Y-73733742D01*
X162049608Y-73733485D01*
X162055219Y-73733063D01*
X162060759Y-73732479D01*
X162071620Y-73730843D01*
X162082184Y-73728610D01*
X162092439Y-73725815D01*
X162102377Y-73722491D01*
X162111987Y-73718670D01*
X162121260Y-73714388D01*
X162130187Y-73709677D01*
X162138757Y-73704571D01*
X162146961Y-73699103D01*
X162154790Y-73693307D01*
X162162233Y-73687217D01*
X162169282Y-73680866D01*
X162175926Y-73674288D01*
X162182156Y-73667516D01*
X162192660Y-73653637D01*
X162201953Y-73639352D01*
X162210107Y-73624634D01*
X162217198Y-73609455D01*
X162223297Y-73593791D01*
X162228479Y-73577613D01*
X162232819Y-73560896D01*
X162236388Y-73543612D01*
X162239262Y-73525736D01*
X162241513Y-73507241D01*
X162243216Y-73488100D01*
X162244444Y-73468287D01*
X162245771Y-73426538D01*
X162246082Y-73381781D01*
X162235950Y-73380992D01*
X162225912Y-73380332D01*
X162215969Y-73379799D01*
X162206123Y-73379393D01*
X162196376Y-73379112D01*
X162186730Y-73378956D01*
X162177186Y-73378924D01*
X162167746Y-73379015D01*
X162167746Y-73379016D01*
X162151485Y-73379469D01*
X162135565Y-73380300D01*
X162119998Y-73381505D01*
X162104793Y-73383083D01*
X162089964Y-73385031D01*
X162075522Y-73387347D01*
X162061478Y-73390028D01*
X162047843Y-73393073D01*
X162034630Y-73396479D01*
X162021849Y-73400245D01*
X162009513Y-73404366D01*
X161997632Y-73408843D01*
X161986219Y-73413671D01*
X161975284Y-73418850D01*
X161964840Y-73424376D01*
X161954898Y-73430248D01*
X161945469Y-73436464D01*
X161936564Y-73443020D01*
X161928197Y-73449915D01*
X161920377Y-73457147D01*
X161913116Y-73464713D01*
X161906427Y-73472611D01*
X161900320Y-73480839D01*
X161894806Y-73489395D01*
X161889899Y-73498276D01*
X161885608Y-73507480D01*
X161881946Y-73517005D01*
X161878924Y-73526849D01*
X161876553Y-73537009D01*
X161874846Y-73547484D01*
X161873813Y-73558270D01*
X161873466Y-73569366D01*
X161547125Y-73569366D01*
X161549544Y-73549463D01*
X161553495Y-73527296D01*
X161559061Y-73504184D01*
X161566460Y-73480344D01*
X161575909Y-73455993D01*
X161587626Y-73431349D01*
X161594403Y-73418984D01*
X161601829Y-73406628D01*
X161609930Y-73394307D01*
X161618734Y-73382048D01*
X161628268Y-73369879D01*
X161638559Y-73357827D01*
X161649634Y-73345918D01*
X161661521Y-73334181D01*
X161674247Y-73322642D01*
X161687839Y-73311328D01*
X161702324Y-73300267D01*
X161717729Y-73289486D01*
X161734082Y-73279011D01*
X161751409Y-73268871D01*
X161769738Y-73259092D01*
X161789096Y-73249701D01*
X161816334Y-73238459D01*
X161844792Y-73228621D01*
X161874245Y-73220091D01*
X161904471Y-73212778D01*
X161935246Y-73206586D01*
X161966347Y-73201424D01*
X161997549Y-73197197D01*
X162028631Y-73193811D01*
X162089534Y-73189192D01*
X162147269Y-73186819D01*
X162200047Y-73185944D01*
X162246080Y-73185818D01*
X162245951Y-73159259D01*
X162245496Y-73135840D01*
X162244607Y-73115050D01*
X162243967Y-73105482D01*
X162243179Y-73096381D01*
X162242230Y-73087684D01*
X162241106Y-73079326D01*
X162239794Y-73071244D01*
X162238280Y-73063374D01*
X162236553Y-73055654D01*
X162234597Y-73048019D01*
X162232401Y-73040406D01*
X162229950Y-73032751D01*
X162226991Y-73025026D01*
X162223706Y-73017718D01*
X162220117Y-73010817D01*
X162216245Y-73004312D01*
X162212112Y-72998190D01*
X162207738Y-72992441D01*
X162203145Y-72987053D01*
X162198355Y-72982015D01*
X162193388Y-72977316D01*
X162188266Y-72972944D01*
X162183009Y-72968888D01*
X162177640Y-72965137D01*
X162172180Y-72961679D01*
X162166649Y-72958503D01*
X162161070Y-72955597D01*
X162155462Y-72952951D01*
X162144249Y-72948392D01*
X162133180Y-72944735D01*
X162122425Y-72941888D01*
X162112154Y-72939763D01*
X162102538Y-72938267D01*
X162093746Y-72937311D01*
X162085948Y-72936803D01*
X162079314Y-72936654D01*
X162070300Y-72936897D01*
X162061264Y-72937628D01*
X162052241Y-72938850D01*
X162043263Y-72940566D01*
X162034364Y-72942778D01*
X162025578Y-72945489D01*
X162016939Y-72948703D01*
X162008479Y-72952422D01*
X162000233Y-72956649D01*
X161992233Y-72961387D01*
X161984514Y-72966638D01*
X161977108Y-72972407D01*
X161970050Y-72978695D01*
X161966662Y-72982034D01*
X161963373Y-72985505D01*
X161960188Y-72989107D01*
X161957111Y-72992841D01*
X161954145Y-72996706D01*
X161951296Y-73000704D01*
X161946864Y-73007965D01*
X161942986Y-73015161D01*
X161939624Y-73022280D01*
X161936741Y-73029314D01*
X161934301Y-73036251D01*
X161932266Y-73043082D01*
X161930601Y-73049797D01*
X161929267Y-73056384D01*
X161928228Y-73062835D01*
X161927448Y-73069138D01*
X161926888Y-73075284D01*
X161926513Y-73081262D01*
X161926169Y-73092674D01*
X161926120Y-73103294D01*
X161595187Y-73103294D01*
X161596542Y-73077510D01*
X161597768Y-73062809D01*
X161599575Y-73047092D01*
X161602124Y-73030505D01*
X161605576Y-73013191D01*
X161610094Y-72995295D01*
X161615837Y-72976960D01*
X161622969Y-72958330D01*
X161631649Y-72939549D01*
X161642040Y-72920761D01*
X161647927Y-72911410D01*
X161654302Y-72902111D01*
X161661186Y-72892882D01*
X161668598Y-72883741D01*
X161676559Y-72874707D01*
X161685088Y-72865797D01*
X161694207Y-72857029D01*
X161703934Y-72848422D01*
X161714291Y-72839993D01*
X161725298Y-72831760D01*
X161745304Y-72818326D01*
X161765927Y-72806169D01*
X161787088Y-72795233D01*
X161808707Y-72785459D01*
X161830704Y-72776793D01*
X161852998Y-72769177D01*
X161875510Y-72762555D01*
X161898159Y-72756870D01*
X161920866Y-72752066D01*
X161943550Y-72748086D01*
X161966132Y-72744874D01*
X161988532Y-72742372D01*
X162010669Y-72740525D01*
X162032464Y-72739276D01*
X162074699Y-72738344D01*
X162074694Y-72738345D01*
G37*
G36*
X157962301Y-72734505D02*
G01*
X157994046Y-72736898D01*
X158026177Y-72741042D01*
X158058511Y-72747063D01*
X158090869Y-72755088D01*
X158123071Y-72765244D01*
X158154935Y-72777658D01*
X158170684Y-72784752D01*
X158186282Y-72792457D01*
X158201704Y-72800791D01*
X158216930Y-72809768D01*
X158231937Y-72819405D01*
X158246701Y-72829717D01*
X158261200Y-72840721D01*
X158275412Y-72852432D01*
X158289315Y-72864866D01*
X158302885Y-72878040D01*
X158316100Y-72891967D01*
X158328937Y-72906666D01*
X158341375Y-72922151D01*
X158353390Y-72938439D01*
X158364959Y-72955544D01*
X158376061Y-72973484D01*
X158386673Y-72992274D01*
X158396772Y-73011929D01*
X158410385Y-73041630D01*
X158422194Y-73071465D01*
X158432318Y-73101311D01*
X158440878Y-73131046D01*
X158447994Y-73160546D01*
X158453786Y-73189689D01*
X158458373Y-73218351D01*
X158461877Y-73246410D01*
X158464418Y-73273742D01*
X158466114Y-73300225D01*
X158467087Y-73325736D01*
X158467457Y-73350150D01*
X158466867Y-73395201D01*
X158465305Y-73434394D01*
X157691213Y-73434394D01*
X157691672Y-73469318D01*
X157692762Y-73490891D01*
X157694886Y-73514441D01*
X157698389Y-73539397D01*
X157703615Y-73565186D01*
X157706982Y-73578214D01*
X157710909Y-73591236D01*
X157715440Y-73604179D01*
X157720616Y-73616973D01*
X157726483Y-73629546D01*
X157733081Y-73641826D01*
X157740456Y-73653742D01*
X157748649Y-73665223D01*
X157757703Y-73676196D01*
X157767663Y-73686590D01*
X157778571Y-73696334D01*
X157790470Y-73705356D01*
X157803403Y-73713585D01*
X157817413Y-73720948D01*
X157832544Y-73727375D01*
X157848838Y-73732794D01*
X157866339Y-73737134D01*
X157885089Y-73740322D01*
X157905133Y-73742287D01*
X157926512Y-73742958D01*
X157942372Y-73742568D01*
X157958150Y-73741337D01*
X157973769Y-73739169D01*
X157989154Y-73735971D01*
X158004228Y-73731648D01*
X158011624Y-73729036D01*
X158018914Y-73726107D01*
X158026088Y-73722850D01*
X158033137Y-73719254D01*
X158040050Y-73715305D01*
X158046819Y-73710994D01*
X158053434Y-73706307D01*
X158059885Y-73701233D01*
X158066163Y-73695760D01*
X158072258Y-73689877D01*
X158078160Y-73683571D01*
X158083861Y-73676832D01*
X158089351Y-73669647D01*
X158094619Y-73662004D01*
X158099658Y-73653892D01*
X158104456Y-73645299D01*
X158109004Y-73636213D01*
X158113294Y-73626622D01*
X158117314Y-73616515D01*
X158121057Y-73605880D01*
X158124512Y-73594705D01*
X158127669Y-73582979D01*
X158435523Y-73582979D01*
X158433373Y-73605474D01*
X158429692Y-73631534D01*
X158427002Y-73645742D01*
X158423598Y-73660650D01*
X158419372Y-73676193D01*
X158414213Y-73692308D01*
X158408011Y-73708932D01*
X158400655Y-73725999D01*
X158392037Y-73743447D01*
X158382045Y-73761211D01*
X158370570Y-73779228D01*
X158357502Y-73797433D01*
X158342731Y-73815762D01*
X158326146Y-73834153D01*
X158309578Y-73850310D01*
X158291522Y-73865452D01*
X158272048Y-73879574D01*
X158251226Y-73892672D01*
X158229127Y-73904743D01*
X158205822Y-73915783D01*
X158181380Y-73925790D01*
X158155872Y-73934758D01*
X158129368Y-73942685D01*
X158101938Y-73949566D01*
X158073653Y-73955399D01*
X158044584Y-73960180D01*
X158014799Y-73963904D01*
X157984371Y-73966569D01*
X157953368Y-73968170D01*
X157921862Y-73968705D01*
X157881225Y-73967679D01*
X157858333Y-73966199D01*
X157834030Y-73963902D01*
X157808544Y-73960655D01*
X157782104Y-73956329D01*
X157754939Y-73950791D01*
X157727276Y-73943913D01*
X157699345Y-73935562D01*
X157671373Y-73925608D01*
X157643589Y-73913920D01*
X157616221Y-73900367D01*
X157589499Y-73884819D01*
X157563649Y-73867145D01*
X157551124Y-73857470D01*
X157538902Y-73847214D01*
X157527013Y-73836362D01*
X157515485Y-73824896D01*
X157496539Y-73803850D01*
X157479009Y-73781747D01*
X157462867Y-73758611D01*
X157448088Y-73734466D01*
X157434643Y-73709338D01*
X157422508Y-73683249D01*
X157411654Y-73656226D01*
X157402056Y-73628292D01*
X157393687Y-73599473D01*
X157386520Y-73569792D01*
X157380529Y-73539274D01*
X157375687Y-73507944D01*
X157371967Y-73475827D01*
X157369343Y-73442946D01*
X157367788Y-73409327D01*
X157367276Y-73374994D01*
X157367837Y-73339550D01*
X157369620Y-73303422D01*
X157372775Y-73266795D01*
X157377451Y-73229854D01*
X157378730Y-73222387D01*
X157702609Y-73222387D01*
X158120760Y-73222387D01*
X158120183Y-73196183D01*
X158119049Y-73179014D01*
X158116986Y-73159833D01*
X158113718Y-73139167D01*
X158108970Y-73117541D01*
X158105956Y-73106532D01*
X158102469Y-73095480D01*
X158098474Y-73084451D01*
X158093938Y-73073510D01*
X158088827Y-73062724D01*
X158083105Y-73052157D01*
X158076738Y-73041876D01*
X158069692Y-73031946D01*
X158061933Y-73022432D01*
X158053427Y-73013402D01*
X158044138Y-73004920D01*
X158034033Y-72997051D01*
X158023078Y-72989863D01*
X158011237Y-72983419D01*
X157998477Y-72977787D01*
X157984764Y-72973032D01*
X157970062Y-72969219D01*
X157954338Y-72966414D01*
X157937557Y-72964683D01*
X157919685Y-72964091D01*
X157906022Y-72964449D01*
X157892862Y-72965510D01*
X157880198Y-72967254D01*
X157868025Y-72969659D01*
X157856337Y-72972705D01*
X157845127Y-72976373D01*
X157834391Y-72980640D01*
X157824122Y-72985487D01*
X157814315Y-72990894D01*
X157804963Y-72996839D01*
X157796061Y-73003302D01*
X157787602Y-73010263D01*
X157779582Y-73017701D01*
X157771994Y-73025596D01*
X157764831Y-73033926D01*
X157758090Y-73042673D01*
X157751762Y-73051814D01*
X157745844Y-73061330D01*
X157735209Y-73081403D01*
X157726139Y-73102728D01*
X157718586Y-73125141D01*
X157712503Y-73148478D01*
X157707844Y-73172573D01*
X157704562Y-73197264D01*
X157702609Y-73222387D01*
X157378730Y-73222387D01*
X157383799Y-73192784D01*
X157391969Y-73155772D01*
X157402110Y-73119002D01*
X157414371Y-73082660D01*
X157428904Y-73046931D01*
X157445857Y-73012001D01*
X157465381Y-72978055D01*
X157476154Y-72961510D01*
X157487626Y-72945279D01*
X157499815Y-72929388D01*
X157512741Y-72913859D01*
X157526421Y-72898714D01*
X157540876Y-72883978D01*
X157556122Y-72869674D01*
X157572180Y-72855824D01*
X157589068Y-72842452D01*
X157606805Y-72829581D01*
X157623742Y-72818712D01*
X157641152Y-72808401D01*
X157659030Y-72798669D01*
X157677369Y-72789535D01*
X157696163Y-72781019D01*
X157715406Y-72773141D01*
X157735091Y-72765919D01*
X157755213Y-72759374D01*
X157775763Y-72753526D01*
X157796738Y-72748394D01*
X157818129Y-72743997D01*
X157839931Y-72740356D01*
X157862137Y-72737489D01*
X157884742Y-72735418D01*
X157907738Y-72734160D01*
X157931120Y-72733737D01*
X157931120Y-72733735D01*
X157962301Y-72734505D01*
G37*
G36*
X159938166Y-75356030D02*
G01*
X159955042Y-75332855D01*
X159965377Y-75319692D01*
X159977134Y-75305836D01*
X159990429Y-75291554D01*
X160005379Y-75277112D01*
X160022102Y-75262777D01*
X160040714Y-75248818D01*
X160061334Y-75235500D01*
X160084077Y-75223091D01*
X160109061Y-75211859D01*
X160136403Y-75202070D01*
X160150995Y-75197800D01*
X160166221Y-75193991D01*
X160182095Y-75190676D01*
X160198631Y-75187890D01*
X160215845Y-75185664D01*
X160233751Y-75184033D01*
X160252363Y-75183030D01*
X160271697Y-75182688D01*
X160287574Y-75182933D01*
X160303092Y-75183654D01*
X160318250Y-75184834D01*
X160333051Y-75186455D01*
X160347495Y-75188498D01*
X160361584Y-75190947D01*
X160375320Y-75193782D01*
X160388702Y-75196987D01*
X160401733Y-75200542D01*
X160414413Y-75204430D01*
X160426744Y-75208634D01*
X160438728Y-75213134D01*
X160450364Y-75217913D01*
X160461656Y-75222953D01*
X160472603Y-75228236D01*
X160483207Y-75233745D01*
X160493470Y-75239460D01*
X160503392Y-75245364D01*
X160522220Y-75257668D01*
X160539700Y-75270513D01*
X160555843Y-75283754D01*
X160570658Y-75297248D01*
X160584156Y-75310851D01*
X160596346Y-75324419D01*
X160607238Y-75337808D01*
X160614834Y-75349040D01*
X160622235Y-75361396D01*
X160629400Y-75374872D01*
X160636288Y-75389465D01*
X160642858Y-75405173D01*
X160649071Y-75421991D01*
X160654885Y-75439916D01*
X160660259Y-75458946D01*
X160665153Y-75479078D01*
X160669526Y-75500307D01*
X160673339Y-75522631D01*
X160676549Y-75546047D01*
X160679116Y-75570551D01*
X160681001Y-75596140D01*
X160682161Y-75622811D01*
X160682557Y-75650562D01*
X160682557Y-76351513D01*
X160347266Y-76351513D01*
X160347266Y-75661956D01*
X160346895Y-75632117D01*
X160346014Y-75614142D01*
X160344298Y-75594723D01*
X160341470Y-75574304D01*
X160337251Y-75553330D01*
X160334533Y-75542773D01*
X160331364Y-75532244D01*
X160327707Y-75521798D01*
X160323529Y-75511491D01*
X160318794Y-75501379D01*
X160313469Y-75491516D01*
X160307517Y-75481959D01*
X160300905Y-75472763D01*
X160293598Y-75463983D01*
X160285560Y-75455675D01*
X160276758Y-75447895D01*
X160267155Y-75440698D01*
X160256719Y-75434140D01*
X160245413Y-75428276D01*
X160233203Y-75423162D01*
X160220055Y-75418853D01*
X160205932Y-75415405D01*
X160190802Y-75412873D01*
X160174629Y-75411313D01*
X160157377Y-75410781D01*
X160139150Y-75411440D01*
X160120549Y-75413488D01*
X160101786Y-75417028D01*
X160083077Y-75422163D01*
X160064635Y-75428997D01*
X160055581Y-75433083D01*
X160046673Y-75437634D01*
X160037940Y-75442660D01*
X160029407Y-75448177D01*
X160021102Y-75454196D01*
X160013050Y-75460730D01*
X160005279Y-75467793D01*
X159997816Y-75475397D01*
X159990687Y-75483555D01*
X159983919Y-75492281D01*
X159977539Y-75501587D01*
X159971573Y-75511486D01*
X159966048Y-75521991D01*
X159960991Y-75533116D01*
X159956429Y-75544872D01*
X159952389Y-75557274D01*
X159948897Y-75570333D01*
X159945980Y-75584063D01*
X159943664Y-75598478D01*
X159941977Y-75613589D01*
X159940945Y-75629409D01*
X159940595Y-75645953D01*
X159942612Y-76351513D01*
X159602715Y-76351513D01*
X159602715Y-74703212D01*
X159602707Y-74703210D01*
X159938166Y-74703210D01*
X159938166Y-75356030D01*
G37*
G36*
X163842185Y-73925307D02*
G01*
X163504634Y-73925307D01*
X163504634Y-72770264D01*
X163842185Y-72770264D01*
X163842185Y-73925307D01*
G37*
G36*
X162668266Y-75177310D02*
G01*
X162709394Y-75181606D01*
X162750576Y-75188902D01*
X162791388Y-75199309D01*
X162831406Y-75212938D01*
X162850984Y-75220995D01*
X162870205Y-75229899D01*
X162889016Y-75239664D01*
X162907363Y-75250304D01*
X162925194Y-75261833D01*
X162942456Y-75274264D01*
X162959095Y-75287611D01*
X162975058Y-75301888D01*
X162990294Y-75317110D01*
X163004748Y-75333289D01*
X163018367Y-75350440D01*
X163031099Y-75368577D01*
X163042891Y-75387713D01*
X163053690Y-75407863D01*
X163063442Y-75429040D01*
X163072095Y-75451258D01*
X163079596Y-75474531D01*
X163085892Y-75498873D01*
X163090929Y-75524297D01*
X163094655Y-75550818D01*
X163097017Y-75578450D01*
X163097962Y-75607206D01*
X162766902Y-75607206D01*
X162764599Y-75586251D01*
X162762729Y-75572304D01*
X162760171Y-75556632D01*
X162756768Y-75539677D01*
X162752362Y-75521880D01*
X162746796Y-75503683D01*
X162743529Y-75494572D01*
X162739913Y-75485527D01*
X162735928Y-75476602D01*
X162731556Y-75467854D01*
X162726775Y-75459336D01*
X162721567Y-75451105D01*
X162715912Y-75443214D01*
X162709789Y-75435721D01*
X162703181Y-75428679D01*
X162696066Y-75422144D01*
X162688425Y-75416172D01*
X162680239Y-75410816D01*
X162671488Y-75406133D01*
X162662152Y-75402178D01*
X162652212Y-75399006D01*
X162641648Y-75396672D01*
X162630440Y-75395231D01*
X162618569Y-75394738D01*
X162603968Y-75395437D01*
X162590177Y-75397489D01*
X162577172Y-75400830D01*
X162564931Y-75405393D01*
X162553431Y-75411112D01*
X162542649Y-75417922D01*
X162532563Y-75425757D01*
X162523149Y-75434552D01*
X162514387Y-75444240D01*
X162506252Y-75454756D01*
X162498722Y-75466035D01*
X162491774Y-75478009D01*
X162479536Y-75503785D01*
X162469355Y-75531558D01*
X162461051Y-75560802D01*
X162454442Y-75590992D01*
X162449347Y-75621601D01*
X162445585Y-75652104D01*
X162442975Y-75681974D01*
X162441335Y-75710687D01*
X162440240Y-75762535D01*
X162440692Y-75792630D01*
X162442547Y-75832933D01*
X162446554Y-75880362D01*
X162449598Y-75905786D01*
X162453461Y-75931835D01*
X162458236Y-75958124D01*
X162464017Y-75984268D01*
X162470898Y-76009882D01*
X162478972Y-76034580D01*
X162488332Y-76057977D01*
X162499072Y-76079688D01*
X162504989Y-76089790D01*
X162511287Y-76099327D01*
X162517976Y-76108249D01*
X162525068Y-76116509D01*
X162528045Y-76119637D01*
X162531035Y-76122595D01*
X162534036Y-76125388D01*
X162537047Y-76128021D01*
X162540065Y-76130498D01*
X162543088Y-76132825D01*
X162549141Y-76137044D01*
X162555188Y-76140714D01*
X162561212Y-76143872D01*
X162567195Y-76146555D01*
X162573122Y-76148800D01*
X162578973Y-76150643D01*
X162584732Y-76152121D01*
X162590382Y-76153271D01*
X162595906Y-76154129D01*
X162601286Y-76154733D01*
X162606505Y-76155119D01*
X162611545Y-76155323D01*
X162616390Y-76155383D01*
X162623982Y-76155153D01*
X162632953Y-76154292D01*
X162643068Y-76152548D01*
X162654091Y-76149666D01*
X162665787Y-76145391D01*
X162677921Y-76139470D01*
X162690259Y-76131649D01*
X162696430Y-76126946D01*
X162702564Y-76121674D01*
X162708631Y-76115798D01*
X162714602Y-76109290D01*
X162720447Y-76102115D01*
X162726138Y-76094243D01*
X162731644Y-76085642D01*
X162736936Y-76076280D01*
X162741985Y-76066126D01*
X162746762Y-76055147D01*
X162751236Y-76043312D01*
X162755379Y-76030589D01*
X162759162Y-76016946D01*
X162762555Y-76002352D01*
X162765528Y-75986774D01*
X162768052Y-75970182D01*
X162770098Y-75952543D01*
X162771636Y-75933825D01*
X163104913Y-75933825D01*
X163102600Y-75969413D01*
X163100792Y-75988692D01*
X163098326Y-76008807D01*
X163095035Y-76029646D01*
X163090752Y-76051093D01*
X163085311Y-76073035D01*
X163078544Y-76095357D01*
X163070283Y-76117944D01*
X163060363Y-76140683D01*
X163048616Y-76163459D01*
X163034874Y-76186157D01*
X163018971Y-76208664D01*
X163010156Y-76219810D01*
X163000739Y-76230865D01*
X162990698Y-76241815D01*
X162980012Y-76252646D01*
X162968661Y-76263343D01*
X162956623Y-76273892D01*
X162940943Y-76286743D01*
X162924756Y-76298791D01*
X162908031Y-76310033D01*
X162890736Y-76320464D01*
X162872841Y-76330082D01*
X162854316Y-76338882D01*
X162835129Y-76346861D01*
X162815251Y-76354015D01*
X162794649Y-76360341D01*
X162773294Y-76365835D01*
X162751154Y-76370494D01*
X162728199Y-76374314D01*
X162704399Y-76377291D01*
X162679721Y-76379422D01*
X162654137Y-76380703D01*
X162627614Y-76381131D01*
X162599169Y-76380717D01*
X162571167Y-76379427D01*
X162543625Y-76377187D01*
X162516561Y-76373925D01*
X162489991Y-76369566D01*
X162463931Y-76364038D01*
X162438400Y-76357268D01*
X162413413Y-76349183D01*
X162388987Y-76339708D01*
X162365140Y-76328772D01*
X162341888Y-76316301D01*
X162319248Y-76302221D01*
X162297237Y-76286460D01*
X162275871Y-76268945D01*
X162255168Y-76249601D01*
X162235145Y-76228357D01*
X162216944Y-76206115D01*
X162200013Y-76183021D01*
X162184338Y-76159079D01*
X162169906Y-76134299D01*
X162156704Y-76108686D01*
X162144718Y-76082247D01*
X162133937Y-76054989D01*
X162124346Y-76026920D01*
X162115932Y-75998046D01*
X162108683Y-75968374D01*
X162102585Y-75937911D01*
X162097625Y-75906664D01*
X162093791Y-75874639D01*
X162091068Y-75841845D01*
X162089444Y-75808287D01*
X162088905Y-75773972D01*
X162090017Y-75726060D01*
X162093276Y-75680727D01*
X162098569Y-75637904D01*
X162105783Y-75597522D01*
X162114805Y-75559511D01*
X162125521Y-75523801D01*
X162137818Y-75490324D01*
X162151582Y-75459011D01*
X162166701Y-75429790D01*
X162183061Y-75402594D01*
X162200549Y-75377353D01*
X162219051Y-75353996D01*
X162238454Y-75332456D01*
X162258645Y-75312662D01*
X162279510Y-75294546D01*
X162300937Y-75278037D01*
X162322811Y-75263066D01*
X162345020Y-75249565D01*
X162367450Y-75237462D01*
X162389988Y-75226690D01*
X162434934Y-75208858D01*
X162478953Y-75195514D01*
X162521136Y-75186101D01*
X162560579Y-75180065D01*
X162596374Y-75176851D01*
X162627615Y-75175903D01*
X162627615Y-75175902D01*
X162668266Y-75177310D01*
G37*
G36*
X157598449Y-75172116D02*
G01*
X157635543Y-75174550D01*
X157671266Y-75178552D01*
X157705628Y-75184078D01*
X157738640Y-75191083D01*
X157770312Y-75199522D01*
X157800655Y-75209351D01*
X157829680Y-75220524D01*
X157857396Y-75232998D01*
X157883815Y-75246728D01*
X157908946Y-75261669D01*
X157932802Y-75277777D01*
X157955391Y-75295006D01*
X157976724Y-75313312D01*
X157996812Y-75332651D01*
X158015666Y-75352978D01*
X158033296Y-75374249D01*
X158049712Y-75396418D01*
X158064925Y-75419441D01*
X158078946Y-75443273D01*
X158091784Y-75467870D01*
X158103451Y-75493188D01*
X158113957Y-75519181D01*
X158123313Y-75545804D01*
X158131528Y-75573014D01*
X158138614Y-75600766D01*
X158149440Y-75657715D01*
X158155873Y-75716296D01*
X158157999Y-75776150D01*
X158155796Y-75836543D01*
X158149143Y-75895793D01*
X158137976Y-75953522D01*
X158130681Y-75981697D01*
X158122233Y-76009348D01*
X158112624Y-76036429D01*
X158101848Y-76062893D01*
X158089895Y-76088690D01*
X158076758Y-76113775D01*
X158062429Y-76138099D01*
X158046900Y-76161615D01*
X158030163Y-76184275D01*
X158012210Y-76206032D01*
X157993032Y-76226839D01*
X157972623Y-76246648D01*
X157950974Y-76265411D01*
X157928076Y-76283081D01*
X157903923Y-76299610D01*
X157878505Y-76314951D01*
X157851816Y-76329057D01*
X157823847Y-76341879D01*
X157794590Y-76353371D01*
X157764037Y-76363485D01*
X157732180Y-76372173D01*
X157699012Y-76379388D01*
X157664523Y-76385082D01*
X157628707Y-76389209D01*
X157591556Y-76391719D01*
X157553060Y-76392567D01*
X157492261Y-76390188D01*
X157462553Y-76387215D01*
X157433353Y-76383054D01*
X157404695Y-76377704D01*
X157376616Y-76371166D01*
X157349149Y-76363441D01*
X157322330Y-76354529D01*
X157296195Y-76344430D01*
X157270777Y-76333145D01*
X157246112Y-76320673D01*
X157222235Y-76307016D01*
X157199182Y-76292173D01*
X157176987Y-76276146D01*
X157155684Y-76258933D01*
X157135311Y-76240537D01*
X157115900Y-76220956D01*
X157097488Y-76200192D01*
X157080109Y-76178244D01*
X157063799Y-76155113D01*
X157048592Y-76130800D01*
X157034523Y-76105305D01*
X157021628Y-76078628D01*
X157009942Y-76050769D01*
X156999499Y-76021730D01*
X156990335Y-75991509D01*
X156982485Y-75960108D01*
X156975983Y-75927527D01*
X156970866Y-75893766D01*
X156967167Y-75858826D01*
X156964922Y-75822706D01*
X156964209Y-75787543D01*
X157310975Y-75787543D01*
X157311229Y-75811316D01*
X157311990Y-75834238D01*
X157313256Y-75856317D01*
X157315027Y-75877559D01*
X157317301Y-75897969D01*
X157320076Y-75917555D01*
X157323353Y-75936321D01*
X157327129Y-75954276D01*
X157331404Y-75971424D01*
X157336176Y-75987772D01*
X157341444Y-76003327D01*
X157347206Y-76018094D01*
X157353462Y-76032080D01*
X157360211Y-76045291D01*
X157367450Y-76057733D01*
X157375180Y-76069413D01*
X157383398Y-76080336D01*
X157392103Y-76090510D01*
X157401295Y-76099940D01*
X157410972Y-76108632D01*
X157421133Y-76116593D01*
X157431777Y-76123829D01*
X157442902Y-76130346D01*
X157454508Y-76136151D01*
X157466592Y-76141249D01*
X157479154Y-76145648D01*
X157492193Y-76149352D01*
X157505708Y-76152369D01*
X157519696Y-76154705D01*
X157534158Y-76156366D01*
X157549091Y-76157358D01*
X157564495Y-76157687D01*
X157591746Y-76156612D01*
X157617799Y-76153264D01*
X157642578Y-76147453D01*
X157666004Y-76138994D01*
X157677186Y-76133712D01*
X157688001Y-76127697D01*
X157698439Y-76120926D01*
X157708491Y-76113376D01*
X157718147Y-76105023D01*
X157727397Y-76095843D01*
X157736232Y-76085813D01*
X157744641Y-76074909D01*
X157752616Y-76063109D01*
X157760146Y-76050389D01*
X157767222Y-76036724D01*
X157773835Y-76022093D01*
X157779974Y-76006471D01*
X157785630Y-75989834D01*
X157795454Y-75953425D01*
X157803230Y-75912679D01*
X157808879Y-75867406D01*
X157812326Y-75817420D01*
X157813492Y-75762534D01*
X157813103Y-75733209D01*
X157811775Y-75702891D01*
X157809267Y-75671978D01*
X157805340Y-75640867D01*
X157799753Y-75609958D01*
X157796261Y-75594703D01*
X157792265Y-75579648D01*
X157787733Y-75564842D01*
X157782636Y-75550335D01*
X157776944Y-75536177D01*
X157770626Y-75522417D01*
X157763653Y-75509106D01*
X157755994Y-75496293D01*
X157747620Y-75484028D01*
X157738500Y-75472361D01*
X157728605Y-75461341D01*
X157717904Y-75451018D01*
X157706367Y-75441442D01*
X157693965Y-75432663D01*
X157680667Y-75424730D01*
X157666442Y-75417694D01*
X157651262Y-75411603D01*
X157635096Y-75406508D01*
X157617914Y-75402459D01*
X157599686Y-75399505D01*
X157580382Y-75397697D01*
X157559971Y-75397083D01*
X157537547Y-75397905D01*
X157516512Y-75400314D01*
X157496820Y-75404225D01*
X157478428Y-75409552D01*
X157461291Y-75416211D01*
X157445365Y-75424115D01*
X157430606Y-75433180D01*
X157416968Y-75443321D01*
X157404408Y-75454451D01*
X157392882Y-75466487D01*
X157382345Y-75479342D01*
X157372752Y-75492931D01*
X157364060Y-75507168D01*
X157356224Y-75521970D01*
X157349199Y-75537250D01*
X157342942Y-75552923D01*
X157332552Y-75585106D01*
X157324698Y-75617839D01*
X157319026Y-75650437D01*
X157315182Y-75682220D01*
X157312809Y-75712504D01*
X157311554Y-75740608D01*
X157310975Y-75787543D01*
X156964209Y-75787543D01*
X156964165Y-75785408D01*
X156965864Y-75732594D01*
X156971128Y-75679023D01*
X156980207Y-75625269D01*
X156993355Y-75571906D01*
X157010822Y-75519509D01*
X157021254Y-75493853D01*
X157032860Y-75468654D01*
X157045672Y-75443984D01*
X157059721Y-75419914D01*
X157075038Y-75396517D01*
X157091655Y-75373865D01*
X157109604Y-75352029D01*
X157128915Y-75331081D01*
X157149621Y-75311093D01*
X157171752Y-75292137D01*
X157195340Y-75274285D01*
X157220417Y-75257608D01*
X157247014Y-75242178D01*
X157275162Y-75228068D01*
X157304893Y-75215348D01*
X157336238Y-75204091D01*
X157369229Y-75194370D01*
X157403898Y-75186254D01*
X157440275Y-75179817D01*
X157478391Y-75175130D01*
X157518280Y-75172266D01*
X157559971Y-75171295D01*
X157559973Y-75171295D01*
X157598449Y-75172116D01*
G37*
G36*
X163673365Y-75356030D02*
G01*
X163690255Y-75332855D01*
X163700597Y-75319692D01*
X163712360Y-75305836D01*
X163725661Y-75291554D01*
X163740617Y-75277112D01*
X163757348Y-75262777D01*
X163775969Y-75248818D01*
X163796598Y-75235500D01*
X163819354Y-75223091D01*
X163844352Y-75211859D01*
X163871712Y-75202070D01*
X163886313Y-75197800D01*
X163901549Y-75193991D01*
X163917434Y-75190676D01*
X163933983Y-75187890D01*
X163951210Y-75185664D01*
X163969129Y-75184033D01*
X163987757Y-75183030D01*
X164007107Y-75182688D01*
X164022992Y-75182933D01*
X164038516Y-75183654D01*
X164053680Y-75184834D01*
X164068486Y-75186455D01*
X164082933Y-75188498D01*
X164097024Y-75190947D01*
X164110760Y-75193782D01*
X164124142Y-75196987D01*
X164137172Y-75200542D01*
X164149850Y-75204430D01*
X164162179Y-75208634D01*
X164174158Y-75213134D01*
X164185790Y-75217913D01*
X164197076Y-75222953D01*
X164208016Y-75228236D01*
X164218613Y-75233745D01*
X164228867Y-75239460D01*
X164238781Y-75245364D01*
X164257588Y-75257668D01*
X164275046Y-75270513D01*
X164291164Y-75283754D01*
X164305952Y-75297248D01*
X164319421Y-75310851D01*
X164331580Y-75324419D01*
X164342439Y-75337808D01*
X164350064Y-75349040D01*
X164357487Y-75361396D01*
X164364666Y-75374872D01*
X164371563Y-75389465D01*
X164378137Y-75405173D01*
X164384349Y-75421991D01*
X164390158Y-75439916D01*
X164395525Y-75458946D01*
X164400410Y-75479078D01*
X164404773Y-75500307D01*
X164408574Y-75522631D01*
X164411774Y-75546047D01*
X164414332Y-75570551D01*
X164416208Y-75596140D01*
X164417363Y-75622811D01*
X164417757Y-75650562D01*
X164417757Y-76351513D01*
X164082424Y-76351513D01*
X164082424Y-75661956D01*
X164082053Y-75632117D01*
X164081172Y-75614142D01*
X164079459Y-75594723D01*
X164076634Y-75574304D01*
X164072421Y-75553330D01*
X164069707Y-75542773D01*
X164066542Y-75532244D01*
X164062890Y-75521798D01*
X164058718Y-75511491D01*
X164053991Y-75501379D01*
X164048673Y-75491516D01*
X164042731Y-75481959D01*
X164036129Y-75472763D01*
X164028833Y-75463983D01*
X164020808Y-75455675D01*
X164012019Y-75447895D01*
X164002432Y-75440698D01*
X163992012Y-75434140D01*
X163980724Y-75428276D01*
X163968534Y-75423162D01*
X163955406Y-75418853D01*
X163941307Y-75415405D01*
X163926201Y-75412873D01*
X163910054Y-75411313D01*
X163892831Y-75410781D01*
X163874563Y-75411440D01*
X163855924Y-75413488D01*
X163837126Y-75417028D01*
X163818384Y-75422163D01*
X163799912Y-75428997D01*
X163790843Y-75433083D01*
X163781923Y-75437634D01*
X163773177Y-75442660D01*
X163764632Y-75448177D01*
X163756315Y-75454196D01*
X163748252Y-75460730D01*
X163740471Y-75467793D01*
X163732998Y-75475397D01*
X163725860Y-75483555D01*
X163719084Y-75492281D01*
X163712696Y-75501587D01*
X163706723Y-75511486D01*
X163701192Y-75521991D01*
X163696130Y-75533116D01*
X163691563Y-75544872D01*
X163687518Y-75557274D01*
X163684022Y-75570333D01*
X163681102Y-75584063D01*
X163678784Y-75598478D01*
X163677095Y-75613589D01*
X163676062Y-75629409D01*
X163675712Y-75645953D01*
X163678102Y-76351513D01*
X163338161Y-76351513D01*
X163338161Y-74703212D01*
X163338158Y-74703210D01*
X163673365Y-74703210D01*
X163673365Y-75356030D01*
G37*
D12*
X152750000Y-99750000D03*
X152250000Y-99750000D03*
X151750000Y-99750000D03*
X151250000Y-99750000D03*
X150750000Y-99750000D03*
X150250000Y-99750000D03*
X149750000Y-99750000D03*
X149250000Y-99750000D03*
X148750000Y-99750000D03*
X148250000Y-99750000D03*
X147750000Y-99750000D03*
X147250000Y-99750000D03*
X144750000Y-99750000D03*
X144250000Y-99750000D03*
X143750000Y-99750000D03*
X143250000Y-99750000D03*
X142750000Y-99750000D03*
X142250000Y-99750000D03*
X141750000Y-99750000D03*
X141250000Y-99750000D03*
X140750000Y-99750000D03*
X140250000Y-99750000D03*
X139750000Y-99750000D03*
X139250000Y-99750000D03*
X138750000Y-99750000D03*
X138250000Y-99750000D03*
X137750000Y-99750000D03*
X137250000Y-99750000D03*
X136750000Y-99750000D03*
X136250000Y-99750000D03*
X135750000Y-99750000D03*
X135250000Y-99750000D03*
X134750000Y-99750000D03*
X134250000Y-99750000D03*
D13*
X143475000Y-71025000D03*
D14*
X132475000Y-74025000D03*
X132475000Y-76525000D03*
X132475000Y-79025000D03*
X132475000Y-81525000D03*
X132475000Y-84025000D03*
X132475000Y-86525000D03*
X132475000Y-89025000D03*
X132475000Y-91525000D03*
X132475000Y-94025000D03*
M02*
