%TF.GenerationSoftware,KiCad,Pcbnew,9.0.1*%
%TF.CreationDate,2025-04-25T16:07:37+02:00*%
%TF.ProjectId,M.2-Key-E-Breakout,4d2e322d-4b65-4792-9d45-2d427265616b,rev?*%
%TF.SameCoordinates,Original*%
%TF.FileFunction,Drillmap*%
%TF.FilePolarity,Positive*%
%FSLAX45Y45*%
G04 Gerber Fmt 4.5, Leading zero omitted, Abs format (unit mm)*
G04 Created by KiCad (PCBNEW 9.0.1) date 2025-04-25 16:07:37*
%MOMM*%
%LPD*%
G01*
G04 APERTURE LIST*
%ADD10C,0.100000*%
%ADD11C,0.050000*%
%ADD12C,0.200000*%
%ADD13C,0.350000*%
G04 APERTURE END LIST*
D10*
X13247500Y-7102500D02*
X13247500Y-9702500D01*
X13247500Y-7102500D02*
X14172500Y-7102500D01*
X13247500Y-9702500D02*
X13297500Y-9702500D01*
X13357500Y-9762500D02*
X13357500Y-10102500D01*
X13357500Y-10102500D02*
X14552500Y-10102500D01*
D11*
X14552500Y-10102500D02*
X14552500Y-9812500D01*
X14672500Y-9812500D02*
X14672500Y-10102500D01*
D10*
X14672500Y-10102500D02*
X15337500Y-10102500D01*
X15337500Y-9762500D02*
X15337500Y-10102500D01*
X15447500Y-7102500D02*
X14522500Y-7102500D01*
X15447500Y-7102500D02*
X15447500Y-9702500D01*
X15447500Y-9702500D02*
X15397500Y-9702500D01*
X13297500Y-9702500D02*
G75*
G02*
X13357500Y-9762500I0J-60000D01*
G01*
X14522500Y-7102500D02*
G75*
G02*
X14172500Y-7102500I-175000J0D01*
G01*
D11*
X14552500Y-9812500D02*
G75*
G02*
X14672500Y-9812500I60000J0D01*
G01*
D10*
X15337500Y-9762500D02*
G75*
G02*
X15397500Y-9702500I60000J0D01*
G01*
D12*
D10*
X13485000Y-7785000D02*
X13515000Y-7815000D01*
X13515000Y-7785000D02*
X13485000Y-7815000D01*
X13485000Y-8535000D02*
X13515000Y-8565000D01*
X13515000Y-8535000D02*
X13485000Y-8565000D01*
X13485000Y-9285000D02*
X13515000Y-9315000D01*
X13515000Y-9285000D02*
X13485000Y-9315000D01*
X13485000Y-9635000D02*
X13515000Y-9665000D01*
X13515000Y-9635000D02*
X13485000Y-9665000D01*
X13297500Y-7402500D02*
G75*
G02*
X13197500Y-7402500I-50000J0D01*
G01*
X13197500Y-7402500D02*
G75*
G02*
X13297500Y-7402500I50000J0D01*
G01*
X13297500Y-7652500D02*
G75*
G02*
X13197500Y-7652500I-50000J0D01*
G01*
X13197500Y-7652500D02*
G75*
G02*
X13297500Y-7652500I50000J0D01*
G01*
X13297500Y-7902500D02*
G75*
G02*
X13197500Y-7902500I-50000J0D01*
G01*
X13197500Y-7902500D02*
G75*
G02*
X13297500Y-7902500I50000J0D01*
G01*
X13297500Y-8152500D02*
G75*
G02*
X13197500Y-8152500I-50000J0D01*
G01*
X13197500Y-8152500D02*
G75*
G02*
X13297500Y-8152500I50000J0D01*
G01*
X13297500Y-8402500D02*
G75*
G02*
X13197500Y-8402500I-50000J0D01*
G01*
X13197500Y-8402500D02*
G75*
G02*
X13297500Y-8402500I50000J0D01*
G01*
X13297500Y-8652500D02*
G75*
G02*
X13197500Y-8652500I-50000J0D01*
G01*
X13197500Y-8652500D02*
G75*
G02*
X13297500Y-8652500I50000J0D01*
G01*
X13297500Y-8902500D02*
G75*
G02*
X13197500Y-8902500I-50000J0D01*
G01*
X13197500Y-8902500D02*
G75*
G02*
X13297500Y-8902500I50000J0D01*
G01*
X13297500Y-9152500D02*
G75*
G02*
X13197500Y-9152500I-50000J0D01*
G01*
X13197500Y-9152500D02*
G75*
G02*
X13297500Y-9152500I50000J0D01*
G01*
X13297500Y-9402500D02*
G75*
G02*
X13197500Y-9402500I-50000J0D01*
G01*
X13197500Y-9402500D02*
G75*
G02*
X13297500Y-9402500I50000J0D01*
G01*
D13*
X14347500Y-6927500D02*
X14347500Y-7277500D01*
X14172500Y-7102500D02*
X14522500Y-7102500D01*
D12*
X13503277Y-10418984D02*
X13503277Y-10218984D01*
X13503277Y-10218984D02*
X13550896Y-10218984D01*
X13550896Y-10218984D02*
X13579467Y-10228508D01*
X13579467Y-10228508D02*
X13598515Y-10247555D01*
X13598515Y-10247555D02*
X13608039Y-10266603D01*
X13608039Y-10266603D02*
X13617562Y-10304698D01*
X13617562Y-10304698D02*
X13617562Y-10333270D01*
X13617562Y-10333270D02*
X13608039Y-10371365D01*
X13608039Y-10371365D02*
X13598515Y-10390412D01*
X13598515Y-10390412D02*
X13579467Y-10409460D01*
X13579467Y-10409460D02*
X13550896Y-10418984D01*
X13550896Y-10418984D02*
X13503277Y-10418984D01*
X13703277Y-10418984D02*
X13703277Y-10285650D01*
X13703277Y-10323746D02*
X13712801Y-10304698D01*
X13712801Y-10304698D02*
X13722324Y-10295174D01*
X13722324Y-10295174D02*
X13741372Y-10285650D01*
X13741372Y-10285650D02*
X13760420Y-10285650D01*
X13827086Y-10418984D02*
X13827086Y-10285650D01*
X13827086Y-10218984D02*
X13817562Y-10228508D01*
X13817562Y-10228508D02*
X13827086Y-10238031D01*
X13827086Y-10238031D02*
X13836610Y-10228508D01*
X13836610Y-10228508D02*
X13827086Y-10218984D01*
X13827086Y-10218984D02*
X13827086Y-10238031D01*
X13950896Y-10418984D02*
X13931848Y-10409460D01*
X13931848Y-10409460D02*
X13922324Y-10390412D01*
X13922324Y-10390412D02*
X13922324Y-10218984D01*
X14055658Y-10418984D02*
X14036610Y-10409460D01*
X14036610Y-10409460D02*
X14027086Y-10390412D01*
X14027086Y-10390412D02*
X14027086Y-10218984D01*
X14284229Y-10418984D02*
X14284229Y-10218984D01*
X14284229Y-10218984D02*
X14350896Y-10361841D01*
X14350896Y-10361841D02*
X14417562Y-10218984D01*
X14417562Y-10218984D02*
X14417562Y-10418984D01*
X14598515Y-10418984D02*
X14598515Y-10314222D01*
X14598515Y-10314222D02*
X14588991Y-10295174D01*
X14588991Y-10295174D02*
X14569943Y-10285650D01*
X14569943Y-10285650D02*
X14531848Y-10285650D01*
X14531848Y-10285650D02*
X14512801Y-10295174D01*
X14598515Y-10409460D02*
X14579467Y-10418984D01*
X14579467Y-10418984D02*
X14531848Y-10418984D01*
X14531848Y-10418984D02*
X14512801Y-10409460D01*
X14512801Y-10409460D02*
X14503277Y-10390412D01*
X14503277Y-10390412D02*
X14503277Y-10371365D01*
X14503277Y-10371365D02*
X14512801Y-10352317D01*
X14512801Y-10352317D02*
X14531848Y-10342793D01*
X14531848Y-10342793D02*
X14579467Y-10342793D01*
X14579467Y-10342793D02*
X14598515Y-10333270D01*
X14693753Y-10285650D02*
X14693753Y-10485650D01*
X14693753Y-10295174D02*
X14712801Y-10285650D01*
X14712801Y-10285650D02*
X14750896Y-10285650D01*
X14750896Y-10285650D02*
X14769943Y-10295174D01*
X14769943Y-10295174D02*
X14779467Y-10304698D01*
X14779467Y-10304698D02*
X14788991Y-10323746D01*
X14788991Y-10323746D02*
X14788991Y-10380889D01*
X14788991Y-10380889D02*
X14779467Y-10399936D01*
X14779467Y-10399936D02*
X14769943Y-10409460D01*
X14769943Y-10409460D02*
X14750896Y-10418984D01*
X14750896Y-10418984D02*
X14712801Y-10418984D01*
X14712801Y-10418984D02*
X14693753Y-10409460D01*
X14874705Y-10399936D02*
X14884229Y-10409460D01*
X14884229Y-10409460D02*
X14874705Y-10418984D01*
X14874705Y-10418984D02*
X14865182Y-10409460D01*
X14865182Y-10409460D02*
X14874705Y-10399936D01*
X14874705Y-10399936D02*
X14874705Y-10418984D01*
X14874705Y-10295174D02*
X14884229Y-10304698D01*
X14884229Y-10304698D02*
X14874705Y-10314222D01*
X14874705Y-10314222D02*
X14865182Y-10304698D01*
X14865182Y-10304698D02*
X14874705Y-10295174D01*
X14874705Y-10295174D02*
X14874705Y-10314222D01*
D10*
X13212500Y-10732500D02*
X13242500Y-10762500D01*
X13242500Y-10732500D02*
X13212500Y-10762500D01*
D12*
X13541372Y-10638984D02*
X13560420Y-10638984D01*
X13560420Y-10638984D02*
X13579467Y-10648508D01*
X13579467Y-10648508D02*
X13588991Y-10658031D01*
X13588991Y-10658031D02*
X13598515Y-10677079D01*
X13598515Y-10677079D02*
X13608039Y-10715174D01*
X13608039Y-10715174D02*
X13608039Y-10762793D01*
X13608039Y-10762793D02*
X13598515Y-10800889D01*
X13598515Y-10800889D02*
X13588991Y-10819936D01*
X13588991Y-10819936D02*
X13579467Y-10829460D01*
X13579467Y-10829460D02*
X13560420Y-10838984D01*
X13560420Y-10838984D02*
X13541372Y-10838984D01*
X13541372Y-10838984D02*
X13522324Y-10829460D01*
X13522324Y-10829460D02*
X13512801Y-10819936D01*
X13512801Y-10819936D02*
X13503277Y-10800889D01*
X13503277Y-10800889D02*
X13493753Y-10762793D01*
X13493753Y-10762793D02*
X13493753Y-10715174D01*
X13493753Y-10715174D02*
X13503277Y-10677079D01*
X13503277Y-10677079D02*
X13512801Y-10658031D01*
X13512801Y-10658031D02*
X13522324Y-10648508D01*
X13522324Y-10648508D02*
X13541372Y-10638984D01*
X13693753Y-10819936D02*
X13703277Y-10829460D01*
X13703277Y-10829460D02*
X13693753Y-10838984D01*
X13693753Y-10838984D02*
X13684229Y-10829460D01*
X13684229Y-10829460D02*
X13693753Y-10819936D01*
X13693753Y-10819936D02*
X13693753Y-10838984D01*
X13769943Y-10638984D02*
X13893753Y-10638984D01*
X13893753Y-10638984D02*
X13827086Y-10715174D01*
X13827086Y-10715174D02*
X13855658Y-10715174D01*
X13855658Y-10715174D02*
X13874705Y-10724698D01*
X13874705Y-10724698D02*
X13884229Y-10734222D01*
X13884229Y-10734222D02*
X13893753Y-10753270D01*
X13893753Y-10753270D02*
X13893753Y-10800889D01*
X13893753Y-10800889D02*
X13884229Y-10819936D01*
X13884229Y-10819936D02*
X13874705Y-10829460D01*
X13874705Y-10829460D02*
X13855658Y-10838984D01*
X13855658Y-10838984D02*
X13798515Y-10838984D01*
X13798515Y-10838984D02*
X13779467Y-10829460D01*
X13779467Y-10829460D02*
X13769943Y-10819936D01*
X14017562Y-10638984D02*
X14036610Y-10638984D01*
X14036610Y-10638984D02*
X14055658Y-10648508D01*
X14055658Y-10648508D02*
X14065182Y-10658031D01*
X14065182Y-10658031D02*
X14074705Y-10677079D01*
X14074705Y-10677079D02*
X14084229Y-10715174D01*
X14084229Y-10715174D02*
X14084229Y-10762793D01*
X14084229Y-10762793D02*
X14074705Y-10800889D01*
X14074705Y-10800889D02*
X14065182Y-10819936D01*
X14065182Y-10819936D02*
X14055658Y-10829460D01*
X14055658Y-10829460D02*
X14036610Y-10838984D01*
X14036610Y-10838984D02*
X14017562Y-10838984D01*
X14017562Y-10838984D02*
X13998515Y-10829460D01*
X13998515Y-10829460D02*
X13988991Y-10819936D01*
X13988991Y-10819936D02*
X13979467Y-10800889D01*
X13979467Y-10800889D02*
X13969943Y-10762793D01*
X13969943Y-10762793D02*
X13969943Y-10715174D01*
X13969943Y-10715174D02*
X13979467Y-10677079D01*
X13979467Y-10677079D02*
X13988991Y-10658031D01*
X13988991Y-10658031D02*
X13998515Y-10648508D01*
X13998515Y-10648508D02*
X14017562Y-10638984D01*
X14208039Y-10638984D02*
X14227086Y-10638984D01*
X14227086Y-10638984D02*
X14246134Y-10648508D01*
X14246134Y-10648508D02*
X14255658Y-10658031D01*
X14255658Y-10658031D02*
X14265182Y-10677079D01*
X14265182Y-10677079D02*
X14274705Y-10715174D01*
X14274705Y-10715174D02*
X14274705Y-10762793D01*
X14274705Y-10762793D02*
X14265182Y-10800889D01*
X14265182Y-10800889D02*
X14255658Y-10819936D01*
X14255658Y-10819936D02*
X14246134Y-10829460D01*
X14246134Y-10829460D02*
X14227086Y-10838984D01*
X14227086Y-10838984D02*
X14208039Y-10838984D01*
X14208039Y-10838984D02*
X14188991Y-10829460D01*
X14188991Y-10829460D02*
X14179467Y-10819936D01*
X14179467Y-10819936D02*
X14169943Y-10800889D01*
X14169943Y-10800889D02*
X14160420Y-10762793D01*
X14160420Y-10762793D02*
X14160420Y-10715174D01*
X14160420Y-10715174D02*
X14169943Y-10677079D01*
X14169943Y-10677079D02*
X14179467Y-10658031D01*
X14179467Y-10658031D02*
X14188991Y-10648508D01*
X14188991Y-10648508D02*
X14208039Y-10638984D01*
X14360420Y-10838984D02*
X14360420Y-10705650D01*
X14360420Y-10724698D02*
X14369943Y-10715174D01*
X14369943Y-10715174D02*
X14388991Y-10705650D01*
X14388991Y-10705650D02*
X14417563Y-10705650D01*
X14417563Y-10705650D02*
X14436610Y-10715174D01*
X14436610Y-10715174D02*
X14446134Y-10734222D01*
X14446134Y-10734222D02*
X14446134Y-10838984D01*
X14446134Y-10734222D02*
X14455658Y-10715174D01*
X14455658Y-10715174D02*
X14474705Y-10705650D01*
X14474705Y-10705650D02*
X14503277Y-10705650D01*
X14503277Y-10705650D02*
X14522324Y-10715174D01*
X14522324Y-10715174D02*
X14531848Y-10734222D01*
X14531848Y-10734222D02*
X14531848Y-10838984D01*
X14627086Y-10838984D02*
X14627086Y-10705650D01*
X14627086Y-10724698D02*
X14636610Y-10715174D01*
X14636610Y-10715174D02*
X14655658Y-10705650D01*
X14655658Y-10705650D02*
X14684229Y-10705650D01*
X14684229Y-10705650D02*
X14703277Y-10715174D01*
X14703277Y-10715174D02*
X14712801Y-10734222D01*
X14712801Y-10734222D02*
X14712801Y-10838984D01*
X14712801Y-10734222D02*
X14722324Y-10715174D01*
X14722324Y-10715174D02*
X14741372Y-10705650D01*
X14741372Y-10705650D02*
X14769943Y-10705650D01*
X14769943Y-10705650D02*
X14788991Y-10715174D01*
X14788991Y-10715174D02*
X14798515Y-10734222D01*
X14798515Y-10734222D02*
X14798515Y-10838984D01*
X15188991Y-10629460D02*
X15017563Y-10886603D01*
X15446134Y-10638984D02*
X15465182Y-10638984D01*
X15465182Y-10638984D02*
X15484229Y-10648508D01*
X15484229Y-10648508D02*
X15493753Y-10658031D01*
X15493753Y-10658031D02*
X15503277Y-10677079D01*
X15503277Y-10677079D02*
X15512801Y-10715174D01*
X15512801Y-10715174D02*
X15512801Y-10762793D01*
X15512801Y-10762793D02*
X15503277Y-10800889D01*
X15503277Y-10800889D02*
X15493753Y-10819936D01*
X15493753Y-10819936D02*
X15484229Y-10829460D01*
X15484229Y-10829460D02*
X15465182Y-10838984D01*
X15465182Y-10838984D02*
X15446134Y-10838984D01*
X15446134Y-10838984D02*
X15427086Y-10829460D01*
X15427086Y-10829460D02*
X15417563Y-10819936D01*
X15417563Y-10819936D02*
X15408039Y-10800889D01*
X15408039Y-10800889D02*
X15398515Y-10762793D01*
X15398515Y-10762793D02*
X15398515Y-10715174D01*
X15398515Y-10715174D02*
X15408039Y-10677079D01*
X15408039Y-10677079D02*
X15417563Y-10658031D01*
X15417563Y-10658031D02*
X15427086Y-10648508D01*
X15427086Y-10648508D02*
X15446134Y-10638984D01*
X15598515Y-10819936D02*
X15608039Y-10829460D01*
X15608039Y-10829460D02*
X15598515Y-10838984D01*
X15598515Y-10838984D02*
X15588991Y-10829460D01*
X15588991Y-10829460D02*
X15598515Y-10819936D01*
X15598515Y-10819936D02*
X15598515Y-10838984D01*
X15731848Y-10638984D02*
X15750896Y-10638984D01*
X15750896Y-10638984D02*
X15769944Y-10648508D01*
X15769944Y-10648508D02*
X15779467Y-10658031D01*
X15779467Y-10658031D02*
X15788991Y-10677079D01*
X15788991Y-10677079D02*
X15798515Y-10715174D01*
X15798515Y-10715174D02*
X15798515Y-10762793D01*
X15798515Y-10762793D02*
X15788991Y-10800889D01*
X15788991Y-10800889D02*
X15779467Y-10819936D01*
X15779467Y-10819936D02*
X15769944Y-10829460D01*
X15769944Y-10829460D02*
X15750896Y-10838984D01*
X15750896Y-10838984D02*
X15731848Y-10838984D01*
X15731848Y-10838984D02*
X15712801Y-10829460D01*
X15712801Y-10829460D02*
X15703277Y-10819936D01*
X15703277Y-10819936D02*
X15693753Y-10800889D01*
X15693753Y-10800889D02*
X15684229Y-10762793D01*
X15684229Y-10762793D02*
X15684229Y-10715174D01*
X15684229Y-10715174D02*
X15693753Y-10677079D01*
X15693753Y-10677079D02*
X15703277Y-10658031D01*
X15703277Y-10658031D02*
X15712801Y-10648508D01*
X15712801Y-10648508D02*
X15731848Y-10638984D01*
X15988991Y-10838984D02*
X15874706Y-10838984D01*
X15931848Y-10838984D02*
X15931848Y-10638984D01*
X15931848Y-10638984D02*
X15912801Y-10667555D01*
X15912801Y-10667555D02*
X15893753Y-10686603D01*
X15893753Y-10686603D02*
X15874706Y-10696127D01*
X16179467Y-10838984D02*
X16065182Y-10838984D01*
X16122325Y-10838984D02*
X16122325Y-10638984D01*
X16122325Y-10638984D02*
X16103277Y-10667555D01*
X16103277Y-10667555D02*
X16084229Y-10686603D01*
X16084229Y-10686603D02*
X16065182Y-10696127D01*
X16293753Y-10724698D02*
X16274706Y-10715174D01*
X16274706Y-10715174D02*
X16265182Y-10705650D01*
X16265182Y-10705650D02*
X16255658Y-10686603D01*
X16255658Y-10686603D02*
X16255658Y-10677079D01*
X16255658Y-10677079D02*
X16265182Y-10658031D01*
X16265182Y-10658031D02*
X16274706Y-10648508D01*
X16274706Y-10648508D02*
X16293753Y-10638984D01*
X16293753Y-10638984D02*
X16331848Y-10638984D01*
X16331848Y-10638984D02*
X16350896Y-10648508D01*
X16350896Y-10648508D02*
X16360420Y-10658031D01*
X16360420Y-10658031D02*
X16369944Y-10677079D01*
X16369944Y-10677079D02*
X16369944Y-10686603D01*
X16369944Y-10686603D02*
X16360420Y-10705650D01*
X16360420Y-10705650D02*
X16350896Y-10715174D01*
X16350896Y-10715174D02*
X16331848Y-10724698D01*
X16331848Y-10724698D02*
X16293753Y-10724698D01*
X16293753Y-10724698D02*
X16274706Y-10734222D01*
X16274706Y-10734222D02*
X16265182Y-10743746D01*
X16265182Y-10743746D02*
X16255658Y-10762793D01*
X16255658Y-10762793D02*
X16255658Y-10800889D01*
X16255658Y-10800889D02*
X16265182Y-10819936D01*
X16265182Y-10819936D02*
X16274706Y-10829460D01*
X16274706Y-10829460D02*
X16293753Y-10838984D01*
X16293753Y-10838984D02*
X16331848Y-10838984D01*
X16331848Y-10838984D02*
X16350896Y-10829460D01*
X16350896Y-10829460D02*
X16360420Y-10819936D01*
X16360420Y-10819936D02*
X16369944Y-10800889D01*
X16369944Y-10800889D02*
X16369944Y-10762793D01*
X16369944Y-10762793D02*
X16360420Y-10743746D01*
X16360420Y-10743746D02*
X16350896Y-10734222D01*
X16350896Y-10734222D02*
X16331848Y-10724698D01*
X16446134Y-10638984D02*
X16446134Y-10677079D01*
X16522325Y-10638984D02*
X16522325Y-10677079D01*
X16817563Y-10915174D02*
X16808039Y-10905650D01*
X16808039Y-10905650D02*
X16788991Y-10877079D01*
X16788991Y-10877079D02*
X16779468Y-10858031D01*
X16779468Y-10858031D02*
X16769944Y-10829460D01*
X16769944Y-10829460D02*
X16760420Y-10781841D01*
X16760420Y-10781841D02*
X16760420Y-10743746D01*
X16760420Y-10743746D02*
X16769944Y-10696127D01*
X16769944Y-10696127D02*
X16779468Y-10667555D01*
X16779468Y-10667555D02*
X16788991Y-10648508D01*
X16788991Y-10648508D02*
X16808039Y-10619936D01*
X16808039Y-10619936D02*
X16817563Y-10610412D01*
X16979468Y-10705650D02*
X16979468Y-10838984D01*
X16931849Y-10629460D02*
X16884230Y-10772317D01*
X16884230Y-10772317D02*
X17008039Y-10772317D01*
X17236611Y-10838984D02*
X17236611Y-10638984D01*
X17322325Y-10838984D02*
X17322325Y-10734222D01*
X17322325Y-10734222D02*
X17312801Y-10715174D01*
X17312801Y-10715174D02*
X17293753Y-10705650D01*
X17293753Y-10705650D02*
X17265182Y-10705650D01*
X17265182Y-10705650D02*
X17246134Y-10715174D01*
X17246134Y-10715174D02*
X17236611Y-10724698D01*
X17446134Y-10838984D02*
X17427087Y-10829460D01*
X17427087Y-10829460D02*
X17417563Y-10819936D01*
X17417563Y-10819936D02*
X17408039Y-10800889D01*
X17408039Y-10800889D02*
X17408039Y-10743746D01*
X17408039Y-10743746D02*
X17417563Y-10724698D01*
X17417563Y-10724698D02*
X17427087Y-10715174D01*
X17427087Y-10715174D02*
X17446134Y-10705650D01*
X17446134Y-10705650D02*
X17474706Y-10705650D01*
X17474706Y-10705650D02*
X17493753Y-10715174D01*
X17493753Y-10715174D02*
X17503277Y-10724698D01*
X17503277Y-10724698D02*
X17512801Y-10743746D01*
X17512801Y-10743746D02*
X17512801Y-10800889D01*
X17512801Y-10800889D02*
X17503277Y-10819936D01*
X17503277Y-10819936D02*
X17493753Y-10829460D01*
X17493753Y-10829460D02*
X17474706Y-10838984D01*
X17474706Y-10838984D02*
X17446134Y-10838984D01*
X17627087Y-10838984D02*
X17608039Y-10829460D01*
X17608039Y-10829460D02*
X17598515Y-10810412D01*
X17598515Y-10810412D02*
X17598515Y-10638984D01*
X17779468Y-10829460D02*
X17760420Y-10838984D01*
X17760420Y-10838984D02*
X17722325Y-10838984D01*
X17722325Y-10838984D02*
X17703277Y-10829460D01*
X17703277Y-10829460D02*
X17693753Y-10810412D01*
X17693753Y-10810412D02*
X17693753Y-10734222D01*
X17693753Y-10734222D02*
X17703277Y-10715174D01*
X17703277Y-10715174D02*
X17722325Y-10705650D01*
X17722325Y-10705650D02*
X17760420Y-10705650D01*
X17760420Y-10705650D02*
X17779468Y-10715174D01*
X17779468Y-10715174D02*
X17788992Y-10734222D01*
X17788992Y-10734222D02*
X17788992Y-10753270D01*
X17788992Y-10753270D02*
X17693753Y-10772317D01*
X17865182Y-10829460D02*
X17884230Y-10838984D01*
X17884230Y-10838984D02*
X17922325Y-10838984D01*
X17922325Y-10838984D02*
X17941373Y-10829460D01*
X17941373Y-10829460D02*
X17950896Y-10810412D01*
X17950896Y-10810412D02*
X17950896Y-10800889D01*
X17950896Y-10800889D02*
X17941373Y-10781841D01*
X17941373Y-10781841D02*
X17922325Y-10772317D01*
X17922325Y-10772317D02*
X17893753Y-10772317D01*
X17893753Y-10772317D02*
X17874706Y-10762793D01*
X17874706Y-10762793D02*
X17865182Y-10743746D01*
X17865182Y-10743746D02*
X17865182Y-10734222D01*
X17865182Y-10734222D02*
X17874706Y-10715174D01*
X17874706Y-10715174D02*
X17893753Y-10705650D01*
X17893753Y-10705650D02*
X17922325Y-10705650D01*
X17922325Y-10705650D02*
X17941373Y-10715174D01*
X18017563Y-10915174D02*
X18027087Y-10905650D01*
X18027087Y-10905650D02*
X18046134Y-10877079D01*
X18046134Y-10877079D02*
X18055658Y-10858031D01*
X18055658Y-10858031D02*
X18065182Y-10829460D01*
X18065182Y-10829460D02*
X18074706Y-10781841D01*
X18074706Y-10781841D02*
X18074706Y-10743746D01*
X18074706Y-10743746D02*
X18065182Y-10696127D01*
X18065182Y-10696127D02*
X18055658Y-10667555D01*
X18055658Y-10667555D02*
X18046134Y-10648508D01*
X18046134Y-10648508D02*
X18027087Y-10619936D01*
X18027087Y-10619936D02*
X18017563Y-10610412D01*
D10*
X13242500Y-11011500D02*
G75*
G02*
X13142500Y-11011500I-50000J0D01*
G01*
X13142500Y-11011500D02*
G75*
G02*
X13242500Y-11011500I50000J0D01*
G01*
D12*
X13608039Y-11102984D02*
X13493753Y-11102984D01*
X13550896Y-11102984D02*
X13550896Y-10902984D01*
X13550896Y-10902984D02*
X13531848Y-10931555D01*
X13531848Y-10931555D02*
X13512801Y-10950603D01*
X13512801Y-10950603D02*
X13493753Y-10960127D01*
X13693753Y-11083936D02*
X13703277Y-11093460D01*
X13703277Y-11093460D02*
X13693753Y-11102984D01*
X13693753Y-11102984D02*
X13684229Y-11093460D01*
X13684229Y-11093460D02*
X13693753Y-11083936D01*
X13693753Y-11083936D02*
X13693753Y-11102984D01*
X13827086Y-10902984D02*
X13846134Y-10902984D01*
X13846134Y-10902984D02*
X13865182Y-10912508D01*
X13865182Y-10912508D02*
X13874705Y-10922031D01*
X13874705Y-10922031D02*
X13884229Y-10941079D01*
X13884229Y-10941079D02*
X13893753Y-10979174D01*
X13893753Y-10979174D02*
X13893753Y-11026793D01*
X13893753Y-11026793D02*
X13884229Y-11064889D01*
X13884229Y-11064889D02*
X13874705Y-11083936D01*
X13874705Y-11083936D02*
X13865182Y-11093460D01*
X13865182Y-11093460D02*
X13846134Y-11102984D01*
X13846134Y-11102984D02*
X13827086Y-11102984D01*
X13827086Y-11102984D02*
X13808039Y-11093460D01*
X13808039Y-11093460D02*
X13798515Y-11083936D01*
X13798515Y-11083936D02*
X13788991Y-11064889D01*
X13788991Y-11064889D02*
X13779467Y-11026793D01*
X13779467Y-11026793D02*
X13779467Y-10979174D01*
X13779467Y-10979174D02*
X13788991Y-10941079D01*
X13788991Y-10941079D02*
X13798515Y-10922031D01*
X13798515Y-10922031D02*
X13808039Y-10912508D01*
X13808039Y-10912508D02*
X13827086Y-10902984D01*
X14017562Y-10902984D02*
X14036610Y-10902984D01*
X14036610Y-10902984D02*
X14055658Y-10912508D01*
X14055658Y-10912508D02*
X14065182Y-10922031D01*
X14065182Y-10922031D02*
X14074705Y-10941079D01*
X14074705Y-10941079D02*
X14084229Y-10979174D01*
X14084229Y-10979174D02*
X14084229Y-11026793D01*
X14084229Y-11026793D02*
X14074705Y-11064889D01*
X14074705Y-11064889D02*
X14065182Y-11083936D01*
X14065182Y-11083936D02*
X14055658Y-11093460D01*
X14055658Y-11093460D02*
X14036610Y-11102984D01*
X14036610Y-11102984D02*
X14017562Y-11102984D01*
X14017562Y-11102984D02*
X13998515Y-11093460D01*
X13998515Y-11093460D02*
X13988991Y-11083936D01*
X13988991Y-11083936D02*
X13979467Y-11064889D01*
X13979467Y-11064889D02*
X13969943Y-11026793D01*
X13969943Y-11026793D02*
X13969943Y-10979174D01*
X13969943Y-10979174D02*
X13979467Y-10941079D01*
X13979467Y-10941079D02*
X13988991Y-10922031D01*
X13988991Y-10922031D02*
X13998515Y-10912508D01*
X13998515Y-10912508D02*
X14017562Y-10902984D01*
X14208039Y-10902984D02*
X14227086Y-10902984D01*
X14227086Y-10902984D02*
X14246134Y-10912508D01*
X14246134Y-10912508D02*
X14255658Y-10922031D01*
X14255658Y-10922031D02*
X14265182Y-10941079D01*
X14265182Y-10941079D02*
X14274705Y-10979174D01*
X14274705Y-10979174D02*
X14274705Y-11026793D01*
X14274705Y-11026793D02*
X14265182Y-11064889D01*
X14265182Y-11064889D02*
X14255658Y-11083936D01*
X14255658Y-11083936D02*
X14246134Y-11093460D01*
X14246134Y-11093460D02*
X14227086Y-11102984D01*
X14227086Y-11102984D02*
X14208039Y-11102984D01*
X14208039Y-11102984D02*
X14188991Y-11093460D01*
X14188991Y-11093460D02*
X14179467Y-11083936D01*
X14179467Y-11083936D02*
X14169943Y-11064889D01*
X14169943Y-11064889D02*
X14160420Y-11026793D01*
X14160420Y-11026793D02*
X14160420Y-10979174D01*
X14160420Y-10979174D02*
X14169943Y-10941079D01*
X14169943Y-10941079D02*
X14179467Y-10922031D01*
X14179467Y-10922031D02*
X14188991Y-10912508D01*
X14188991Y-10912508D02*
X14208039Y-10902984D01*
X14360420Y-11102984D02*
X14360420Y-10969650D01*
X14360420Y-10988698D02*
X14369943Y-10979174D01*
X14369943Y-10979174D02*
X14388991Y-10969650D01*
X14388991Y-10969650D02*
X14417563Y-10969650D01*
X14417563Y-10969650D02*
X14436610Y-10979174D01*
X14436610Y-10979174D02*
X14446134Y-10998222D01*
X14446134Y-10998222D02*
X14446134Y-11102984D01*
X14446134Y-10998222D02*
X14455658Y-10979174D01*
X14455658Y-10979174D02*
X14474705Y-10969650D01*
X14474705Y-10969650D02*
X14503277Y-10969650D01*
X14503277Y-10969650D02*
X14522324Y-10979174D01*
X14522324Y-10979174D02*
X14531848Y-10998222D01*
X14531848Y-10998222D02*
X14531848Y-11102984D01*
X14627086Y-11102984D02*
X14627086Y-10969650D01*
X14627086Y-10988698D02*
X14636610Y-10979174D01*
X14636610Y-10979174D02*
X14655658Y-10969650D01*
X14655658Y-10969650D02*
X14684229Y-10969650D01*
X14684229Y-10969650D02*
X14703277Y-10979174D01*
X14703277Y-10979174D02*
X14712801Y-10998222D01*
X14712801Y-10998222D02*
X14712801Y-11102984D01*
X14712801Y-10998222D02*
X14722324Y-10979174D01*
X14722324Y-10979174D02*
X14741372Y-10969650D01*
X14741372Y-10969650D02*
X14769943Y-10969650D01*
X14769943Y-10969650D02*
X14788991Y-10979174D01*
X14788991Y-10979174D02*
X14798515Y-10998222D01*
X14798515Y-10998222D02*
X14798515Y-11102984D01*
X15188991Y-10893460D02*
X15017563Y-11150603D01*
X15446134Y-10902984D02*
X15465182Y-10902984D01*
X15465182Y-10902984D02*
X15484229Y-10912508D01*
X15484229Y-10912508D02*
X15493753Y-10922031D01*
X15493753Y-10922031D02*
X15503277Y-10941079D01*
X15503277Y-10941079D02*
X15512801Y-10979174D01*
X15512801Y-10979174D02*
X15512801Y-11026793D01*
X15512801Y-11026793D02*
X15503277Y-11064889D01*
X15503277Y-11064889D02*
X15493753Y-11083936D01*
X15493753Y-11083936D02*
X15484229Y-11093460D01*
X15484229Y-11093460D02*
X15465182Y-11102984D01*
X15465182Y-11102984D02*
X15446134Y-11102984D01*
X15446134Y-11102984D02*
X15427086Y-11093460D01*
X15427086Y-11093460D02*
X15417563Y-11083936D01*
X15417563Y-11083936D02*
X15408039Y-11064889D01*
X15408039Y-11064889D02*
X15398515Y-11026793D01*
X15398515Y-11026793D02*
X15398515Y-10979174D01*
X15398515Y-10979174D02*
X15408039Y-10941079D01*
X15408039Y-10941079D02*
X15417563Y-10922031D01*
X15417563Y-10922031D02*
X15427086Y-10912508D01*
X15427086Y-10912508D02*
X15446134Y-10902984D01*
X15598515Y-11083936D02*
X15608039Y-11093460D01*
X15608039Y-11093460D02*
X15598515Y-11102984D01*
X15598515Y-11102984D02*
X15588991Y-11093460D01*
X15588991Y-11093460D02*
X15598515Y-11083936D01*
X15598515Y-11083936D02*
X15598515Y-11102984D01*
X15731848Y-10902984D02*
X15750896Y-10902984D01*
X15750896Y-10902984D02*
X15769944Y-10912508D01*
X15769944Y-10912508D02*
X15779467Y-10922031D01*
X15779467Y-10922031D02*
X15788991Y-10941079D01*
X15788991Y-10941079D02*
X15798515Y-10979174D01*
X15798515Y-10979174D02*
X15798515Y-11026793D01*
X15798515Y-11026793D02*
X15788991Y-11064889D01*
X15788991Y-11064889D02*
X15779467Y-11083936D01*
X15779467Y-11083936D02*
X15769944Y-11093460D01*
X15769944Y-11093460D02*
X15750896Y-11102984D01*
X15750896Y-11102984D02*
X15731848Y-11102984D01*
X15731848Y-11102984D02*
X15712801Y-11093460D01*
X15712801Y-11093460D02*
X15703277Y-11083936D01*
X15703277Y-11083936D02*
X15693753Y-11064889D01*
X15693753Y-11064889D02*
X15684229Y-11026793D01*
X15684229Y-11026793D02*
X15684229Y-10979174D01*
X15684229Y-10979174D02*
X15693753Y-10941079D01*
X15693753Y-10941079D02*
X15703277Y-10922031D01*
X15703277Y-10922031D02*
X15712801Y-10912508D01*
X15712801Y-10912508D02*
X15731848Y-10902984D01*
X15865182Y-10902984D02*
X15988991Y-10902984D01*
X15988991Y-10902984D02*
X15922325Y-10979174D01*
X15922325Y-10979174D02*
X15950896Y-10979174D01*
X15950896Y-10979174D02*
X15969944Y-10988698D01*
X15969944Y-10988698D02*
X15979467Y-10998222D01*
X15979467Y-10998222D02*
X15988991Y-11017270D01*
X15988991Y-11017270D02*
X15988991Y-11064889D01*
X15988991Y-11064889D02*
X15979467Y-11083936D01*
X15979467Y-11083936D02*
X15969944Y-11093460D01*
X15969944Y-11093460D02*
X15950896Y-11102984D01*
X15950896Y-11102984D02*
X15893753Y-11102984D01*
X15893753Y-11102984D02*
X15874706Y-11093460D01*
X15874706Y-11093460D02*
X15865182Y-11083936D01*
X16084229Y-11102984D02*
X16122325Y-11102984D01*
X16122325Y-11102984D02*
X16141372Y-11093460D01*
X16141372Y-11093460D02*
X16150896Y-11083936D01*
X16150896Y-11083936D02*
X16169944Y-11055365D01*
X16169944Y-11055365D02*
X16179467Y-11017270D01*
X16179467Y-11017270D02*
X16179467Y-10941079D01*
X16179467Y-10941079D02*
X16169944Y-10922031D01*
X16169944Y-10922031D02*
X16160420Y-10912508D01*
X16160420Y-10912508D02*
X16141372Y-10902984D01*
X16141372Y-10902984D02*
X16103277Y-10902984D01*
X16103277Y-10902984D02*
X16084229Y-10912508D01*
X16084229Y-10912508D02*
X16074706Y-10922031D01*
X16074706Y-10922031D02*
X16065182Y-10941079D01*
X16065182Y-10941079D02*
X16065182Y-10988698D01*
X16065182Y-10988698D02*
X16074706Y-11007746D01*
X16074706Y-11007746D02*
X16084229Y-11017270D01*
X16084229Y-11017270D02*
X16103277Y-11026793D01*
X16103277Y-11026793D02*
X16141372Y-11026793D01*
X16141372Y-11026793D02*
X16160420Y-11017270D01*
X16160420Y-11017270D02*
X16169944Y-11007746D01*
X16169944Y-11007746D02*
X16179467Y-10988698D01*
X16350896Y-10969650D02*
X16350896Y-11102984D01*
X16303277Y-10893460D02*
X16255658Y-11036317D01*
X16255658Y-11036317D02*
X16379467Y-11036317D01*
X16446134Y-10902984D02*
X16446134Y-10941079D01*
X16522325Y-10902984D02*
X16522325Y-10941079D01*
X16817563Y-11179174D02*
X16808039Y-11169650D01*
X16808039Y-11169650D02*
X16788991Y-11141079D01*
X16788991Y-11141079D02*
X16779468Y-11122031D01*
X16779468Y-11122031D02*
X16769944Y-11093460D01*
X16769944Y-11093460D02*
X16760420Y-11045841D01*
X16760420Y-11045841D02*
X16760420Y-11007746D01*
X16760420Y-11007746D02*
X16769944Y-10960127D01*
X16769944Y-10960127D02*
X16779468Y-10931555D01*
X16779468Y-10931555D02*
X16788991Y-10912508D01*
X16788991Y-10912508D02*
X16808039Y-10883936D01*
X16808039Y-10883936D02*
X16817563Y-10874412D01*
X16903277Y-11102984D02*
X16941372Y-11102984D01*
X16941372Y-11102984D02*
X16960420Y-11093460D01*
X16960420Y-11093460D02*
X16969944Y-11083936D01*
X16969944Y-11083936D02*
X16988991Y-11055365D01*
X16988991Y-11055365D02*
X16998515Y-11017270D01*
X16998515Y-11017270D02*
X16998515Y-10941079D01*
X16998515Y-10941079D02*
X16988991Y-10922031D01*
X16988991Y-10922031D02*
X16979468Y-10912508D01*
X16979468Y-10912508D02*
X16960420Y-10902984D01*
X16960420Y-10902984D02*
X16922325Y-10902984D01*
X16922325Y-10902984D02*
X16903277Y-10912508D01*
X16903277Y-10912508D02*
X16893753Y-10922031D01*
X16893753Y-10922031D02*
X16884230Y-10941079D01*
X16884230Y-10941079D02*
X16884230Y-10988698D01*
X16884230Y-10988698D02*
X16893753Y-11007746D01*
X16893753Y-11007746D02*
X16903277Y-11017270D01*
X16903277Y-11017270D02*
X16922325Y-11026793D01*
X16922325Y-11026793D02*
X16960420Y-11026793D01*
X16960420Y-11026793D02*
X16979468Y-11017270D01*
X16979468Y-11017270D02*
X16988991Y-11007746D01*
X16988991Y-11007746D02*
X16998515Y-10988698D01*
X17236611Y-11102984D02*
X17236611Y-10902984D01*
X17322325Y-11102984D02*
X17322325Y-10998222D01*
X17322325Y-10998222D02*
X17312801Y-10979174D01*
X17312801Y-10979174D02*
X17293753Y-10969650D01*
X17293753Y-10969650D02*
X17265182Y-10969650D01*
X17265182Y-10969650D02*
X17246134Y-10979174D01*
X17246134Y-10979174D02*
X17236611Y-10988698D01*
X17446134Y-11102984D02*
X17427087Y-11093460D01*
X17427087Y-11093460D02*
X17417563Y-11083936D01*
X17417563Y-11083936D02*
X17408039Y-11064889D01*
X17408039Y-11064889D02*
X17408039Y-11007746D01*
X17408039Y-11007746D02*
X17417563Y-10988698D01*
X17417563Y-10988698D02*
X17427087Y-10979174D01*
X17427087Y-10979174D02*
X17446134Y-10969650D01*
X17446134Y-10969650D02*
X17474706Y-10969650D01*
X17474706Y-10969650D02*
X17493753Y-10979174D01*
X17493753Y-10979174D02*
X17503277Y-10988698D01*
X17503277Y-10988698D02*
X17512801Y-11007746D01*
X17512801Y-11007746D02*
X17512801Y-11064889D01*
X17512801Y-11064889D02*
X17503277Y-11083936D01*
X17503277Y-11083936D02*
X17493753Y-11093460D01*
X17493753Y-11093460D02*
X17474706Y-11102984D01*
X17474706Y-11102984D02*
X17446134Y-11102984D01*
X17627087Y-11102984D02*
X17608039Y-11093460D01*
X17608039Y-11093460D02*
X17598515Y-11074412D01*
X17598515Y-11074412D02*
X17598515Y-10902984D01*
X17779468Y-11093460D02*
X17760420Y-11102984D01*
X17760420Y-11102984D02*
X17722325Y-11102984D01*
X17722325Y-11102984D02*
X17703277Y-11093460D01*
X17703277Y-11093460D02*
X17693753Y-11074412D01*
X17693753Y-11074412D02*
X17693753Y-10998222D01*
X17693753Y-10998222D02*
X17703277Y-10979174D01*
X17703277Y-10979174D02*
X17722325Y-10969650D01*
X17722325Y-10969650D02*
X17760420Y-10969650D01*
X17760420Y-10969650D02*
X17779468Y-10979174D01*
X17779468Y-10979174D02*
X17788992Y-10998222D01*
X17788992Y-10998222D02*
X17788992Y-11017270D01*
X17788992Y-11017270D02*
X17693753Y-11036317D01*
X17865182Y-11093460D02*
X17884230Y-11102984D01*
X17884230Y-11102984D02*
X17922325Y-11102984D01*
X17922325Y-11102984D02*
X17941373Y-11093460D01*
X17941373Y-11093460D02*
X17950896Y-11074412D01*
X17950896Y-11074412D02*
X17950896Y-11064889D01*
X17950896Y-11064889D02*
X17941373Y-11045841D01*
X17941373Y-11045841D02*
X17922325Y-11036317D01*
X17922325Y-11036317D02*
X17893753Y-11036317D01*
X17893753Y-11036317D02*
X17874706Y-11026793D01*
X17874706Y-11026793D02*
X17865182Y-11007746D01*
X17865182Y-11007746D02*
X17865182Y-10998222D01*
X17865182Y-10998222D02*
X17874706Y-10979174D01*
X17874706Y-10979174D02*
X17893753Y-10969650D01*
X17893753Y-10969650D02*
X17922325Y-10969650D01*
X17922325Y-10969650D02*
X17941373Y-10979174D01*
X18017563Y-11179174D02*
X18027087Y-11169650D01*
X18027087Y-11169650D02*
X18046134Y-11141079D01*
X18046134Y-11141079D02*
X18055658Y-11122031D01*
X18055658Y-11122031D02*
X18065182Y-11093460D01*
X18065182Y-11093460D02*
X18074706Y-11045841D01*
X18074706Y-11045841D02*
X18074706Y-11007746D01*
X18074706Y-11007746D02*
X18065182Y-10960127D01*
X18065182Y-10960127D02*
X18055658Y-10931555D01*
X18055658Y-10931555D02*
X18046134Y-10912508D01*
X18046134Y-10912508D02*
X18027087Y-10883936D01*
X18027087Y-10883936D02*
X18017563Y-10874412D01*
X13142500Y-11175500D02*
X13142500Y-11375500D01*
X13042500Y-11275500D02*
X13242500Y-11275500D01*
X13484229Y-11166984D02*
X13608039Y-11166984D01*
X13608039Y-11166984D02*
X13541372Y-11243174D01*
X13541372Y-11243174D02*
X13569943Y-11243174D01*
X13569943Y-11243174D02*
X13588991Y-11252698D01*
X13588991Y-11252698D02*
X13598515Y-11262222D01*
X13598515Y-11262222D02*
X13608039Y-11281269D01*
X13608039Y-11281269D02*
X13608039Y-11328888D01*
X13608039Y-11328888D02*
X13598515Y-11347936D01*
X13598515Y-11347936D02*
X13588991Y-11357460D01*
X13588991Y-11357460D02*
X13569943Y-11366984D01*
X13569943Y-11366984D02*
X13512801Y-11366984D01*
X13512801Y-11366984D02*
X13493753Y-11357460D01*
X13493753Y-11357460D02*
X13484229Y-11347936D01*
X13693753Y-11347936D02*
X13703277Y-11357460D01*
X13703277Y-11357460D02*
X13693753Y-11366984D01*
X13693753Y-11366984D02*
X13684229Y-11357460D01*
X13684229Y-11357460D02*
X13693753Y-11347936D01*
X13693753Y-11347936D02*
X13693753Y-11366984D01*
X13884229Y-11166984D02*
X13788991Y-11166984D01*
X13788991Y-11166984D02*
X13779467Y-11262222D01*
X13779467Y-11262222D02*
X13788991Y-11252698D01*
X13788991Y-11252698D02*
X13808039Y-11243174D01*
X13808039Y-11243174D02*
X13855658Y-11243174D01*
X13855658Y-11243174D02*
X13874705Y-11252698D01*
X13874705Y-11252698D02*
X13884229Y-11262222D01*
X13884229Y-11262222D02*
X13893753Y-11281269D01*
X13893753Y-11281269D02*
X13893753Y-11328888D01*
X13893753Y-11328888D02*
X13884229Y-11347936D01*
X13884229Y-11347936D02*
X13874705Y-11357460D01*
X13874705Y-11357460D02*
X13855658Y-11366984D01*
X13855658Y-11366984D02*
X13808039Y-11366984D01*
X13808039Y-11366984D02*
X13788991Y-11357460D01*
X13788991Y-11357460D02*
X13779467Y-11347936D01*
X14017562Y-11166984D02*
X14036610Y-11166984D01*
X14036610Y-11166984D02*
X14055658Y-11176508D01*
X14055658Y-11176508D02*
X14065182Y-11186031D01*
X14065182Y-11186031D02*
X14074705Y-11205079D01*
X14074705Y-11205079D02*
X14084229Y-11243174D01*
X14084229Y-11243174D02*
X14084229Y-11290793D01*
X14084229Y-11290793D02*
X14074705Y-11328888D01*
X14074705Y-11328888D02*
X14065182Y-11347936D01*
X14065182Y-11347936D02*
X14055658Y-11357460D01*
X14055658Y-11357460D02*
X14036610Y-11366984D01*
X14036610Y-11366984D02*
X14017562Y-11366984D01*
X14017562Y-11366984D02*
X13998515Y-11357460D01*
X13998515Y-11357460D02*
X13988991Y-11347936D01*
X13988991Y-11347936D02*
X13979467Y-11328888D01*
X13979467Y-11328888D02*
X13969943Y-11290793D01*
X13969943Y-11290793D02*
X13969943Y-11243174D01*
X13969943Y-11243174D02*
X13979467Y-11205079D01*
X13979467Y-11205079D02*
X13988991Y-11186031D01*
X13988991Y-11186031D02*
X13998515Y-11176508D01*
X13998515Y-11176508D02*
X14017562Y-11166984D01*
X14208039Y-11166984D02*
X14227086Y-11166984D01*
X14227086Y-11166984D02*
X14246134Y-11176508D01*
X14246134Y-11176508D02*
X14255658Y-11186031D01*
X14255658Y-11186031D02*
X14265182Y-11205079D01*
X14265182Y-11205079D02*
X14274705Y-11243174D01*
X14274705Y-11243174D02*
X14274705Y-11290793D01*
X14274705Y-11290793D02*
X14265182Y-11328888D01*
X14265182Y-11328888D02*
X14255658Y-11347936D01*
X14255658Y-11347936D02*
X14246134Y-11357460D01*
X14246134Y-11357460D02*
X14227086Y-11366984D01*
X14227086Y-11366984D02*
X14208039Y-11366984D01*
X14208039Y-11366984D02*
X14188991Y-11357460D01*
X14188991Y-11357460D02*
X14179467Y-11347936D01*
X14179467Y-11347936D02*
X14169943Y-11328888D01*
X14169943Y-11328888D02*
X14160420Y-11290793D01*
X14160420Y-11290793D02*
X14160420Y-11243174D01*
X14160420Y-11243174D02*
X14169943Y-11205079D01*
X14169943Y-11205079D02*
X14179467Y-11186031D01*
X14179467Y-11186031D02*
X14188991Y-11176508D01*
X14188991Y-11176508D02*
X14208039Y-11166984D01*
X14360420Y-11366984D02*
X14360420Y-11233650D01*
X14360420Y-11252698D02*
X14369943Y-11243174D01*
X14369943Y-11243174D02*
X14388991Y-11233650D01*
X14388991Y-11233650D02*
X14417563Y-11233650D01*
X14417563Y-11233650D02*
X14436610Y-11243174D01*
X14436610Y-11243174D02*
X14446134Y-11262222D01*
X14446134Y-11262222D02*
X14446134Y-11366984D01*
X14446134Y-11262222D02*
X14455658Y-11243174D01*
X14455658Y-11243174D02*
X14474705Y-11233650D01*
X14474705Y-11233650D02*
X14503277Y-11233650D01*
X14503277Y-11233650D02*
X14522324Y-11243174D01*
X14522324Y-11243174D02*
X14531848Y-11262222D01*
X14531848Y-11262222D02*
X14531848Y-11366984D01*
X14627086Y-11366984D02*
X14627086Y-11233650D01*
X14627086Y-11252698D02*
X14636610Y-11243174D01*
X14636610Y-11243174D02*
X14655658Y-11233650D01*
X14655658Y-11233650D02*
X14684229Y-11233650D01*
X14684229Y-11233650D02*
X14703277Y-11243174D01*
X14703277Y-11243174D02*
X14712801Y-11262222D01*
X14712801Y-11262222D02*
X14712801Y-11366984D01*
X14712801Y-11262222D02*
X14722324Y-11243174D01*
X14722324Y-11243174D02*
X14741372Y-11233650D01*
X14741372Y-11233650D02*
X14769943Y-11233650D01*
X14769943Y-11233650D02*
X14788991Y-11243174D01*
X14788991Y-11243174D02*
X14798515Y-11262222D01*
X14798515Y-11262222D02*
X14798515Y-11366984D01*
X15188991Y-11157460D02*
X15017563Y-11414603D01*
X15446134Y-11166984D02*
X15465182Y-11166984D01*
X15465182Y-11166984D02*
X15484229Y-11176508D01*
X15484229Y-11176508D02*
X15493753Y-11186031D01*
X15493753Y-11186031D02*
X15503277Y-11205079D01*
X15503277Y-11205079D02*
X15512801Y-11243174D01*
X15512801Y-11243174D02*
X15512801Y-11290793D01*
X15512801Y-11290793D02*
X15503277Y-11328888D01*
X15503277Y-11328888D02*
X15493753Y-11347936D01*
X15493753Y-11347936D02*
X15484229Y-11357460D01*
X15484229Y-11357460D02*
X15465182Y-11366984D01*
X15465182Y-11366984D02*
X15446134Y-11366984D01*
X15446134Y-11366984D02*
X15427086Y-11357460D01*
X15427086Y-11357460D02*
X15417563Y-11347936D01*
X15417563Y-11347936D02*
X15408039Y-11328888D01*
X15408039Y-11328888D02*
X15398515Y-11290793D01*
X15398515Y-11290793D02*
X15398515Y-11243174D01*
X15398515Y-11243174D02*
X15408039Y-11205079D01*
X15408039Y-11205079D02*
X15417563Y-11186031D01*
X15417563Y-11186031D02*
X15427086Y-11176508D01*
X15427086Y-11176508D02*
X15446134Y-11166984D01*
X15598515Y-11347936D02*
X15608039Y-11357460D01*
X15608039Y-11357460D02*
X15598515Y-11366984D01*
X15598515Y-11366984D02*
X15588991Y-11357460D01*
X15588991Y-11357460D02*
X15598515Y-11347936D01*
X15598515Y-11347936D02*
X15598515Y-11366984D01*
X15798515Y-11366984D02*
X15684229Y-11366984D01*
X15741372Y-11366984D02*
X15741372Y-11166984D01*
X15741372Y-11166984D02*
X15722325Y-11195555D01*
X15722325Y-11195555D02*
X15703277Y-11214603D01*
X15703277Y-11214603D02*
X15684229Y-11224127D01*
X15865182Y-11166984D02*
X15988991Y-11166984D01*
X15988991Y-11166984D02*
X15922325Y-11243174D01*
X15922325Y-11243174D02*
X15950896Y-11243174D01*
X15950896Y-11243174D02*
X15969944Y-11252698D01*
X15969944Y-11252698D02*
X15979467Y-11262222D01*
X15979467Y-11262222D02*
X15988991Y-11281269D01*
X15988991Y-11281269D02*
X15988991Y-11328888D01*
X15988991Y-11328888D02*
X15979467Y-11347936D01*
X15979467Y-11347936D02*
X15969944Y-11357460D01*
X15969944Y-11357460D02*
X15950896Y-11366984D01*
X15950896Y-11366984D02*
X15893753Y-11366984D01*
X15893753Y-11366984D02*
X15874706Y-11357460D01*
X15874706Y-11357460D02*
X15865182Y-11347936D01*
X16055658Y-11166984D02*
X16188991Y-11166984D01*
X16188991Y-11166984D02*
X16103277Y-11366984D01*
X16293753Y-11252698D02*
X16274706Y-11243174D01*
X16274706Y-11243174D02*
X16265182Y-11233650D01*
X16265182Y-11233650D02*
X16255658Y-11214603D01*
X16255658Y-11214603D02*
X16255658Y-11205079D01*
X16255658Y-11205079D02*
X16265182Y-11186031D01*
X16265182Y-11186031D02*
X16274706Y-11176508D01*
X16274706Y-11176508D02*
X16293753Y-11166984D01*
X16293753Y-11166984D02*
X16331848Y-11166984D01*
X16331848Y-11166984D02*
X16350896Y-11176508D01*
X16350896Y-11176508D02*
X16360420Y-11186031D01*
X16360420Y-11186031D02*
X16369944Y-11205079D01*
X16369944Y-11205079D02*
X16369944Y-11214603D01*
X16369944Y-11214603D02*
X16360420Y-11233650D01*
X16360420Y-11233650D02*
X16350896Y-11243174D01*
X16350896Y-11243174D02*
X16331848Y-11252698D01*
X16331848Y-11252698D02*
X16293753Y-11252698D01*
X16293753Y-11252698D02*
X16274706Y-11262222D01*
X16274706Y-11262222D02*
X16265182Y-11271746D01*
X16265182Y-11271746D02*
X16255658Y-11290793D01*
X16255658Y-11290793D02*
X16255658Y-11328888D01*
X16255658Y-11328888D02*
X16265182Y-11347936D01*
X16265182Y-11347936D02*
X16274706Y-11357460D01*
X16274706Y-11357460D02*
X16293753Y-11366984D01*
X16293753Y-11366984D02*
X16331848Y-11366984D01*
X16331848Y-11366984D02*
X16350896Y-11357460D01*
X16350896Y-11357460D02*
X16360420Y-11347936D01*
X16360420Y-11347936D02*
X16369944Y-11328888D01*
X16369944Y-11328888D02*
X16369944Y-11290793D01*
X16369944Y-11290793D02*
X16360420Y-11271746D01*
X16360420Y-11271746D02*
X16350896Y-11262222D01*
X16350896Y-11262222D02*
X16331848Y-11252698D01*
X16446134Y-11166984D02*
X16446134Y-11205079D01*
X16522325Y-11166984D02*
X16522325Y-11205079D01*
X16817563Y-11443174D02*
X16808039Y-11433650D01*
X16808039Y-11433650D02*
X16788991Y-11405079D01*
X16788991Y-11405079D02*
X16779468Y-11386031D01*
X16779468Y-11386031D02*
X16769944Y-11357460D01*
X16769944Y-11357460D02*
X16760420Y-11309841D01*
X16760420Y-11309841D02*
X16760420Y-11271746D01*
X16760420Y-11271746D02*
X16769944Y-11224127D01*
X16769944Y-11224127D02*
X16779468Y-11195555D01*
X16779468Y-11195555D02*
X16788991Y-11176508D01*
X16788991Y-11176508D02*
X16808039Y-11147936D01*
X16808039Y-11147936D02*
X16817563Y-11138412D01*
X16998515Y-11366984D02*
X16884230Y-11366984D01*
X16941372Y-11366984D02*
X16941372Y-11166984D01*
X16941372Y-11166984D02*
X16922325Y-11195555D01*
X16922325Y-11195555D02*
X16903277Y-11214603D01*
X16903277Y-11214603D02*
X16884230Y-11224127D01*
X17236611Y-11366984D02*
X17236611Y-11166984D01*
X17322325Y-11366984D02*
X17322325Y-11262222D01*
X17322325Y-11262222D02*
X17312801Y-11243174D01*
X17312801Y-11243174D02*
X17293753Y-11233650D01*
X17293753Y-11233650D02*
X17265182Y-11233650D01*
X17265182Y-11233650D02*
X17246134Y-11243174D01*
X17246134Y-11243174D02*
X17236611Y-11252698D01*
X17446134Y-11366984D02*
X17427087Y-11357460D01*
X17427087Y-11357460D02*
X17417563Y-11347936D01*
X17417563Y-11347936D02*
X17408039Y-11328888D01*
X17408039Y-11328888D02*
X17408039Y-11271746D01*
X17408039Y-11271746D02*
X17417563Y-11252698D01*
X17417563Y-11252698D02*
X17427087Y-11243174D01*
X17427087Y-11243174D02*
X17446134Y-11233650D01*
X17446134Y-11233650D02*
X17474706Y-11233650D01*
X17474706Y-11233650D02*
X17493753Y-11243174D01*
X17493753Y-11243174D02*
X17503277Y-11252698D01*
X17503277Y-11252698D02*
X17512801Y-11271746D01*
X17512801Y-11271746D02*
X17512801Y-11328888D01*
X17512801Y-11328888D02*
X17503277Y-11347936D01*
X17503277Y-11347936D02*
X17493753Y-11357460D01*
X17493753Y-11357460D02*
X17474706Y-11366984D01*
X17474706Y-11366984D02*
X17446134Y-11366984D01*
X17627087Y-11366984D02*
X17608039Y-11357460D01*
X17608039Y-11357460D02*
X17598515Y-11338412D01*
X17598515Y-11338412D02*
X17598515Y-11166984D01*
X17779468Y-11357460D02*
X17760420Y-11366984D01*
X17760420Y-11366984D02*
X17722325Y-11366984D01*
X17722325Y-11366984D02*
X17703277Y-11357460D01*
X17703277Y-11357460D02*
X17693753Y-11338412D01*
X17693753Y-11338412D02*
X17693753Y-11262222D01*
X17693753Y-11262222D02*
X17703277Y-11243174D01*
X17703277Y-11243174D02*
X17722325Y-11233650D01*
X17722325Y-11233650D02*
X17760420Y-11233650D01*
X17760420Y-11233650D02*
X17779468Y-11243174D01*
X17779468Y-11243174D02*
X17788992Y-11262222D01*
X17788992Y-11262222D02*
X17788992Y-11281269D01*
X17788992Y-11281269D02*
X17693753Y-11300317D01*
X17855658Y-11443174D02*
X17865182Y-11433650D01*
X17865182Y-11433650D02*
X17884230Y-11405079D01*
X17884230Y-11405079D02*
X17893753Y-11386031D01*
X17893753Y-11386031D02*
X17903277Y-11357460D01*
X17903277Y-11357460D02*
X17912801Y-11309841D01*
X17912801Y-11309841D02*
X17912801Y-11271746D01*
X17912801Y-11271746D02*
X17903277Y-11224127D01*
X17903277Y-11224127D02*
X17893753Y-11195555D01*
X17893753Y-11195555D02*
X17884230Y-11176508D01*
X17884230Y-11176508D02*
X17865182Y-11147936D01*
X17865182Y-11147936D02*
X17855658Y-11138412D01*
M02*
