%TF.GenerationSoftware,KiCad,Pcbnew,9.0.1*%
%TF.CreationDate,2025-04-25T16:07:37+02:00*%
%TF.ProjectId,M.2-Key-E-Breakout,4d2e322d-4b65-4792-9d45-2d427265616b,rev?*%
%TF.SameCoordinates,Original*%
%TF.FileFunction,Drillmap*%
%TF.FilePolarity,Positive*%
%FSLAX45Y45*%
G04 Gerber Fmt 4.5, Leading zero omitted, Abs format (unit mm)*
G04 Created by KiCad (PCBNEW 9.0.1) date 2025-04-25 16:07:37*
%MOMM*%
%LPD*%
G01*
G04 APERTURE LIST*
%ADD10C,0.100000*%
%ADD11C,0.050000*%
%ADD12C,0.200000*%
G04 APERTURE END LIST*
D10*
X13247500Y-7102500D02*
X13247500Y-9702500D01*
X13247500Y-7102500D02*
X14172500Y-7102500D01*
X13247500Y-9702500D02*
X13297500Y-9702500D01*
X13357500Y-9762500D02*
X13357500Y-10102500D01*
X13357500Y-10102500D02*
X14552500Y-10102500D01*
D11*
X14552500Y-10102500D02*
X14552500Y-9812500D01*
X14672500Y-9812500D02*
X14672500Y-10102500D01*
D10*
X14672500Y-10102500D02*
X15337500Y-10102500D01*
X15337500Y-9762500D02*
X15337500Y-10102500D01*
X15447500Y-7102500D02*
X14522500Y-7102500D01*
X15447500Y-7102500D02*
X15447500Y-9702500D01*
X15447500Y-9702500D02*
X15397500Y-9702500D01*
X13297500Y-9702500D02*
G75*
G02*
X13357500Y-9762500I0J-60000D01*
G01*
X14522500Y-7102500D02*
G75*
G02*
X14172500Y-7102500I-175000J0D01*
G01*
D11*
X14552500Y-9812500D02*
G75*
G02*
X14672500Y-9812500I60000J0D01*
G01*
D10*
X15337500Y-9762500D02*
G75*
G02*
X15397500Y-9702500I60000J0D01*
G01*
D12*
X13503277Y-10418984D02*
X13503277Y-10218984D01*
X13503277Y-10218984D02*
X13550896Y-10218984D01*
X13550896Y-10218984D02*
X13579467Y-10228508D01*
X13579467Y-10228508D02*
X13598515Y-10247555D01*
X13598515Y-10247555D02*
X13608039Y-10266603D01*
X13608039Y-10266603D02*
X13617562Y-10304698D01*
X13617562Y-10304698D02*
X13617562Y-10333270D01*
X13617562Y-10333270D02*
X13608039Y-10371365D01*
X13608039Y-10371365D02*
X13598515Y-10390412D01*
X13598515Y-10390412D02*
X13579467Y-10409460D01*
X13579467Y-10409460D02*
X13550896Y-10418984D01*
X13550896Y-10418984D02*
X13503277Y-10418984D01*
X13703277Y-10418984D02*
X13703277Y-10285650D01*
X13703277Y-10323746D02*
X13712801Y-10304698D01*
X13712801Y-10304698D02*
X13722324Y-10295174D01*
X13722324Y-10295174D02*
X13741372Y-10285650D01*
X13741372Y-10285650D02*
X13760420Y-10285650D01*
X13827086Y-10418984D02*
X13827086Y-10285650D01*
X13827086Y-10218984D02*
X13817562Y-10228508D01*
X13817562Y-10228508D02*
X13827086Y-10238031D01*
X13827086Y-10238031D02*
X13836610Y-10228508D01*
X13836610Y-10228508D02*
X13827086Y-10218984D01*
X13827086Y-10218984D02*
X13827086Y-10238031D01*
X13950896Y-10418984D02*
X13931848Y-10409460D01*
X13931848Y-10409460D02*
X13922324Y-10390412D01*
X13922324Y-10390412D02*
X13922324Y-10218984D01*
X14055658Y-10418984D02*
X14036610Y-10409460D01*
X14036610Y-10409460D02*
X14027086Y-10390412D01*
X14027086Y-10390412D02*
X14027086Y-10218984D01*
X14284229Y-10418984D02*
X14284229Y-10218984D01*
X14284229Y-10218984D02*
X14350896Y-10361841D01*
X14350896Y-10361841D02*
X14417562Y-10218984D01*
X14417562Y-10218984D02*
X14417562Y-10418984D01*
X14598515Y-10418984D02*
X14598515Y-10314222D01*
X14598515Y-10314222D02*
X14588991Y-10295174D01*
X14588991Y-10295174D02*
X14569943Y-10285650D01*
X14569943Y-10285650D02*
X14531848Y-10285650D01*
X14531848Y-10285650D02*
X14512801Y-10295174D01*
X14598515Y-10409460D02*
X14579467Y-10418984D01*
X14579467Y-10418984D02*
X14531848Y-10418984D01*
X14531848Y-10418984D02*
X14512801Y-10409460D01*
X14512801Y-10409460D02*
X14503277Y-10390412D01*
X14503277Y-10390412D02*
X14503277Y-10371365D01*
X14503277Y-10371365D02*
X14512801Y-10352317D01*
X14512801Y-10352317D02*
X14531848Y-10342793D01*
X14531848Y-10342793D02*
X14579467Y-10342793D01*
X14579467Y-10342793D02*
X14598515Y-10333270D01*
X14693753Y-10285650D02*
X14693753Y-10485650D01*
X14693753Y-10295174D02*
X14712801Y-10285650D01*
X14712801Y-10285650D02*
X14750896Y-10285650D01*
X14750896Y-10285650D02*
X14769943Y-10295174D01*
X14769943Y-10295174D02*
X14779467Y-10304698D01*
X14779467Y-10304698D02*
X14788991Y-10323746D01*
X14788991Y-10323746D02*
X14788991Y-10380889D01*
X14788991Y-10380889D02*
X14779467Y-10399936D01*
X14779467Y-10399936D02*
X14769943Y-10409460D01*
X14769943Y-10409460D02*
X14750896Y-10418984D01*
X14750896Y-10418984D02*
X14712801Y-10418984D01*
X14712801Y-10418984D02*
X14693753Y-10409460D01*
X14874705Y-10399936D02*
X14884229Y-10409460D01*
X14884229Y-10409460D02*
X14874705Y-10418984D01*
X14874705Y-10418984D02*
X14865182Y-10409460D01*
X14865182Y-10409460D02*
X14874705Y-10399936D01*
X14874705Y-10399936D02*
X14874705Y-10418984D01*
X14874705Y-10295174D02*
X14884229Y-10304698D01*
X14884229Y-10304698D02*
X14874705Y-10314222D01*
X14874705Y-10314222D02*
X14865182Y-10304698D01*
X14865182Y-10304698D02*
X14874705Y-10295174D01*
X14874705Y-10295174D02*
X14874705Y-10314222D01*
M02*
